<svg width="310" height="361" viewBox="0 0 310 361" fill="none" xmlns="http://www.w3.org/2000/svg">
<g clip-path="url(#clip0_723_246)">
<path d="M308.679 94.9692C307.841 93.5555 305.857 91.1836 301.997 91.1836C301.22 91.1836 300.423 91.2915 299.622 91.4664C298.872 90.0336 298.075 88.5297 297.24 86.9771C296.778 85.6981 296.186 84.613 295.472 83.7295C290.188 74.1264 287.156 81 279.005 85.4973C272.5 89.086 268.5 90.0337 263 90.9692C254 92.5 248.493 89.3328 242.5 85.4973C235.776 81.1937 229.767 64.8477 223 61.9999C216.233 59.1521 201.5 67.5 199 67.5C197 67.5 189.347 55.2972 179.5 54.4977C176.746 54.2741 170.5 55.5 167 58C157.5 64.7857 155.161 63.3922 152 63.9999C142.5 65.8259 128.094 52.1779 119 53.9999C105.873 56.6299 101.5 74.9985 96.5 77C91.9744 78.8115 83.5 74.3076 73.5 81.5C70.0588 83.9751 68 102 63 108C57.5 114 43.5608 93.5402 40 88.383C40 88.383 22.0583 65.5026 13.6889 85.1714C13.1809 86.0873 12.7649 87.1499 12.4392 88.3429C12.4349 88.3549 12.4301 88.3661 12.4259 88.3781L12.4277 88.383C12.1504 89.4068 11.9373 90.523 11.7974 91.7364C10.5102 91.3112 9.21083 91.0504 7.96174 91.0504C4.18362 91.0504 2.211 93.363 1.37182 94.7414C-2.15988 100.541 1.22288 108.538 10.4199 116.133C11.953 117.398 13.5109 118.519 15.0403 119.459C17.9072 146.563 28.5616 167.9 44.7397 178.988C45.6249 184.814 48.2938 190.165 52.2512 193.835C55.4263 196.778 59.0088 198.671 62.75 199.405C62.7343 200.719 62.7821 202.006 62.8935 203.255C63.3034 207.846 64.5834 212.101 66.6971 215.901C70.9378 223.524 78.1065 228.564 85.8753 229.382C86.5189 229.45 87.1698 229.485 87.811 229.485C88.4207 229.485 89.0231 229.454 89.6165 229.393C89.7242 230.419 89.8696 231.445 90.0524 232.468C90.1681 233.117 90.2879 233.712 90.4181 234.29L90.452 234.441C90.5598 234.92 90.67 235.399 90.7983 235.878C91.1689 237.258 91.6351 238.563 92.194 239.786C86.6806 253.601 78.0435 281.823 82.0965 315.699C69.4307 316.128 60.9275 322.298 58.0812 333.183L55.4856 343.11L100.295 338.079L107.505 337.259L105.432 329.174C105.317 328.726 94.4875 285.287 111.779 250.668C115.222 250.258 118.867 249.125 122.855 247.229C123.011 247.155 123.248 247.049 123.543 246.916C123.64 246.872 123.741 246.827 123.845 246.78C124.047 247.98 124.306 249.182 124.619 250.36C124.727 250.769 124.84 251.174 124.961 251.576C125.25 252.538 125.57 253.474 125.911 254.354C125.951 254.467 125.993 254.578 126.034 254.68C126.674 256.29 127.442 257.87 128.317 259.379C128.465 259.633 128.617 259.885 128.769 260.131C129.373 261.114 129.969 261.986 130.589 262.798C131.001 263.338 131.434 263.864 131.876 264.363C136.763 269.879 143.393 272.916 150.548 272.916C150.739 272.916 150.93 272.914 151.122 272.909C152.413 272.879 153.757 272.734 155.118 272.479C155.777 272.355 156.45 272.199 157.118 272.016C158.986 271.503 160.786 270.78 162.481 269.862C162.578 269.813 162.671 269.764 162.746 269.721C165.51 268.178 167.952 266.153 170.025 263.688C171.805 266.047 173.947 268.089 176.341 269.68C176.907 270.056 177.496 270.412 178.102 270.748C184.598 286.815 193.295 300.717 204.028 312.201C202.882 313.368 201.69 314.696 200.546 316.166C193.804 324.836 191.841 334.53 195.019 343.463L198.43 353.05L230.292 316.016L235.413 310.051L229.403 305.34C229.229 305.204 213.936 293.066 202.647 272.668C207.346 271.196 211.462 268.709 214.78 265.301C216.231 263.811 217.532 262.109 218.647 260.242C220.005 257.971 221.056 255.491 221.765 252.933C222.094 253.072 222.422 253.205 222.753 253.333C223.182 253.498 223.613 253.649 224.044 253.794C226.985 254.776 229.967 255.274 232.907 255.274C237.184 255.274 241.188 254.236 244.813 252.188C245.523 251.786 246.222 251.342 246.892 250.868C251.279 247.76 254.74 242.759 256.639 236.785C257.606 233.743 258.123 230.61 258.175 227.468L258.183 227.326L258.178 227.114C258.183 226.265 258.151 225.405 258.085 224.553C258.031 223.877 257.949 223.184 257.834 222.433C257.775 222.045 257.709 221.66 257.634 221.281C257.583 221.018 257.527 220.755 257.468 220.494C258.171 220.146 258.868 219.758 259.551 219.336L259.607 219.301C266.192 215.197 271.094 207.909 272.717 199.806C274.378 191.523 272.65 182.582 268.426 175.652C272.323 172.486 275.857 168.685 279.005 164.276C279.489 164.389 279.991 164.448 280.505 164.448C282.84 164.448 285.114 163.197 286.588 161.104C288.04 159.042 288.611 156.339 288.155 153.688C287.906 152.24 287.572 150.836 287.156 149.486C290.548 141.411 292.989 132.183 294.365 122.367L297.52 117.662C298.15 117.209 298.78 116.736 299.406 116.233C308.682 108.768 312.149 100.819 308.679 94.9692Z" fill="#FFFCF7"/>
<path d="M101.504 234.051C101.504 234.051 80.1707 273.268 89.2551 323.08C89.2551 323.08 68.0244 318.981 63.7812 335.208L99.7213 331.172C99.7213 331.172 84.8213 273.635 114.467 234.519" fill="#083200"/>
<path d="M174.477 234.779C174.477 234.779 179.394 280.847 213.583 312.598C213.583 312.598 194.95 325.138 200.524 340.808L226.079 311.105C226.079 311.105 183.185 277.69 184.742 225.551" fill="#083200"/>
<path d="M303.774 98.9157C302.584 96.9119 297.189 98.8516 291.719 103.25C291.756 103.043 291.795 102.84 291.83 102.63C293.083 95.0209 292.432 88.4806 290.376 88.0216C288.321 87.5626 285.638 93.3583 284.385 100.968C284.356 101.14 284.334 101.307 284.308 101.478C284.221 101.274 284.138 101.073 284.047 100.868C280.983 93.9908 276.993 89.326 275.135 90.4485C273.277 91.5709 274.255 98.0563 277.318 104.934C278.957 108.613 280.858 111.639 282.558 113.504C280.6 138.313 270.758 163.351 248.459 170.31C244.249 171.624 245.995 179.24 250.217 177.922C275.202 170.125 286.816 142.671 289.227 114.761C291.246 113.9 293.624 112.446 296.016 110.522C301.49 106.117 304.963 100.922 303.774 98.9157Z" fill="#083200"/>
<path d="M60.7884 170.934C38.5647 163.657 28.9868 138.479 27.2915 113.644C29.0116 111.804 30.9437 108.805 32.6214 105.15C35.7577 98.3174 36.8034 91.8469 34.9573 90.6976C33.1112 89.5483 29.0722 94.1567 25.9364 100.99C25.8432 101.193 25.7584 101.394 25.6688 101.595C25.6446 101.424 25.624 101.256 25.5974 101.084C24.4246 93.458 21.8035 87.6235 19.7431 88.0536C17.6827 88.4837 16.9634 95.0141 18.1362 102.64C18.1683 102.851 18.2058 103.054 18.2403 103.261C12.8171 98.7856 7.44239 96.7683 6.23206 98.7553C5.02112 100.744 8.4396 105.989 13.8664 110.47C16.2374 112.428 18.6 113.917 20.6095 114.806C22.7262 142.749 34.0485 170.367 58.9496 178.521C63.1576 179.898 64.9843 172.308 60.7884 170.934Z" fill="#083200"/>
<path d="M254.588 108.534C258.147 115.462 259.398 129.159 253.798 135.224C261.039 136.637 267.086 144.1 267.878 152.6C268.669 161.101 264.137 169.899 257.325 173.088C264.72 177.853 268.836 188.642 266.915 198.227C264.993 207.811 257.202 215.364 248.76 215.825C255.235 224.228 252.079 239.069 243.796 244.937C235.513 250.806 224.282 248.621 216.537 241.827C217.823 248.46 215.217 255.597 210.839 260.095C206.46 264.593 200.57 266.703 194.745 267.178C189.434 267.611 183.922 266.724 179.297 263.651C174.673 260.578 171.061 255.109 170.542 248.938C166.417 267.362 145.185 271.467 135.044 258.184C130.349 252.035 128.3 243.274 129.669 235.202C129.352 237.073 122.034 240.122 120.604 240.802C117.108 242.464 113.367 243.747 109.57 243.888C103.529 244.113 98.4066 240.945 96.4879 233.803C95.1752 228.917 94.99 223.626 95.9563 218.631C93.8099 221.869 89.9119 222.837 86.4135 222.469C80.5083 221.847 74.9247 217.922 71.7012 212.127C68.3112 206.032 68.1538 199.224 69.4876 192.393C64.7383 193.641 59.8534 192.009 55.9639 188.403C51.8527 184.593 49.7051 178.106 50.5552 172.067C51.375 166.241 54.7136 161.261 58.6388 157.526C53.2841 155.048 49.7499 148.455 49.466 141.753C49.182 135.052 51.8509 128.445 55.9542 123.735C60.0574 119.025 65.4776 116.085 71.0776 114.505C71.4251 105.624 73.6333 97.2559 80.0458 92.1039C86.8718 86.6191 96.3843 86.0727 103.641 90.7487C104.684 78.156 114.884 68.3399 125.657 66.7035C136.429 65.067 147.28 70.2415 155.946 77.8705C161.026 69.9405 168.621 63.6519 177.101 63.0512C185.581 62.4497 194.602 68.7806 196.415 78.4465C203.397 72.5133 212.889 70.3036 220.984 73.8311C229.08 77.3586 235.194 87.0294 234.705 97.0789C242.469 96.0537 250.577 100.725 254.588 108.534Z" fill="#24D0A5"/>
<path d="M243.793 244.938C252.076 239.07 255.232 224.229 248.756 215.826C256.254 215.417 263.228 209.41 266.043 201.358C257.932 198.721 249.146 199.798 241.146 202.926C237.369 204.403 233.5 206.349 229.557 205.684C226.315 205.137 223.507 202.894 220.571 201.203C211.933 196.226 201.372 196.024 192.599 200.669C189.891 202.103 187.157 204.018 184.191 203.754C181.762 203.538 179.634 201.888 177.466 200.593C168.693 195.351 157.603 195.795 149.161 201.728C147.464 202.921 145.632 204.379 143.684 203.953C141.981 203.58 140.773 201.877 139.61 200.381C131.237 189.614 117.428 185.06 105.45 189.114C108.387 173.427 98.6031 158.198 87.4389 148.777C85.1042 146.807 82.52 144.722 81.6996 141.503C81.0699 139.034 81.6227 136.389 82.1901 133.899C84.1518 125.291 86.2994 116.515 85.7054 107.636C85.3246 101.942 83.5457 96.1338 80.4596 91.7969C80.3216 91.9026 80.1775 91.9971 80.0419 92.1064C73.63 97.2584 71.4212 105.626 71.0737 114.507C65.4743 116.088 60.0535 119.028 55.9503 123.738C51.847 128.448 49.1781 135.055 49.4621 141.756C49.746 148.457 53.2801 155.051 58.6349 157.528C54.7097 161.264 51.3717 166.244 50.5513 172.069C49.7012 178.108 51.8488 184.595 55.96 188.406C59.8501 192.012 64.7344 193.644 69.4837 192.395C68.1499 199.227 68.3067 206.034 71.6973 212.129C74.9208 217.924 80.505 221.849 86.4096 222.471C89.908 222.84 93.8066 221.873 95.9524 218.634C94.986 223.63 95.1719 228.92 96.484 233.807C98.4021 240.948 103.526 244.116 109.566 243.891C113.363 243.75 117.104 242.467 120.6 240.805C122.03 240.126 129.348 237.076 129.665 235.205C128.296 243.277 130.345 252.039 135.04 258.188C145.181 271.471 166.413 267.365 170.538 248.941C171.057 255.112 174.669 260.581 179.293 263.654C183.918 266.727 189.43 267.614 194.741 267.181C200.565 266.706 206.455 264.595 210.834 260.098C215.213 255.601 217.818 248.462 216.533 241.83C224.278 248.622 235.509 250.807 243.793 244.938Z" fill="#04B286"/>
<path d="M124.563 145.257C124.53 151.437 121.481 156.425 117.752 156.398C114.023 156.371 111.026 151.34 111.059 145.161C111.092 138.981 114.141 133.993 117.87 134.02C121.599 134.046 124.595 139.077 124.563 145.257Z" fill="#083200"/>
<path d="M186.665 145.702C186.632 151.882 183.583 156.87 179.853 156.843C176.124 156.817 173.128 151.785 173.16 145.606C173.193 139.426 176.242 134.438 179.972 134.465C183.7 134.492 186.697 139.523 186.665 145.702Z" fill="#083200"/>
<path d="M133.155 145.317C133.855 155.121 138.694 163.017 147.542 163.757C156.284 164.487 162.822 155.87 164.528 146.681C164.988 144.206 161.732 143.127 161.27 145.61C158.039 163.007 137.927 164.792 136.539 145.341C136.36 142.83 132.974 142.784 133.155 145.317Z" fill="#083200"/>
<path d="M282.31 155.05C280.595 145.079 274.533 140.261 266.303 138.21C253.78 135.087 240.047 135.291 227.286 134.782C222.211 117.718 208.322 105.38 191.954 105.263C173.943 105.134 158.776 119.842 155.002 139.53C151.057 136.254 145.935 135.879 141.696 138.748C137.909 119.351 123.043 104.769 105.241 104.641C84.4914 104.493 67.5068 124.03 67.3796 148.191C67.2519 172.355 84.0288 192.134 104.779 192.282C125.527 192.431 142.512 172.894 142.639 148.73C142.65 146.79 142.539 144.882 142.338 143.006C146.056 139.692 151.076 139.957 154.355 143.971C154.195 145.561 154.103 147.175 154.094 148.812C153.966 172.976 170.743 192.754 191.492 192.903C212.24 193.052 229.224 173.515 229.352 149.351C229.372 145.71 229 142.171 228.296 138.781C236.842 139.148 245.371 139.729 253.895 140.555C264.036 141.537 276.573 141.72 279.042 156.073C279.47 158.564 282.737 157.532 282.31 155.05ZM104.81 186.372C86.8588 186.243 72.3445 169.133 72.4547 148.228C72.5649 127.325 87.2584 110.424 105.21 110.552C123.16 110.68 137.673 127.792 137.563 148.694C137.453 169.599 122.759 186.5 104.81 186.372ZM191.523 186.993C173.573 186.865 159.059 169.753 159.169 148.849C159.279 127.946 173.974 111.045 191.923 111.173C209.872 111.302 224.386 128.412 224.276 149.315C224.166 170.219 209.472 187.122 191.523 186.993Z" fill="#FCCD56"/>
<path d="M120.64 188.311C115.603 187.235 110.373 187.445 105.45 189.111C105.623 188.188 105.748 187.268 105.835 186.349C105.494 186.359 105.154 186.375 104.81 186.372C86.8594 186.244 72.3451 169.133 72.4553 148.228C72.5195 136.047 77.5424 125.232 85.2712 118.346C85.5976 115.839 85.7998 113.321 85.804 110.793C74.8499 118.395 67.4638 132.291 67.3796 148.192C67.2519 172.355 84.0288 192.134 104.779 192.282C110.435 192.323 115.808 190.891 120.64 188.311Z" fill="#F9BB58"/>
<path d="M177.333 226.691C177.558 226.571 177.422 225.414 176.515 223.899C175.634 222.404 173.865 220.628 171.449 219.92C169.032 219.218 166.753 219.812 165.37 220.647C163.957 221.486 163.368 222.432 163.519 222.661C163.684 222.935 164.519 222.511 165.848 222.157C167.166 221.794 169.041 221.567 170.974 222.128C172.906 222.694 174.467 223.924 175.483 224.969C176.512 226.011 177.077 226.843 177.333 226.691Z" fill="#93F9E0"/>
<path d="M187.686 221.693C187.789 221.433 187.198 220.761 185.956 220.325C184.73 219.883 182.855 219.836 180.996 220.662C179.139 221.493 177.772 222.988 177.114 224.27C176.44 225.561 176.386 226.52 176.612 226.635C177.113 226.903 178.609 224.09 181.696 222.787C184.74 221.354 187.468 222.283 187.686 221.693Z" fill="#93F9E0"/>
<path d="M117.261 202.722C117.419 202.482 117.192 201.89 116.543 201.26C115.903 200.632 114.821 200.023 113.539 199.844C112.258 199.669 111.083 199.966 110.335 200.402C109.577 200.838 109.238 201.352 109.343 201.627C109.588 202.208 111.3 201.792 113.309 202.104C115.324 202.349 116.906 203.219 117.261 202.722Z" fill="#93F9E0"/>
<path d="M90.5925 172.371C90.8371 172.266 90.8226 171.27 90.4236 169.737C90.0185 168.248 89.1799 166.02 87.2545 164.444C85.2178 162.849 82.837 163.099 81.5141 164.032C80.1324 165.011 79.9986 166.292 80.2166 166.371C80.4727 166.546 81.0073 165.821 82.0766 165.502C83.1083 165.164 84.8054 165.253 86.1502 166.322C87.5603 167.454 88.4818 169.162 89.1678 170.408C89.8502 171.668 90.3321 172.484 90.5925 172.371Z" fill="#93F9E0"/>
<path d="M101.283 170.976C101.501 170.849 101.378 169.818 100.427 168.646C99.5171 167.499 97.6432 166.329 95.4284 166.687C93.2172 167.076 91.706 168.818 91.1132 170.218C90.4872 171.656 90.6198 172.685 90.8601 172.735C91.1392 172.816 91.4947 172.038 92.2479 171.135C92.9799 170.231 94.2108 169.197 95.7081 168.938C97.2073 168.691 98.6398 169.276 99.5619 169.901C100.505 170.519 101.035 171.146 101.283 170.976Z" fill="#93F9E0"/>
<path d="M146.425 237.876C146.273 237.592 145.562 237.852 144.497 237.915C143.449 237.996 141.966 237.795 140.841 236.77C139.753 235.768 139.311 234.1 139.298 232.959C139.258 231.787 139.568 231.009 139.341 230.798C139.179 230.599 138.327 231.121 137.931 232.732C137.54 234.26 137.825 236.856 139.633 238.559C141.437 240.175 143.584 240.031 144.794 239.486C146.063 238.936 146.566 238.11 146.425 237.876Z" fill="#93F9E0"/>
<path d="M230.204 192.025C229.906 191.977 229.637 193.287 228.648 194.913C227.701 196.522 225.847 198.461 223.406 198.953C220.961 199.417 218.665 198.292 217.318 197.132C215.927 195.972 215.305 194.837 215.037 194.994C214.82 195.085 215.008 196.601 216.404 198.337C217.733 200.034 220.496 201.8 223.731 201.197C226.957 200.534 229.072 197.814 229.851 195.704C230.682 193.532 230.434 192.028 230.204 192.025Z" fill="#93F9E0"/>
<path d="M243.825 192.087C243.548 191.972 243.078 192.979 242.023 194.139C240.998 195.298 239.252 196.591 237.167 196.765C235.08 196.921 233.2 195.916 232.05 194.929C230.87 193.946 230.287 193.023 230.026 193.18C229.806 193.286 229.962 194.58 231.116 196.115C232.222 197.619 234.503 199.239 237.299 199.036C240.093 198.797 242.165 196.832 243.086 195.168C244.051 193.465 244.055 192.158 243.825 192.087Z" fill="#93F9E0"/>
<path d="M160.032 182.866C160.157 182.601 159.691 181.936 158.682 181.257C157.689 180.592 156.075 179.916 154.184 180.113C152.273 180.318 150.728 181.489 149.986 182.641C149.219 183.804 149.199 184.758 149.429 184.864C149.688 185.004 150.139 184.414 150.944 183.8C151.736 183.177 152.951 182.535 154.367 182.379C157.257 182.106 159.772 183.49 160.032 182.866Z" fill="#93F9E0"/>
<path d="M132.649 94.524C132.491 94.2356 131.65 94.6431 130.328 94.7186C129.031 94.8173 127.154 94.4718 125.708 93.0764C124.272 91.667 123.646 89.5771 123.501 88.0732C123.33 86.5453 123.524 85.5088 123.253 85.3791C123.042 85.2508 122.318 86.1589 122.118 88.0662C121.906 89.9043 122.423 92.8128 124.455 94.8215C126.513 96.7929 129.063 96.8691 130.579 96.3001C132.156 95.7339 132.794 94.7425 132.649 94.524Z" fill="#93F9E0"/>
<path d="M145.999 98.4472C145.792 98.2124 144.997 98.8751 143.669 99.5986C142.361 100.323 140.413 101.062 138.367 100.68C136.36 100.291 134.791 98.7546 134.021 97.4424C133.212 96.1183 133.056 94.9993 132.758 95.0085C132.529 94.9739 132.138 96.2656 132.802 98.2004C133.427 100.077 135.288 102.381 138.053 102.927C140.781 103.422 143.117 102.155 144.398 100.966C145.721 99.7508 146.182 98.6389 145.999 98.4472Z" fill="#93F9E0"/>
<path d="M106.298 119.609C106.455 119.382 105.996 118.542 104.877 117.663C103.772 116.785 101.969 115.98 99.896 115.903C97.8235 115.834 95.981 116.51 94.8325 117.309C93.6706 118.107 93.1686 118.913 93.3133 119.151C93.6318 119.69 96.2959 117.995 99.8367 118.178C103.381 118.246 105.952 120.125 106.298 119.609Z" fill="#93F9E0"/>
<path d="M181.674 91.3307C181.476 91.0741 180.67 91.6868 179.299 92.0132C177.962 92.3601 175.931 92.3122 174.279 91.0282C172.638 89.7252 171.838 87.5508 171.613 85.977C171.359 84.3751 171.545 83.2752 171.267 83.1581C171.056 83.0376 170.329 84.0423 170.234 86.068C170.12 88.0154 170.863 91.0522 173.187 92.915C175.541 94.7264 178.237 94.39 179.745 93.5369C181.321 92.6739 181.849 91.5133 181.674 91.3307Z" fill="#93F9E0"/>
<path d="M197.337 99.8188C197.119 99.5742 196.198 100.511 194.484 101.218C192.814 101.94 190.186 102.309 187.781 101.02C185.387 99.7039 183.94 97.1233 183.341 95.1688C182.704 93.1854 182.729 91.7619 182.428 91.7245C182.205 91.6632 181.642 93.1269 182.007 95.5862C182.335 97.9708 183.861 101.37 186.955 103.083C190.072 104.742 193.288 103.918 195.067 102.678C196.921 101.421 197.521 99.9782 197.337 99.8188Z" fill="#93F9E0"/>
<path d="M211.735 96.2038C211.448 96.1163 211.04 97.3002 209.995 98.7561C208.986 100.202 207.167 101.925 204.856 102.286C202.561 102.62 200.445 101.41 199.283 100.202C198.072 98.9895 197.632 97.8177 197.344 97.9256C197.119 97.9658 197.076 99.4676 198.272 101.299C199.405 103.078 201.98 104.983 205.107 104.543C208.201 104.046 210.29 101.572 211.144 99.6516C212.048 97.6746 211.967 96.2496 211.735 96.2038Z" fill="#93F9E0"/>
<path d="M219.768 147.965C219.97 147.819 219.594 146.477 218.163 145.011C216.779 143.566 214.182 142.146 211.182 142.574C208.186 143.028 205.974 145.154 204.942 146.955C203.869 148.789 203.791 150.198 204.018 150.281C204.292 150.408 204.826 149.304 206 147.99C207.146 146.678 209.07 145.185 211.428 144.831C213.787 144.492 215.969 145.38 217.359 146.32C218.777 147.253 219.529 148.168 219.768 147.965Z" fill="#93F9E0"/>
<path d="M234.97 146.628C235.157 146.444 234.64 145.196 233.183 143.774C231.771 142.386 229.204 140.83 226.12 141.2C222.992 141.623 220.78 144.082 219.98 146.152C219.133 148.283 219.508 149.766 219.732 149.734C220.036 149.757 220.205 148.471 221.17 146.967C222.091 145.479 223.977 143.774 226.334 143.462C228.733 143.164 230.943 144.173 232.407 145.105C233.892 146.042 234.757 146.858 234.97 146.628Z" fill="#93F9E0"/>
<path d="M211.107 127.67C211.254 127.432 210.832 126.668 209.738 126.053C208.673 125.44 206.879 125.099 205.073 125.896C203.268 126.7 202.124 128.345 201.679 129.628C201.214 130.934 201.335 131.832 201.58 131.895C202.085 132.076 203.112 129.183 205.768 128.022C208.414 126.831 210.834 128.195 211.107 127.67Z" fill="#93F9E0"/>
<path d="M238.865 122.636C239.104 122.649 239.421 121.65 238.912 120.144C238.445 118.703 236.951 116.803 234.65 116.643C232.345 116.562 230.711 118.298 230.135 119.684C229.512 121.13 229.75 122.159 229.99 122.171C230.276 122.22 230.557 121.436 231.272 120.599C231.954 119.761 233.2 118.852 234.563 118.917C235.924 118.995 237.095 120.03 237.709 120.937C238.357 121.845 238.576 122.655 238.865 122.636Z" fill="#93F9E0"/>
<path d="M199.924 244.88C200.052 244.636 199.445 243.813 198.054 243.323C196.703 242.83 194.503 242.841 192.556 244.318C190.62 245.811 189.737 248.158 189.59 249.798C189.423 251.48 189.831 252.454 190.074 252.415C190.361 252.387 190.477 251.454 190.93 250.188C191.365 248.929 192.228 247.297 193.629 246.219C195.036 245.149 196.664 244.875 197.829 244.91C199.007 244.929 199.789 245.175 199.924 244.88Z" fill="#93F9E0"/>
<path d="M246.904 165.419C247.054 165.185 246.572 164.35 245.359 163.646C244.175 162.945 242.195 162.504 240.153 163.269C238.114 164.041 236.731 165.749 236.124 167.125C235.494 168.522 235.524 169.529 235.763 169.616C236.031 169.727 236.462 168.991 237.248 168.061C238.022 167.13 239.225 166.014 240.755 165.434C242.287 164.86 243.823 164.945 244.919 165.172C246.024 165.388 246.743 165.692 246.904 165.419Z" fill="#93F9E0"/>
<path d="M75.3807 137.305C75.2299 137.033 74.3435 137.422 73.0242 138.072C71.7061 138.699 69.9187 139.565 67.9697 139.452C66.0038 139.389 64.6112 138.15 63.987 136.863C63.3324 135.609 63.4124 134.548 63.1302 134.467C62.9207 134.337 62.2154 135.505 62.7137 137.489C62.9625 138.439 63.5105 139.504 64.435 140.338C65.3638 141.177 66.5984 141.653 67.8753 141.724C70.4715 141.851 72.5041 140.484 73.7053 139.471C74.9302 138.408 75.5224 137.56 75.3807 137.305Z" fill="#93F9E0"/>
</g>
<defs>
<clipPath id="clip0_723_246">
<rect width="310" height="361" fill="white"/>
</clipPath>
</defs>
</svg>
