<svg width="181" height="180" viewBox="0 0 181 180" fill="none" xmlns="http://www.w3.org/2000/svg">
<path fill-rule="evenodd" clip-rule="evenodd" d="M34.6602 18.365C49.4467 9.18776 68.049 6 90.2621 6C113.302 6 131.595 10.5508 145.948 20.3432C160.353 30.1713 168.879 43.9815 174.807 58.7087C181.528 75.404 181.458 95.0569 176.319 109.746C173.78 117.002 169.272 125.107 161.532 130.165C152.602 136 141.968 136.079 132.387 130.972C124.264 126.642 122.243 127.514 121.415 127.872L121.355 127.898C118.553 129.091 113.3 133.409 103.444 147.736C94.7413 160.388 83.756 169.664 70.121 172.906C56.4261 176.163 43.0998 172.613 31.2442 165.841C22.9765 161.118 16.9627 153.451 12.6922 145.702C8.31955 137.768 5.10265 128.543 3.00735 119.059C-1.12762 100.343 -1.4001 78.2246 4.73046 59.6651C10.4719 42.2835 19.3592 27.8616 34.6602 18.365ZM19.9231 64.6835C29.9492 34.3308 48.2495 22 90.2621 22C132.275 22 149.464 38.5991 159.964 64.6835C170.465 90.7679 159.486 127.286 139.913 116.852C120.339 106.419 109.836 110.213 90.2621 138.668C75.6946 159.846 58.2765 162.856 39.18 151.948C20.0835 141.04 9.89698 95.0362 19.9231 64.6835ZM54.4564 80.3324C54.4564 86.8806 49.1127 92.189 42.521 92.189C35.9293 92.189 30.5856 86.8806 30.5856 80.3324C30.5856 73.7842 35.9293 68.4759 42.521 68.4759C49.1127 68.4759 54.4564 73.7842 54.4564 80.3324ZM66.3921 68.4764C72.9838 68.4764 78.3275 63.168 78.3275 56.6198C78.3275 50.0717 72.9838 44.7633 66.3921 44.7633C59.8004 44.7633 54.4567 50.0717 54.4567 56.6198C54.4567 63.168 59.8004 68.4764 66.3921 68.4764ZM115.57 55.6706C115.57 62.2187 110.226 67.5271 103.634 67.5271C97.0425 67.5271 91.6989 62.2187 91.6989 55.6706C91.6989 49.1224 97.0425 43.814 103.634 43.814C110.226 43.814 115.57 49.1224 115.57 55.6706ZM133.228 85.5479C139.82 85.5479 145.163 80.2395 145.163 73.6913C145.163 67.1432 139.82 61.8348 133.228 61.8348C126.636 61.8348 121.293 67.1432 121.293 73.6913C121.293 80.2395 126.636 85.5479 133.228 85.5479Z" fill="#439A86"/>
</svg>
