<svg width="512" height="512" viewBox="0 0 512 512" fill="none" xmlns="http://www.w3.org/2000/svg">
<g clip-path="url(#clip0_701_1819)">
<path d="M433.929 381.971C427.453 379.004 420.745 377.499 413.996 377.499C407.38 377.499 401.492 378.915 396.386 381.033L372.009 347.01C376.075 341.461 379.777 335.704 383.084 329.782C401.635 305.509 413.171 276.029 415.637 245.634C416.021 241.129 416.217 236.546 416.226 231.959C436.022 207.07 443.744 175.346 437.721 143.923C441.248 138.539 444.741 131.993 447.016 124.443C448.44 119.718 450.118 112.498 448.24 104.381C445.197 91.284 436.337 83.926 417.5 79.0025C417.5 79.0025 403 76.5025 392.5 80.0025C382 83.5025 369 96.0025 361 92.5025C353 89.0025 317.855 44.5001 253 44.5C209.355 44.4999 203.812 45.7034 166.5 78.9994C150.497 93.2804 149 140.5 137.5 133.5C120.156 122.943 109 111.5 99.2344 106.5C92.8306 103.221 83.2584 102.196 80.9764 102.839C77.1024 103.934 71.8194 106.436 67.3164 112.123C65.8704 112.143 64.4194 112.276 62.9884 112.522C50.2684 114.725 40.6094 125.617 39.4994 139.013C38.8124 147.304 41.5214 154.213 43.6204 158.687C46.9684 165.831 51.3794 171.804 55.6574 176.624C54.8914 194.374 58.3864 211.871 65.8314 227.727C63.6454 231.032 61.8024 234.509 60.3104 238.143C48.0664 267.971 49.7464 302.668 65.0444 335.84C86.2694 381.863 130.566 399.137 166.822 407.356C159.717 426.458 145.453 444.326 139.066 450.999L114.294 476.637L228.243 514.001L230.272 485.434C230.987 475.363 227.857 466.039 221.219 458.47C218.473 455.338 215.29 452.753 211.92 450.615C218.802 437.577 222.781 425.553 224.919 414.947C226.985 415.002 229.031 415.028 231.057 415.028C269.24 415.028 302.471 405.707 330.202 387.264L380.906 465.409L467.074 397.154L433.929 381.971Z" fill="white"/>
<path d="M384.979 131.902C391.837 135.142 399.449 136.297 406.976 137.054C416.618 168.862 406.611 201.174 380.45 221.839C375.608 225.663 382.134 232.645 386.939 228.849C415.431 206.343 426.746 169.971 416.397 135.305C421.568 128.917 426.08 122.099 428.457 114.212C429.294 111.433 429.963 108.476 429.307 105.649C428.651 102.822 426.304 100.196 423.403 100.122C421.491 100.073 419.676 101.128 418.414 102.564C417.152 104.001 416.367 105.789 415.701 107.582C414.197 111.635 413.24 117.054 412.604 121.324C412.198 117.496 411.638 112.468 410.827 108.705C409.778 103.835 408.306 98.8728 405.074 95.0818C404.226 94.0868 403.173 93.1398 401.877 92.9718C399.888 92.7138 398.144 94.3808 397.229 96.1648C395.301 99.9258 395.642 104.424 396.386 108.584C397.459 114.584 399.299 120.439 401.799 125.998C398.796 123.514 395.563 121.309 392.126 119.471C388.719 117.649 382.072 114.653 378.393 117.536C371.526 122.918 380.648 129.856 384.979 131.902Z" fill="#572330"/>
<path d="M129.67 244.846C100.804 228.279 86.4038 197.684 91.2268 164.905C98.5698 163.062 105.939 160.813 112.259 156.609C116.247 153.956 124.264 145.766 116.689 141.441C112.63 139.123 106.489 143.053 103.383 145.35C100.25 147.667 97.3708 150.319 94.7608 153.213C96.4268 147.35 97.3968 141.29 97.5868 135.198C97.7188 130.974 97.4028 126.474 94.9488 123.033C93.7848 121.4 91.8158 120.005 89.8858 120.549C88.6278 120.904 87.7228 121.993 87.0288 123.101C84.3818 127.321 83.6468 132.444 83.3158 137.415C83.0598 141.256 83.2358 146.312 83.3908 150.158C82.1408 146.025 80.4078 140.803 78.3308 137.011C77.4118 135.334 76.3758 133.678 74.9178 132.44C73.4608 131.202 71.5118 130.422 69.6268 130.748C66.7668 131.242 64.8268 134.181 64.5878 137.074C64.3488 139.966 65.4408 142.795 66.6718 145.423C70.1718 152.888 75.6308 158.982 81.6808 164.554C76.3918 200.402 93.0508 234.835 124.533 252.903C129.87 255.965 135.014 247.913 129.67 244.846Z" fill="#572330"/>
<path d="M394.223 408.629L342.088 335.866L328.633 335.66L389.112 428.871L427.458 398.494C407.603 389.401 394.223 408.629 394.223 408.629Z" fill="#572330"/>
<path d="M180.243 459.049C218.773 409.405 205.283 373.245 205.283 373.245L194.754 369.902C204.924 414.149 157.957 462.732 157.957 462.732L210.82 480.065C212.179 460.961 180.243 459.049 180.243 459.049Z" fill="#572330"/>
<path d="M359.414 322.979C317.253 369.291 258.639 375.741 199.91 364.889C160.232 357.558 119.183 342.86 100.91 303.236C89.9184 279.401 86.2554 252.411 95.0304 227.449C90.2644 231.662 86.3234 236.695 83.8014 242.84C73.0954 268.915 76.5634 297.564 88.1544 322.7C106.427 362.324 147.476 377.022 187.154 384.353C245.884 395.204 304.498 388.755 346.659 342.443C354.859 333.435 361.682 323.812 367.165 313.734C364.727 316.878 362.157 319.966 359.414 322.979Z" fill="#3D9328"/>
<path d="M359.415 322.98C395.933 282.866 405.372 230.612 388.958 179.848C377.324 143.866 351.19 113.341 317.862 95.617C286.95 79.178 244.976 63.759 210.885 81.259C189.295 92.344 172.367 113.374 169.127 137.77C167.308 151.466 169.288 162.807 160.027 174.899C152.3 184.989 140.226 190.307 128.893 195.252C115.418 201.132 102.305 209.371 96.5549 223.377C85.8499 249.452 89.3169 278.101 100.908 303.237C119.181 342.861 160.23 357.559 199.908 364.89C258.64 375.742 317.255 369.292 359.415 322.98Z" fill="#47B62B"/>
<path d="M359.417 322.981C391.321 287.935 402.554 243.623 393.938 199.134C370.006 215.18 349.051 235.49 326.302 253.298C300.38 273.591 270.404 291.217 237.521 292.792C205.096 294.345 172.325 278.923 152.855 252.947C140.221 236.091 133.427 216.046 128.737 195.324C115.318 201.2 102.286 209.427 96.5588 223.378C85.8538 249.453 89.3208 278.102 100.912 303.238C119.185 342.862 160.234 357.56 199.912 364.891C258.643 375.743 317.257 369.293 359.417 322.981Z" fill="#3DA523"/>
<path d="M183.24 205.536C187.81 233.243 218.241 246.052 243.552 245.947C269.569 245.839 292.935 226.908 297.694 201.381C298.531 196.892 291.708 194.683 290.864 199.211C286.5 222.618 267.037 237.216 243.829 238.788C221.776 240.282 194.106 227.48 190.217 203.9C189.466 199.342 182.491 200.994 183.24 205.536Z" fill="#572330"/>
<path d="M239.23 280.717C223.303 273.313 201.387 283.515 200.247 301.874C199.998 305.885 200.569 309.966 199.742 313.899C199.315 315.93 198.519 317.892 198.361 319.961C197.294 333.95 225.507 345.689 236.721 342.942C241.885 341.677 246.804 338.933 250.002 334.686C253.201 330.439 254.466 324.604 252.612 319.621C251.134 315.648 247.818 312.305 247.5 308.078C247.121 303.034 251.171 298.495 250.99 293.44C250.772 287.352 244.754 283.285 239.23 280.717Z" fill="#F7FBFF"/>
<path d="M337.337 289.427C335.041 283.25 329.855 275.982 325.029 271.551C321.575 268.38 317.307 265.839 312.631 265.477C302.642 264.705 294.773 271.553 290.104 279.685C287.777 283.739 285.898 288.976 288.476 292.875C289.821 294.909 292.173 296.162 293.336 298.305C295.683 302.633 292.142 307.835 292.369 312.753C292.561 316.912 295.565 320.557 299.237 322.52C318.769 332.96 345.367 311.028 337.337 289.427Z" fill="#49A0DE"/>
<path d="M371.256 199.984C367.906 194.559 358.119 189.55 351.898 191.913C349.17 192.949 347.156 195.267 344.697 196.839C332.759 204.473 314.566 207.88 321.359 227.453C322.503 230.748 324.453 233.707 326.619 236.442C332.073 243.33 339.851 249.324 348.635 249.145C356.84 248.977 364.2 243.261 368.203 236.096C372.207 228.932 373.338 220.518 373.552 212.313C373.664 208.072 373.485 203.593 371.256 199.984Z" fill="#4ADFBC"/>
<path d="M250.002 334.687C253.201 330.44 254.466 324.605 252.612 319.622C251.134 315.649 247.818 312.306 247.5 308.079C247.121 303.035 251.171 298.496 250.99 293.441C250.963 292.699 250.848 291.988 250.66 291.304C246.334 292.067 241.955 292.58 237.521 292.793C226.644 293.314 215.73 291.916 205.291 288.859C202.427 292.463 200.559 296.862 200.247 301.875C199.998 305.886 200.569 309.967 199.742 313.9C199.315 315.931 198.519 317.893 198.361 319.962C197.294 333.951 225.506 345.69 236.721 342.943C241.884 341.677 246.803 338.933 250.002 334.687Z" fill="#E8D6BA"/>
<path d="M325.029 271.551C321.575 268.38 317.307 265.839 312.631 265.477C311.596 265.397 310.589 265.418 309.601 265.494C304.083 269.219 298.414 272.727 292.599 275.907C291.691 277.118 290.852 278.382 290.104 279.685C287.777 283.739 285.898 288.976 288.476 292.875C289.821 294.91 292.174 296.161 293.336 298.305C295.683 302.633 292.143 307.835 292.37 312.753C292.562 316.913 295.566 320.557 299.238 322.52C318.769 332.958 345.368 311.027 337.337 289.426C335.041 283.25 329.856 275.982 325.029 271.551Z" fill="#3E8BC2"/>
<path d="M368.202 236.095C371.895 229.487 373.142 221.816 373.482 214.227C360.842 224.279 348.689 235.033 336.199 245.325C339.97 247.729 344.171 249.236 348.634 249.144C356.839 248.976 364.199 243.259 368.202 236.095Z" fill="#41CEAD"/>
<path d="M338.679 128.007C332.949 118.757 326.612 116.551 316.881 119.315C308.668 121.648 299.091 123.86 295.869 132.966C291.415 145.554 300.04 156.301 307.974 165.073C310.085 167.407 312.31 169.82 315.25 170.939C319.087 172.399 323.457 171.364 327.125 169.521C334.343 165.894 339.89 159.103 342.043 151.318C344.196 143.533 342.933 134.874 338.679 128.007Z" fill="#FFC261"/>
<path d="M267.128 103.639C256.222 81.645 227.445 91.714 218.547 108.771C214.531 116.468 212.175 126.442 217.355 133.409C219.51 136.307 222.721 138.266 226.076 139.604C232.099 142.006 239.178 142.524 244.933 139.538C248.728 137.569 251.638 134.278 254.455 131.062C257.268 127.85 260.082 124.637 262.895 121.425C265.557 118.385 268.346 115.067 268.756 111.047C269.017 108.498 268.267 105.935 267.128 103.639Z" fill="#F7FF00"/>
<path d="M212.192 209.533C218.494 209.533 223.603 204.424 223.603 198.122C223.603 191.82 218.494 186.711 212.192 186.711C205.89 186.711 200.781 191.82 200.781 198.122C200.781 204.424 205.89 209.533 212.192 209.533Z" fill="#572330"/>
<path d="M280.444 200.747C280.687 194.45 275.779 189.147 269.482 188.904C263.185 188.661 257.883 193.569 257.64 199.867C257.396 206.164 262.304 211.467 268.601 211.71C274.898 211.953 280.2 207.045 280.444 200.747Z" fill="#572330"/>
<path d="M163.98 242.315C158.046 234.634 149.611 230.053 139.571 232.305C131.042 234.218 123.704 239.984 120.936 248.434C116.214 262.848 118.744 280.024 129.308 290.908C134.401 296.155 141.427 299.839 148.737 299.698C178.037 299.132 178.63 261.278 163.98 242.315Z" fill="#3D9328"/>
<path d="M148.736 299.698C152.826 299.619 156.337 298.792 159.345 297.412C163.659 284.678 160.301 267.419 151.834 256.46C145.9 248.78 137.465 244.198 127.425 246.45C125.103 246.971 122.884 247.801 120.807 248.87C116.275 263.194 118.848 280.132 129.307 290.908C134.4 296.155 141.425 299.84 148.736 299.698Z" fill="#FFFCF7"/>
<path d="M382.883 204.973C382.205 199.26 380.965 193.9 379.447 189.165C377.873 184.441 376.054 180.337 374.153 177.082C370.372 170.544 366.694 167.351 365.015 168.19C363.234 169.071 363.682 173.689 364.852 180.499C366.041 187.323 367.776 196.43 368.963 206.576C370.114 216.726 370.494 225.99 370.887 232.906C371.295 239.804 371.908 244.403 373.843 244.856C375.668 245.292 378.525 241.346 380.721 234.119C381.832 230.517 382.671 226.106 383.13 221.148C383.532 216.193 383.521 210.691 382.883 204.973Z" fill="#FFFCF7"/>
<path d="M363.235 142.273C360.071 137.771 354.94 135.925 351.774 138.15C348.608 140.375 348.607 145.828 351.771 150.33C354.935 154.832 360.067 156.678 363.232 154.453C366.398 152.228 366.399 146.775 363.235 142.273Z" fill="#FFFCF7"/>
</g>
<defs>
<clipPath id="clip0_701_1819">
<rect width="512" height="512" fill="white"/>
</clipPath>
</defs>
</svg>
