<svg width="512" height="512" viewBox="0 0 512 512" fill="none" xmlns="http://www.w3.org/2000/svg">
<path d="M511.999 260.465C510.456 239.641 484.599 230.276 468.943 243.166C472.928 224.029 473.696 204.576 451.356 197.726C450.341 145.789 452.845 69.3279 390.294 53.4261C369.31 48.5228 347.369 50.1066 325.984 49.4727C276.856 50.1446 227.594 50.6075 178.409 50.8545C161.946 51.3734 145.237 50.4485 128.867 53.1132C92.9148 58.6854 65.5736 88.2033 57.0168 122.762C48.185 158.462 53.3173 195.74 53.1183 232.143C35.1958 239.871 13.7128 248.946 4.1281 266.829C-7.66626 282.117 7.81959 303.852 25.3162 304.294C17.9942 320.604 -2.52097 353.905 17.2273 367.496C28.3527 382.626 46.9842 371.111 61.3102 368.956C74.7133 411.058 111.473 415.814 149.878 418.467C179.276 421.078 208.744 423.369 238.236 423.772C247.757 423.567 257.499 423.886 266.976 423.334C266.638 459.649 305.32 468.151 334.224 459.297C354.62 453.545 371.369 438.43 380.139 419.304C418.392 417.693 448.235 395.464 451.485 355.826C480.286 334.016 507.269 296.765 511.999 260.465Z" fill="white"/>
<path d="M447.592 270.042C447.229 270.072 446.869 269.922 446.635 269.635C446.368 269.309 446.308 268.861 446.479 268.478C446.921 267.484 447.342 266.472 447.736 265.442C447.958 264.865 448.607 264.582 449.178 264.8C449.752 265.02 450.04 265.665 449.82 266.24C449.675 266.615 449.529 266.989 449.379 267.359C449.748 267.27 450.118 267.181 450.489 267.09C451.072 266.935 451.69 267.305 451.839 267.904C451.986 268.502 451.622 269.107 451.022 269.254C449.93 269.525 448.834 269.781 447.733 270.02C447.688 270.03 447.639 270.038 447.592 270.042Z" fill="#FDAE54"/>
<path d="M450.734 261.088C450.615 261.098 450.495 261.089 450.373 261.058C449.774 260.911 449.41 260.306 449.558 259.708C449.983 257.993 450.291 256.287 450.471 254.638L450.565 253.795C450.631 253.182 451.197 252.746 451.796 252.807C452.408 252.874 452.849 253.425 452.783 254.038L452.689 254.88C452.497 256.629 452.173 258.434 451.725 260.244C451.606 260.722 451.198 261.049 450.734 261.088ZM452.624 248.934C452.537 248.941 452.448 248.939 452.357 248.924C451.75 248.828 451.334 248.258 451.429 247.65C451.653 246.235 451.892 244.808 452.136 243.354L452.433 241.575C452.531 240.966 453.097 240.556 453.714 240.655C454.32 240.754 454.734 241.328 454.634 241.934L454.335 243.72C454.093 245.168 453.856 246.59 453.633 247.997C453.551 248.516 453.124 248.892 452.624 248.934ZM454.604 236.791C454.521 236.798 454.433 236.795 454.346 236.782C453.736 236.691 453.316 236.123 453.407 235.513C453.707 233.522 453.977 231.504 454.201 229.458C454.267 228.844 454.833 228.406 455.432 228.469C456.042 228.536 456.486 229.087 456.42 229.698C456.195 231.776 455.918 233.824 455.616 235.844C455.537 236.367 455.109 236.749 454.604 236.791ZM455.893 224.558C455.844 224.562 455.796 224.563 455.746 224.561C455.132 224.532 454.655 224.012 454.682 223.397L454.703 222.924C454.716 222.597 454.709 222.27 454.682 221.948C454.571 220.62 454.117 219.334 453.368 218.229C453.023 217.719 453.159 217.026 453.667 216.681C454.176 216.34 454.87 216.467 455.218 216.98C456.179 218.401 456.762 220.054 456.906 221.762C456.941 222.176 456.951 222.598 456.933 223.021L456.912 223.498C456.885 224.063 456.442 224.512 455.893 224.558ZM449.517 215.156C449.383 215.167 449.246 215.155 449.11 215.115C447.375 214.605 445.495 214.715 443.843 215.425C443.272 215.665 442.62 215.403 442.379 214.837C442.137 214.271 442.401 213.615 442.967 213.373C445.091 212.466 447.511 212.32 449.739 212.975C450.331 213.149 450.668 213.769 450.494 214.359C450.359 214.813 449.963 215.118 449.517 215.156Z" fill="#FDAE54"/>
<path d="M436.061 221.417C435.871 221.433 435.678 221.401 435.497 221.317C435.105 221.134 434.853 220.741 434.853 220.308L434.848 216.962C434.846 216.345 435.366 215.846 435.961 215.844C436.577 215.843 437.077 216.341 437.077 216.958L437.079 217.897C437.313 217.695 437.546 217.492 437.78 217.29C438.243 216.888 438.948 216.932 439.353 217.398C439.758 217.863 439.708 218.568 439.244 218.972C438.403 219.705 437.55 220.436 436.686 221.16C436.506 221.311 436.285 221.398 436.061 221.417Z" fill="#FDAE54"/>
<path d="M436.046 211.369C436.015 211.372 435.983 211.373 435.951 211.372C435.335 211.373 434.835 210.875 434.835 210.258L434.826 203.56C434.826 202.944 435.324 202.449 435.937 202.441C436.553 202.439 437.053 202.938 437.055 203.553L437.065 210.255C437.067 210.841 436.617 211.321 436.046 211.369ZM71.2394 234.941C71.2174 234.943 71.1944 234.944 71.1724 234.944C70.5575 234.958 70.0456 234.471 70.0316 233.855L69.8776 227.156C69.8626 226.54 70.3595 226.039 70.9665 226.015C71.5834 226 72.0933 226.488 72.1073 227.104L72.2613 233.803C72.2753 234.396 71.8243 234.892 71.2394 234.941ZM436.018 197.971C435.987 197.974 435.957 197.975 435.928 197.975C435.312 197.978 434.81 197.481 434.808 196.865C434.797 194.639 434.781 192.406 434.758 190.17C434.754 189.553 435.315 189.038 435.862 189.044C436.48 189.037 436.984 189.531 436.991 190.148C437.014 192.387 437.026 194.624 437.037 196.855C437.041 197.44 436.591 197.922 436.018 197.971ZM70.9345 221.544C70.9125 221.546 70.8895 221.547 70.8675 221.547C70.2506 221.562 69.7406 221.074 69.7266 220.459L69.5727 213.76C69.5577 213.144 70.0296 212.645 70.6615 212.619C71.2784 212.605 71.7883 213.092 71.8023 213.708L71.9563 220.407C71.9693 221 71.5194 221.494 70.9345 221.544ZM435.881 184.57C435.856 184.572 435.832 184.573 435.807 184.574C435.192 184.584 434.683 184.094 434.672 183.478C434.634 181.251 434.587 179.022 434.526 176.791C434.508 176.176 434.933 175.676 435.61 175.646C436.225 175.63 436.739 176.114 436.755 176.73C436.817 178.968 436.865 181.206 436.903 183.439C436.912 184.029 436.462 184.521 435.881 184.57ZM70.6285 208.146C70.6065 208.148 70.5835 208.149 70.5615 208.15C69.9446 208.164 69.4347 207.677 69.4207 207.061L69.2667 200.363C69.2537 199.747 69.7616 199.246 70.3555 199.223C70.9725 199.208 71.4824 199.695 71.4964 200.311L71.6504 207.009C71.6644 207.602 71.2134 208.096 70.6285 208.146ZM435.515 171.175C435.499 171.176 435.484 171.178 435.466 171.178C434.85 171.203 434.331 170.723 434.309 170.108C434.219 167.884 434.118 165.658 434.001 163.429C433.97 162.815 434.444 162.251 435.056 162.258C435.672 162.226 436.197 162.697 436.23 163.313C436.348 165.55 436.45 167.787 436.536 170.02C436.561 170.617 436.107 171.125 435.515 171.175ZM70.3216 194.749C70.2996 194.751 70.2766 194.752 70.2546 194.752C69.6376 194.767 69.1267 194.278 69.1137 193.662L68.9617 186.963C68.9457 186.348 69.4327 185.849 70.0506 185.823C70.6675 185.808 71.1784 186.297 71.1914 186.913L71.3434 193.612C71.3564 194.205 70.9035 194.7 70.3216 194.749ZM434.8 157.795C434.795 157.795 434.789 157.796 434.784 157.796C434.169 157.837 433.636 157.374 433.593 156.76C433.471 154.979 433.335 153.198 433.183 151.414L433.071 150.102C433.017 149.488 433.471 148.947 434.082 148.893C434.084 148.893 434.086 148.893 434.089 148.892C434.701 148.841 435.24 149.292 435.293 149.904L435.406 151.226C435.559 153.02 435.696 154.815 435.819 156.607C435.862 157.216 435.408 157.744 434.8 157.795ZM70.0246 181.352C70.0026 181.354 69.9776 181.355 69.9526 181.356C69.3377 181.367 68.8268 180.878 68.8158 180.262C68.7738 178.065 68.7388 175.823 68.7198 173.549C68.7158 172.932 69.2787 172.442 69.8256 172.425C70.4415 172.42 70.9455 172.914 70.9515 173.531C70.9705 175.795 71.0045 178.031 71.0455 180.219C71.0575 180.81 70.6075 181.303 70.0246 181.352ZM433.623 144.447C433.02 144.498 432.487 144.058 432.42 143.456C432.18 141.246 431.916 139.038 431.629 136.828C431.548 136.218 431.978 135.658 432.589 135.577C433.261 135.494 433.758 135.93 433.839 136.539C434.132 138.764 434.398 140.991 434.639 143.216C434.704 143.829 434.263 144.378 433.65 144.445C433.641 144.445 433.632 144.446 433.623 144.447ZM69.9306 167.948C69.8946 167.951 69.8606 167.953 69.8246 167.952C69.2077 167.946 68.7148 167.442 68.7188 166.826C68.7408 164.585 68.7838 162.336 68.8628 160.099C68.8808 159.483 69.4087 158.992 70.0156 159.023C70.6315 159.045 71.1124 159.561 71.0894 160.176C71.0135 162.395 70.9685 164.624 70.9495 166.846C70.9455 167.427 70.4975 167.901 69.9306 167.948ZM431.872 131.163C431.296 131.211 430.771 130.805 430.679 130.224C430.337 128.03 429.965 125.838 429.563 123.647C429.453 123.04 429.854 122.459 430.461 122.348C431.028 122.243 431.644 122.636 431.758 123.243C432.162 125.454 432.535 127.664 432.884 129.878C432.978 130.486 432.563 131.057 431.953 131.152C431.925 131.158 431.899 131.161 431.872 131.163ZM70.4065 154.558C70.3506 154.563 70.2936 154.563 70.2376 154.56C69.6227 154.519 69.1587 153.987 69.1997 153.372C69.3537 151.067 69.5427 148.831 69.7706 146.655C69.8346 146.043 70.3745 145.602 70.9965 145.663C71.6084 145.727 72.0523 146.276 71.9883 146.889C71.7624 149.036 71.5754 151.244 71.4234 153.522C71.3864 154.079 70.9465 154.513 70.4065 154.558ZM429.393 117.996C428.853 118.041 428.345 117.686 428.218 117.141C427.7 114.954 427.118 112.802 426.489 110.743C426.309 110.155 426.642 109.531 427.23 109.352C427.848 109.159 428.446 109.505 428.624 110.093C429.265 112.198 429.861 114.396 430.387 116.629C430.53 117.228 430.158 117.83 429.558 117.971C429.503 117.983 429.449 117.992 429.393 117.996ZM71.8163 141.238C71.7314 141.245 71.6454 141.242 71.5564 141.229C70.9485 141.137 70.5285 140.568 70.6215 139.959C70.9635 137.694 71.3604 135.454 71.7983 133.305C71.9193 132.702 72.5113 132.315 73.1132 132.435C73.7171 132.558 74.107 133.147 73.984 133.751C73.5521 135.863 73.1632 138.064 72.8252 140.293C72.7462 140.814 72.3203 141.196 71.8163 141.238ZM425.442 105.206C424.965 105.246 424.495 104.973 424.311 104.503C423.486 102.408 422.583 100.382 421.624 98.4785C421.348 97.9286 421.569 97.2587 422.119 96.9817C422.66 96.7047 423.338 96.9257 423.616 97.4766C424.603 99.4384 425.535 101.527 426.386 103.685C426.612 104.257 426.331 104.905 425.758 105.131C425.654 105.173 425.547 105.197 425.442 105.206ZM74.519 128.118C74.393 128.129 74.264 128.118 74.137 128.084C73.5411 127.924 73.1902 127.313 73.3471 126.718C73.9351 124.533 74.597 122.352 75.3099 120.238C75.5068 119.654 76.1367 119.342 76.7247 119.539C77.3076 119.737 77.6205 120.369 77.4236 120.952C76.7237 123.023 76.0768 125.157 75.5028 127.298C75.3789 127.763 74.9739 128.08 74.519 128.118ZM419.395 93.2732C418.998 93.3062 418.595 93.1252 418.364 92.7653C417.167 90.9036 415.868 89.1178 414.498 87.456C414.106 86.9811 414.176 86.2782 414.651 85.8863C415.124 85.4963 415.831 85.5603 416.221 86.0382C417.643 87.766 418.997 89.6237 420.24 91.5575C420.572 92.0754 420.422 92.7653 419.904 93.0982C419.746 93.2022 419.572 93.2582 419.395 93.2732ZM78.8234 115.437C78.6504 115.451 78.4724 115.426 78.3024 115.356C77.7345 115.119 77.4646 114.466 77.7015 113.898C78.5684 111.81 79.5203 109.737 80.5331 107.737C80.8071 107.186 81.482 106.97 82.0309 107.245C82.5799 107.524 82.8008 108.194 82.5219 108.744C81.537 110.694 80.6081 112.718 79.7592 114.755C79.5933 115.152 79.2243 115.403 78.8234 115.437ZM410.887 82.9647C410.585 82.9896 410.272 82.8927 410.034 82.6687C408.461 81.2009 406.749 79.8211 404.949 78.5683C404.443 78.2163 404.317 77.5214 404.67 77.0155C405.025 76.5095 405.723 76.3876 406.222 76.7375C408.111 78.0523 409.906 79.4991 411.554 81.0389C412.005 81.4589 412.03 82.1648 411.61 82.6147C411.412 82.8247 411.154 82.9417 410.887 82.9647ZM84.8745 103.497C84.6456 103.516 84.4116 103.466 84.1996 103.338C83.6737 103.018 83.5077 102.331 83.8297 101.805C85.0235 99.8443 86.2943 97.9446 87.6042 96.1568C87.9711 95.6579 88.668 95.5559 89.1639 95.9179C89.6599 96.2818 89.7679 96.9807 89.4029 97.4776C88.1291 99.2124 86.8943 101.059 85.7314 102.966C85.5404 103.282 85.2155 103.468 84.8745 103.497ZM399.939 75.3227C399.737 75.3397 399.529 75.3017 399.335 75.2027C397.441 74.2299 395.421 73.34 393.328 72.5581C392.752 72.3421 392.459 71.7002 392.675 71.1223C392.889 70.5474 393.527 70.2544 394.11 70.4684C396.283 71.2813 398.385 72.2071 400.356 73.219C400.903 73.5 401.12 74.1729 400.839 74.7208C400.654 75.0757 400.308 75.2917 399.939 75.3227ZM387.422 70.6154C387.299 70.6254 387.174 70.6154 387.047 70.5824C384.98 70.0424 382.806 69.5815 380.593 69.2086C379.986 69.1056 379.577 68.5307 379.68 67.9237C379.78 67.3178 380.348 66.9069 380.963 67.0089C383.241 67.3918 385.479 67.8687 387.611 68.4257C388.205 68.5806 388.563 69.1896 388.408 69.7855C388.284 70.2554 387.878 70.5774 387.422 70.6154ZM92.7994 92.7123C92.5055 92.7373 92.2045 92.6463 91.9665 92.4363C91.5056 92.0284 91.4626 91.3235 91.8706 90.8626C92.1755 90.5186 92.4815 90.1796 92.7914 89.8437C94.0163 88.5149 95.3061 87.2181 96.6269 85.9912C97.0768 85.5713 97.7827 85.5983 98.2027 86.0492C98.6216 86.5012 98.5956 87.2061 98.1457 87.626C96.8669 88.8128 95.618 90.0677 94.4312 91.3555C94.1333 91.6794 93.8363 92.0094 93.5433 92.3403C93.3444 92.5643 93.0744 92.6893 92.7994 92.7123ZM374.23 68.3557C374.165 68.3607 374.097 68.3617 374.031 68.3547C372.519 68.2147 371.008 68.1117 369.506 68.0427L367.402 67.9497C366.788 67.9247 366.309 67.4048 366.334 66.7909C366.357 66.174 366.893 65.705 367.494 65.722L369.607 65.815C371.145 65.885 372.689 65.991 374.237 66.135C374.851 66.192 375.301 66.7349 375.244 67.3478C375.193 67.8937 374.756 68.3117 374.23 68.3557ZM360.849 67.6908C360.804 67.6948 360.762 67.6958 360.716 67.6938C358.49 67.6188 356.262 67.5558 354.027 67.4988C353.412 67.4838 352.924 66.9719 352.94 66.356C352.956 65.739 353.468 65.2501 354.083 65.2691C356.322 65.3251 358.559 65.3901 360.79 65.4641C361.406 65.4841 361.889 66 361.868 66.6159C361.85 67.1878 361.405 67.6438 360.849 67.6908ZM347.452 67.3578C347.414 67.3608 347.376 67.3618 347.337 67.3618C345.106 67.3228 342.875 67.2928 340.643 67.2678C340.026 67.2618 339.532 66.7559 339.539 66.141C339.548 65.5251 340.065 65.0371 340.668 65.0381C342.904 65.0621 345.14 65.0931 347.375 65.1311C347.99 65.1421 348.481 65.6501 348.47 66.266C348.463 66.8429 348.015 67.3108 347.452 67.3578ZM334.055 67.2148C334.021 67.2178 333.988 67.2188 333.954 67.2188C331.721 67.2088 329.49 67.2058 327.258 67.2068C326.642 67.2078 326.142 66.7099 326.142 66.093C326.142 65.4771 326.665 64.9601 327.256 64.9771C329.492 64.9751 331.728 64.9781 333.965 64.9881C334.579 64.9911 335.077 65.4931 335.075 66.108C335.072 66.6909 334.624 67.1678 334.055 67.2148ZM320.65 67.2248C320.619 67.2278 320.589 67.2288 320.56 67.2288L313.862 67.2758C313.246 67.2808 312.742 66.7859 312.736 66.171C312.732 65.5541 313.285 65.0451 313.842 65.0461C316.076 65.0261 318.311 65.0101 320.549 64.9991C321.165 64.9961 321.667 65.4931 321.669 66.109C321.673 66.6929 321.224 67.1768 320.65 67.2248ZM307.248 67.3418C307.221 67.3438 307.194 67.3448 307.165 67.3458L300.464 67.4318C299.849 67.4408 299.343 66.9479 299.334 66.333C299.325 65.718 299.76 65.2001 300.435 65.2021L307.141 65.1151C307.756 65.1071 308.261 65.6011 308.269 66.216C308.275 66.8059 307.824 67.2938 307.248 67.3418ZM102.614 83.6226C102.244 83.6536 101.868 83.4986 101.629 83.1806C101.258 82.6877 101.358 81.9898 101.85 81.6198C102.816 80.8949 103.783 80.213 104.756 79.5631C105.622 78.9692 106.552 78.3813 107.49 77.8094C108.012 77.4894 108.702 77.6554 109.024 78.1803C109.343 78.7062 109.178 79.3931 108.652 79.7131C107.748 80.264 106.852 80.8309 106.006 81.4099C105.057 82.0448 104.124 82.7027 103.192 83.4026C103.017 83.5326 102.818 83.6056 102.614 83.6226ZM293.844 67.5288C293.817 67.5308 293.792 67.5318 293.765 67.5328L287.063 67.6388C286.448 67.6488 285.942 67.1568 285.93 66.5409C285.919 65.922 286.411 65.4201 287.029 65.4071L293.731 65.3011C294.345 65.2921 294.852 65.783 294.863 66.3999C294.872 66.9899 294.421 67.4798 293.844 67.5288ZM280.447 67.7408C280.42 67.7428 280.396 67.7438 280.368 67.7448L273.67 67.8457C273.052 67.8547 272.547 67.3638 272.538 66.7469C272.529 66.133 273.042 65.6151 273.636 65.6171L280.333 65.5141C280.948 65.5051 281.455 65.996 281.466 66.6119C281.476 67.2028 281.025 67.6928 280.447 67.7408ZM267.042 67.9377C267.017 67.9397 266.99 67.9407 266.963 67.9407L260.261 68.0187C259.643 68.0257 259.139 67.5308 259.133 66.9149C259.131 66.298 259.677 65.784 260.237 65.789L266.934 65.711C267.549 65.702 268.056 66.195 268.064 66.8109C268.071 67.4008 267.62 67.8887 267.042 67.9377ZM253.646 68.0747C253.617 68.0767 253.588 68.0787 253.558 68.0787L246.848 68.1127C246.232 68.1127 245.734 67.6128 245.734 66.9969C245.734 66.3809 246.252 65.878 246.85 65.883L253.542 65.848C254.158 65.844 254.66 66.34 254.664 66.9559C254.668 67.5428 254.219 68.0267 253.646 68.0747ZM240.243 68.1317C240.212 68.1347 240.182 68.1357 240.153 68.1357L233.451 68.1647C232.835 68.1677 232.333 67.6708 232.331 67.0549C232.327 66.4369 232.872 65.942 233.44 65.934L240.142 65.905C240.76 65.903 241.26 66.4 241.262 67.0159C241.266 67.6008 240.816 68.0837 240.243 68.1317ZM226.845 68.1957C226.816 68.1977 226.784 68.1997 226.755 68.1997L220.054 68.2387C219.438 68.2417 218.936 67.7458 218.934 67.1298C218.93 66.5139 219.447 66.011 220.043 66.008L226.744 65.969C227.36 65.966 227.862 66.4619 227.864 67.0779C227.867 67.6638 227.418 68.1477 226.845 68.1957ZM114.038 76.6525C113.593 76.6895 113.149 76.4556 112.942 76.0276C112.674 75.4737 112.905 74.8068 113.46 74.5378C115.489 73.552 117.596 72.6551 119.721 71.8732C120.301 71.6562 120.938 71.9572 121.153 72.5341C121.365 73.112 121.07 73.7539 120.492 73.9659C118.434 74.7228 116.395 75.5917 114.43 76.5435C114.305 76.6055 114.17 76.6405 114.038 76.6525ZM213.442 68.2797C213.413 68.2817 213.384 68.2837 213.354 68.2837L206.654 68.3337C206.038 68.3377 205.536 67.8427 205.532 67.2268C205.525 66.6099 206.032 66.11 206.638 66.103L213.338 66.053C213.954 66.049 214.456 66.5449 214.46 67.1608C214.467 67.7468 214.015 68.2307 213.442 68.2797ZM200.045 68.3847C200.016 68.3867 199.987 68.3887 199.96 68.3887L193.259 68.4507C192.643 68.4577 192.139 67.9627 192.133 67.3468C192.128 66.7279 192.629 66.235 193.239 66.22L199.94 66.158C200.555 66.153 201.059 66.6469 201.065 67.2628C201.069 67.8507 200.62 68.3367 200.045 68.3847ZM186.64 68.5127C186.611 68.5147 186.584 68.5167 186.557 68.5167L179.855 68.5886C179.239 68.5946 178.736 68.1017 178.727 67.4858C178.72 66.8669 179.282 66.3709 179.83 66.359L186.532 66.287C187.15 66.28 187.654 66.7749 187.661 67.3898C187.665 67.9777 187.216 68.4647 186.64 68.5127ZM173.24 68.6616C173.213 68.6636 173.186 68.6646 173.157 68.6656L166.453 68.7396C165.837 68.7436 165.335 68.2477 165.331 67.6318C165.324 67.0159 165.84 66.5179 166.437 66.5089L173.132 66.4349C173.747 66.4269 174.252 66.9209 174.26 67.5358C174.267 68.1247 173.816 68.6136 173.24 68.6616ZM126.586 72.0202C126.057 72.0642 125.557 71.7252 125.417 71.1933C125.259 70.5984 125.614 69.9874 126.21 69.8305C128.327 69.2715 130.558 68.7826 132.842 68.3787C133.402 68.2757 134.025 68.6756 134.134 69.2835C134.241 69.8895 133.836 70.4684 133.229 70.5754C131.005 70.9673 128.836 71.4423 126.779 71.9862C126.715 72.0032 126.651 72.0152 126.586 72.0202ZM159.84 68.7776C159.811 68.7796 159.782 68.7816 159.753 68.7816C157.511 68.7976 155.284 68.8226 153.07 68.8746C152.455 68.8886 151.943 68.4017 151.929 67.7858C151.916 67.1708 152.375 66.6469 153.018 66.6449C155.246 66.5919 157.481 66.5679 159.737 66.5509C160.353 66.5469 160.855 67.0429 160.859 67.6588C160.865 68.2447 160.414 68.7296 159.84 68.7776ZM146.441 69.1236C146.432 69.1246 146.421 69.1256 146.41 69.1256C145.103 69.1986 143.903 69.2635 142.496 69.3985C141.593 69.4745 140.689 69.5605 139.787 69.6565C139.245 69.7095 138.625 69.2785 138.56 68.6656C138.495 68.0527 138.939 67.5048 139.551 67.4388C140.504 67.3378 141.424 67.2468 142.413 67.1678C143.701 67.0599 144.991 66.9719 146.287 66.8999C146.903 66.8649 147.427 67.3358 147.463 67.9507C147.495 68.5546 147.041 69.0736 146.441 69.1236Z" fill="#FDAE54"/>
<path d="M68.2753 246.068C67.7663 246.111 67.2803 245.801 67.1203 245.295C66.9313 244.708 67.2553 244.081 67.8423 243.894C68.6463 243.638 69.4453 243.388 70.2413 243.144L70.1853 240.644C70.1723 240.029 70.6863 239.538 71.2743 239.504C71.8913 239.491 72.4023 239.978 72.4153 240.594L72.4903 243.939C72.5013 244.439 72.1773 244.886 71.6973 245.031C70.6453 245.349 69.5853 245.679 68.5213 246.019C68.4373 246.045 68.3553 246.061 68.2753 246.068Z" fill="#FDAE54"/>
<path d="M45.9662 290.007C45.9052 290.012 45.8472 290.012 45.7862 290.007L39.0092 289.485C38.3933 289.438 37.9353 288.901 37.9813 288.288C38.0293 287.672 38.5752 287.214 39.1791 287.262L45.9562 287.784C46.5711 287.831 47.0291 288.368 46.9841 288.981C46.9401 289.535 46.5021 289.962 45.9662 290.007ZM32.4121 288.964C32.3511 288.969 32.2931 288.97 32.2311 288.965L26.2919 288.509C25.976 288.485 25.662 288.446 25.3521 288.391C24.7451 288.285 24.3402 287.708 24.4452 287.101C24.5522 286.496 25.1291 286.082 25.737 286.195C25.977 286.237 26.2189 286.266 26.4639 286.285L32.4011 286.742C33.017 286.789 33.4749 287.326 33.4289 287.94C33.3859 288.492 32.948 288.919 32.4121 288.964ZM19.9888 284.92C19.6189 284.951 19.2379 284.794 18.9989 284.474C18.444 283.726 17.9991 282.909 17.6711 282.045C17.3422 281.169 17.1382 280.261 17.0602 279.342C17.0002 278.654 17.0132 277.95 17.1022 277.256C17.1792 276.644 17.7431 276.214 18.348 276.289C18.9589 276.366 19.3919 276.924 19.3149 277.535C19.2469 278.073 19.2369 278.617 19.2839 279.151C19.3439 279.87 19.5029 280.578 19.7588 281.261C20.0108 281.927 20.3598 282.562 20.7927 283.143C21.1596 283.638 21.0557 284.336 20.5607 284.704C20.3878 284.832 20.1908 284.903 19.9888 284.92ZM21.4766 272.663C21.1626 272.689 20.8377 272.582 20.5967 272.341C20.1608 271.906 20.1578 271.2 20.5927 270.764C22.1995 269.155 23.8953 267.58 25.636 266.084C26.101 265.685 26.8069 265.736 27.2098 266.204C27.6097 266.671 27.5588 267.374 27.0908 267.776C25.3921 269.236 23.7363 270.772 22.1735 272.34C21.9775 272.534 21.7316 272.642 21.4766 272.663ZM31.7722 263.81C31.4002 263.841 31.0193 263.684 30.7823 263.361C30.4154 262.866 30.5213 262.168 31.0173 261.802C32.823 260.468 34.7308 259.163 36.6865 257.92C37.1984 257.593 37.8943 257.742 38.2253 258.264C38.5552 258.785 38.4033 259.473 37.8833 259.804C35.9706 261.018 34.1048 262.294 32.3421 263.596C32.1681 263.722 31.9711 263.793 31.7722 263.81ZM43.2326 256.522C42.8066 256.558 42.3807 256.345 42.1617 255.946C41.8658 255.406 42.0617 254.729 42.6037 254.432C44.5494 253.366 46.6051 252.319 48.7148 251.319C49.2657 251.057 49.9377 251.293 50.1996 251.85C50.4656 252.407 50.2276 253.07 49.6697 253.334C47.599 254.315 45.5823 255.342 43.6755 256.389C43.5345 256.466 43.3826 256.509 43.2326 256.522ZM55.5009 250.691C55.0279 250.731 54.566 250.465 54.376 250.005C54.1431 249.435 54.413 248.783 54.983 248.548C57.1117 247.672 59.2434 246.854 61.3671 246.088C61.952 245.882 62.5889 246.182 62.7959 246.759C63.0048 247.338 62.7039 247.977 62.126 248.186C60.0323 248.94 57.9315 249.747 55.8328 250.611C55.7239 250.656 55.6109 250.682 55.5009 250.691Z" fill="#FDAE54"/>
<path d="M54.1031 293.453C53.8411 293.475 53.5711 293.405 53.3451 293.237C52.8511 292.869 52.7481 292.171 53.1151 291.677C53.3791 291.323 53.6391 290.976 53.8991 290.633L52.6131 290.533C51.9981 290.486 51.5401 289.949 51.5851 289.335C51.6321 288.719 52.1691 288.252 52.7831 288.309L56.1201 288.566C56.5291 288.597 56.8891 288.851 57.0561 289.226C57.2211 289.602 57.1671 290.038 56.9171 290.362C56.2531 291.216 55.5841 292.094 54.9071 293.006C54.7061 293.273 54.4101 293.427 54.1031 293.453Z" fill="#FDAE54"/>
<path d="M36.3991 359.595C34.8553 359.725 33.2786 359.489 31.8378 358.915C31.2638 358.688 30.9859 358.04 31.2129 357.468C31.4428 356.894 32.0937 356.618 32.6617 356.845C34.3934 357.534 36.3651 357.578 38.1259 356.966L38.5008 356.836C39.0728 356.63 39.7167 356.939 39.9206 357.52C40.1256 358.1 39.8177 358.736 39.2367 358.939L38.8558 359.072C38.0669 359.349 37.237 359.524 36.3991 359.595ZM45.4169 356.941C44.899 356.984 44.405 356.659 44.255 356.14C44.0841 355.548 44.424 354.93 45.0149 354.758L45.4909 354.62C47.4956 354.039 49.5373 353.493 51.604 352.985C52.2079 352.837 52.8049 353.204 52.9538 353.803C53.1008 354.401 52.7349 355.005 52.138 355.152C50.0972 355.652 48.0865 356.19 46.1128 356.761L45.6369 356.899C45.5639 356.922 45.4909 356.935 45.4169 356.941ZM58.5811 353.712C58.0251 353.759 57.5082 353.38 57.3962 352.819C57.2762 352.215 57.6682 351.627 58.2721 351.507C59.02 351.358 59.7679 351.214 60.5198 351.075C61.9906 350.803 63.4834 350.549 64.9912 350.314C65.5951 350.225 66.169 350.635 66.265 351.242C66.359 351.851 65.944 352.421 65.3341 352.516C63.8483 352.749 62.3785 353 60.9247 353.269C60.1868 353.405 59.4479 353.549 58.709 353.696C58.666 353.703 58.6231 353.709 58.5811 353.712ZM27.5474 354.435C27.0924 354.473 26.6435 354.228 26.4415 353.79C25.9506 352.725 25.6526 351.595 25.5546 350.432C25.4547 349.236 25.5686 348.044 25.8916 346.887L26.0276 346.405C26.1985 345.813 26.8175 345.471 27.4074 345.64C27.9993 345.809 28.3422 346.427 28.1733 347.019L28.0433 347.48C27.7903 348.388 27.7013 349.317 27.7783 350.245C27.8543 351.15 28.0863 352.029 28.4672 352.857C28.7262 353.416 28.4822 354.079 27.9213 354.336C27.7983 354.392 27.6733 354.425 27.5474 354.435ZM29.1931 341.348C29.0382 341.361 28.8812 341.343 28.7282 341.288C28.1463 341.082 27.8423 340.445 28.0493 339.865L28.6112 338.175C29.1481 336.592 29.7131 335.009 30.297 333.45C30.5099 332.872 31.1489 332.578 31.7318 332.795C32.3067 333.011 32.6007 333.653 32.3847 334.23C31.8118 335.77 31.2548 337.33 30.7269 338.886L30.231 340.372C30.227 340.379 30.153 340.604 30.152 340.61C29.999 341.036 29.6161 341.313 29.1931 341.348ZM33.9445 328.655C33.7695 328.67 33.5915 328.644 33.4205 328.573C32.8526 328.334 32.5857 327.681 32.8216 327.113C33.3026 325.963 33.7985 324.823 34.3074 323.688L34.6444 322.921C34.9593 322.234 35.2723 321.558 35.5942 320.875C35.8592 320.317 36.5251 320.081 37.077 320.343C37.634 320.605 37.8719 321.27 37.61 321.827C37.292 322.499 36.9821 323.167 36.6791 323.833L36.3461 324.593C35.8402 325.719 35.3523 326.843 34.8783 327.974C34.7124 328.372 34.3454 328.622 33.9445 328.655ZM39.7117 316.392C39.5077 316.409 39.2967 316.37 39.1038 316.27C38.5588 315.985 38.3439 315.313 38.6298 314.767C39.7617 312.584 40.8335 310.618 41.8864 308.773C42.1933 308.236 42.8732 308.055 43.4082 308.358C43.9441 308.663 44.1291 309.345 43.8251 309.879C42.7842 311.701 41.7284 313.641 40.6075 315.795C40.4246 316.147 40.0796 316.361 39.7117 316.392ZM46.4437 304.631C46.2108 304.651 45.9718 304.597 45.7598 304.465C45.2389 304.139 45.0789 303.45 45.4059 302.928L46.8377 300.68C47.6056 299.503 48.3725 298.351 49.1464 297.222C49.4963 296.716 50.1872 296.586 50.6942 296.932C51.2041 297.28 51.3321 297.974 50.9851 298.483C50.2232 299.598 49.4633 300.734 48.7104 301.89L47.2956 304.11C47.1036 304.421 46.7817 304.602 46.4437 304.631Z" fill="#FDAE54"/>
<path d="M75.9188 354.54C75.3608 354.587 74.8438 354.207 74.7338 353.644C74.5848 352.891 74.4438 352.126 74.3088 351.348C73.5458 351.427 72.7898 351.51 72.0348 351.599C71.4058 351.74 70.8688 351.232 70.7968 350.621C70.7248 350.01 71.1638 349.455 71.7768 349.384C72.8858 349.254 74.0008 349.133 75.1248 349.023C75.7388 349.053 76.2398 349.374 76.3338 349.953C76.5178 351.066 76.7118 352.151 76.9228 353.212C77.0408 353.816 76.6478 354.403 76.0438 354.522C76.0018 354.531 75.9618 354.537 75.9188 354.54Z" fill="#FDAE54"/>
<path d="M279.992 407.033C279.985 407.034 279.979 407.034 279.972 407.035C277.752 407.179 275.515 407.307 273.258 407.423C272.642 407.454 272.117 406.982 272.086 406.366C272.057 405.753 272.546 405.201 273.143 405.197C275.393 405.083 277.619 404.953 279.826 404.81C280.441 404.771 280.972 405.236 281.012 405.85C281.052 406.457 280.597 406.982 279.992 407.033ZM266.592 407.714C266.576 407.715 266.558 407.717 266.54 407.717C264.324 407.799 262.084 407.866 259.822 407.921C259.207 407.935 258.697 407.449 258.681 406.833C258.665 406.217 259.165 405.718 259.77 405.691C262.019 405.638 264.25 405.569 266.457 405.487C267.073 405.465 267.59 405.945 267.612 406.56C267.635 407.159 267.184 407.665 266.592 407.714ZM253.184 408.039C253.157 408.041 253.13 408.042 253.103 408.043C250.882 408.07 248.642 408.084 246.382 408.085C245.766 408.086 245.266 407.586 245.266 406.97C245.264 406.354 245.779 405.854 246.38 405.855C248.631 405.853 250.862 405.84 253.074 405.813C253.692 405.805 254.195 406.299 254.204 406.914C254.21 407.502 253.759 407.99 253.184 408.039ZM239.767 408.048C239.731 408.051 239.695 408.052 239.659 408.052C237.444 408.029 235.205 407.995 232.942 407.948C232.327 407.935 231.839 407.427 231.852 406.811C231.863 406.193 232.391 405.708 232.989 405.719C235.243 405.765 237.473 405.8 239.683 405.823C240.297 405.829 240.791 406.334 240.786 406.949C240.78 407.528 240.332 408 239.767 408.048ZM226.355 407.774C226.312 407.778 226.27 407.779 226.227 407.778C224.013 407.712 221.773 407.636 219.513 407.549C218.899 407.526 218.418 407.008 218.443 406.392C218.468 405.773 218.998 405.29 219.601 405.322C221.852 405.409 224.083 405.484 226.292 405.548C226.907 405.566 227.393 406.081 227.374 406.696C227.357 407.268 226.91 407.728 226.355 407.774ZM212.951 407.261C212.902 407.265 212.852 407.266 212.802 407.263C211.327 407.194 209.848 407.12 208.363 407.043L206.096 406.921C205.482 406.888 205.009 406.362 205.043 405.748C205.075 405.132 205.617 404.664 206.216 404.696L208.48 404.816C209.958 404.894 211.437 404.967 212.907 405.037C213.521 405.066 213.996 405.587 213.969 406.202C213.943 406.768 213.5 407.215 212.951 407.261ZM199.557 406.533C199.503 406.538 199.449 406.539 199.393 406.534C197.197 406.4 194.965 406.256 192.691 406.1C192.076 406.059 191.612 405.527 191.655 404.913C191.696 404.298 192.241 403.83 192.843 403.877C195.113 404.031 197.34 404.175 199.531 404.309C200.146 404.347 200.612 404.875 200.576 405.49C200.541 406.05 200.099 406.487 199.557 406.533ZM186.17 405.628C186.112 405.633 186.053 405.633 185.992 405.629C183.803 405.466 181.575 405.298 179.299 405.119C178.685 405.07 178.225 404.533 178.275 403.92C178.32 403.305 178.875 402.842 179.473 402.895C181.744 403.075 183.972 403.244 186.156 403.405C186.769 403.451 187.232 403.986 187.186 404.6C187.146 405.154 186.705 405.583 186.17 405.628ZM172.798 404.577C172.735 404.582 172.674 404.583 172.611 404.577C170.377 404.393 168.15 404.205 165.923 404.012C165.309 403.959 164.855 403.418 164.908 402.804C164.963 402.19 165.492 401.751 166.116 401.789C168.338 401.982 170.566 402.17 172.795 402.354C173.408 402.404 173.865 402.944 173.814 403.557C173.77 404.109 173.329 404.533 172.798 404.577ZM159.436 403.423C159.371 403.428 159.308 403.428 159.242 403.422L152.557 402.814C151.945 402.757 151.493 402.214 151.55 401.6C151.605 400.987 152.147 400.543 152.763 400.592L159.439 401.201C160.053 401.256 160.506 401.797 160.451 402.41C160.4 402.958 159.964 403.378 159.436 403.423ZM146.075 402.192C146.008 402.198 145.942 402.198 145.874 402.191L139.198 401.558C138.584 401.5 138.135 400.956 138.194 400.342C138.251 399.727 138.796 399.27 139.409 399.337L146.085 399.97C146.697 400.028 147.149 400.571 147.09 401.184C147.038 401.731 146.601 402.147 146.075 402.192ZM132.722 400.914C132.653 400.92 132.585 400.919 132.514 400.912C130.314 400.688 128.075 400.438 125.815 400.133C125.203 400.051 124.777 399.49 124.859 398.879C124.941 398.27 125.494 397.838 126.113 397.924C128.35 398.224 130.566 398.471 132.739 398.693C133.354 398.755 133.799 399.302 133.735 399.916C133.681 400.457 133.246 400.87 132.722 400.914ZM119.437 399.07C119.339 399.078 119.236 399.073 119.133 399.054C116.777 398.601 114.612 398.1 112.515 397.521C111.921 397.356 111.572 396.743 111.736 396.149C111.898 395.554 112.517 395.208 113.106 395.371C115.148 395.934 117.255 396.423 119.554 396.865C120.16 396.981 120.556 397.566 120.438 398.171C120.342 398.672 119.923 399.03 119.437 399.07ZM106.536 395.46C106.37 395.474 106.201 395.452 106.038 395.388C104.143 394.65 102.318 393.825 100.615 392.933L99.8228 392.511C99.2839 392.215 99.0839 391.537 99.3799 390.997C99.6799 390.456 100.358 390.259 100.896 390.556L101.647 390.957C103.279 391.811 105.029 392.601 106.847 393.31C107.421 393.534 107.705 394.18 107.48 394.754C107.322 395.164 106.946 395.426 106.536 395.46ZM94.8145 389.021C94.5506 389.043 94.2756 388.972 94.0466 388.798C92.5769 387.684 91.18 386.482 89.8972 385.226C89.5633 384.9 89.2303 384.566 88.9064 384.225C88.4834 383.78 88.5004 383.074 88.9454 382.65C89.3923 382.225 90.1002 382.239 90.5241 382.689C90.8281 383.009 91.1371 383.323 91.454 383.63C92.6738 384.822 93.9987 385.962 95.3965 387.022C95.8854 387.394 95.9824 388.093 95.6114 388.584C95.4115 388.846 95.1195 388.996 94.8145 389.021ZM85.5818 379.372C85.1989 379.404 84.8079 379.236 84.572 378.896C83.3141 377.08 82.1363 375.098 81.0734 373.003C80.7975 372.453 81.0165 371.782 81.5654 371.504C82.1153 371.225 82.7832 371.446 83.0642 371.994C84.079 374 85.2039 375.895 86.4047 377.625C86.7537 378.131 86.6297 378.826 86.1247 379.176C85.9588 379.292 85.7698 379.357 85.5818 379.372ZM79.4867 367.465C79.0007 367.506 78.5278 367.223 78.3498 366.744C77.5909 364.714 76.893 362.533 76.2731 360.262C76.1131 359.667 76.4631 359.055 77.056 358.893C77.6579 358.726 78.2658 359.08 78.4258 359.675C79.0267 361.883 79.7026 363.998 80.4365 365.964C80.6515 366.541 80.3605 367.183 79.7826 367.399C79.6856 367.434 79.5857 367.456 79.4867 367.465Z" fill="#FDAE54"/>
<path d="M288.671 409.334C288.494 409.349 288.311 409.321 288.138 409.247C287.571 409.005 287.311 408.348 287.552 407.782C287.747 407.332 287.944 406.883 288.143 406.432C287.661 406.472 287.177 406.512 286.695 406.551C286.081 406.6 285.541 406.143 285.492 405.529C285.443 404.916 285.899 404.379 286.511 404.327C286.513 404.327 286.513 404.327 286.513 404.327C287.627 404.238 288.734 404.144 289.839 404.047C289.841 404.047 289.841 404.047 289.843 404.047C290.235 404.014 290.618 404.191 290.846 404.513C291.076 404.836 291.116 405.257 290.952 405.618C290.495 406.63 290.039 407.646 289.603 408.663C289.433 409.054 289.068 409.301 288.671 409.334Z" fill="#FDAE54"/>
<path d="M317.818 446.631L317.586 445.532L317.596 444.411C319.74 444.217 321.93 443.915 324.127 443.512C324.694 443.41 325.311 443.801 325.425 444.407C325.535 445.013 325.134 445.595 324.528 445.706C322.267 446.121 320.009 446.432 317.818 446.631ZM310.882 446.872C310.84 446.876 310.799 446.877 310.756 446.876L310.036 446.851C309.078 446.814 308.121 446.748 307.179 446.653C306.803 446.615 306.434 446.573 306.069 446.526C305.398 446.442 304.729 446.341 304.073 446.223L303.812 446.175C303.207 446.06 302.81 445.476 302.924 444.872C303.038 444.267 303.619 443.872 304.228 443.983L304.469 444.029C305.085 444.14 305.718 444.233 306.353 444.314C306.7 444.359 307.051 444.398 307.399 444.433C308.299 444.523 309.212 444.587 310.127 444.623L310.817 444.646C311.432 444.662 311.918 445.175 311.902 445.79C311.886 446.364 311.44 446.826 310.882 446.872ZM331.053 444.193C330.531 444.237 330.034 443.905 329.888 443.381C329.722 442.788 330.069 442.173 330.662 442.007C332.98 441.359 335.098 440.631 336.964 439.847C337.53 439.612 338.186 439.875 338.426 440.441C338.663 441.009 338.398 441.663 337.831 441.902C335.879 442.724 333.67 443.482 331.262 444.155C331.194 444.174 331.122 444.187 331.053 444.193ZM297.603 444.271C297.426 444.286 297.245 444.259 297.072 444.185C294.788 443.21 292.747 441.961 291.005 440.474C290.536 440.075 290.479 439.372 290.88 438.903C291.283 438.435 291.985 438.378 292.452 438.779C294.024 440.119 295.872 441.248 297.948 442.135C298.515 442.376 298.777 443.032 298.536 443.599C298.367 443.99 298 444.238 297.603 444.271ZM343.555 438.899C343.143 438.934 342.727 438.736 342.503 438.357C342.188 437.827 342.363 437.142 342.894 436.828C343.375 436.543 343.852 436.249 344.322 435.948C345.708 435.065 347.08 434.099 348.403 433.077C348.886 432.707 349.589 432.791 349.966 433.278C350.343 433.765 350.253 434.466 349.766 434.843C348.391 435.906 346.963 436.911 345.523 437.829C345.03 438.143 344.532 438.45 344.03 438.749C343.881 438.836 343.719 438.886 343.555 438.899ZM354.292 430.588C353.974 430.615 353.646 430.506 353.405 430.261C352.973 429.822 352.977 429.117 353.415 428.684C354.99 427.128 356.491 425.458 357.878 423.723C358.26 423.241 358.963 423.164 359.444 423.548C359.925 423.933 360.002 424.635 359.618 425.117C358.179 426.919 356.619 428.654 354.983 430.27C354.79 430.46 354.544 430.567 354.292 430.588ZM287.509 435.519C287.09 435.554 286.666 435.348 286.445 434.957C285.427 433.159 284.679 431.213 284.219 429.174C284.148 428.864 284.083 428.547 284.025 428.229C283.915 427.622 284.318 427.042 284.925 426.933C285.523 426.821 286.112 427.224 286.221 427.831C286.272 428.116 286.329 428.4 286.394 428.681C286.806 430.51 287.476 432.252 288.387 433.858C288.689 434.394 288.5 435.075 287.964 435.378C287.82 435.461 287.665 435.506 287.509 435.519ZM362.768 419.973C362.537 419.992 362.298 419.94 362.086 419.808C361.562 419.483 361.403 418.796 361.727 418.273C362.9 416.389 363.971 414.416 364.913 412.411C365.175 411.852 365.838 411.613 366.397 411.876C366.954 412.137 367.192 412.802 366.932 413.359C365.952 415.444 364.838 417.494 363.621 419.451C363.428 419.762 363.107 419.945 362.768 419.973ZM284.934 422.362C284.869 422.367 284.806 422.367 284.74 422.361C284.126 422.306 283.674 421.766 283.727 421.152C283.777 420.594 283.845 420.032 283.929 419.466C284.177 417.792 284.566 416.092 285.12 414.267C285.296 413.676 285.923 413.348 286.51 413.523C287.1 413.702 287.433 414.325 287.254 414.914C286.732 416.632 286.369 418.229 286.137 419.794C286.059 420.316 285.997 420.835 285.952 421.35C285.901 421.897 285.462 422.317 284.934 422.362Z" fill="#FDAE54"/>
<path d="M368.554 407.622C368.408 407.634 368.258 407.619 368.112 407.57C367.527 407.378 367.208 406.748 367.4 406.162C367.744 405.123 368.051 404.074 368.33 403.018C368.45 402.561 368.846 402.23 369.314 402.191C369.321 402.19 369.33 402.19 369.339 402.189L372.672 401.971C373.287 401.931 373.818 402.396 373.858 403.01C373.898 403.625 373.528 404.129 372.818 404.198L370.275 404.364C370.043 405.201 369.792 406.033 369.519 406.86C369.375 407.297 368.986 407.586 368.554 407.622Z" fill="#FDAE54"/>
<path d="M379.288 403.719L379.053 403.739C378.439 403.791 377.9 403.335 377.848 402.721C377.796 402.108 378.252 401.569 378.866 401.517L379.101 401.497C381.077 401.331 383.056 401.14 385.031 400.911C385.716 400.789 386.197 401.279 386.269 401.889C386.338 402.501 385.902 403.054 385.289 403.125C383.292 403.358 381.286 403.551 379.288 403.719ZM391.42 402.266C390.849 402.314 390.325 401.916 390.229 401.339C390.126 400.732 390.536 400.157 391.144 400.055L391.929 399.918C393.75 399.598 395.515 399.234 397.177 398.835C397.763 398.685 398.378 399.058 398.521 399.659C398.666 400.257 398.297 400.859 397.697 401.003C395.992 401.414 394.182 401.787 392.319 402.115L391.514 402.254C391.483 402.259 391.452 402.263 391.42 402.266ZM403.515 399.312C403.015 399.354 402.532 399.054 402.366 398.558C402.168 397.974 402.48 397.342 403.064 397.144C403.463 397.009 403.86 396.871 404.255 396.728C405.801 396.17 407.306 395.548 408.731 394.882C409.292 394.617 409.951 394.861 410.212 395.418C410.473 395.975 410.233 396.639 409.675 396.901C408.191 397.597 406.623 398.245 405.013 398.826C404.606 398.973 404.196 399.117 403.779 399.258C403.691 399.287 403.602 399.304 403.515 399.312ZM414.757 394.009C414.358 394.042 413.954 393.859 413.723 393.498C413.393 392.978 413.545 392.289 414.063 391.957C414.672 391.57 415.265 391.169 415.845 390.759C416.911 390.001 417.951 389.186 418.931 388.339C419.401 387.938 420.102 387.988 420.505 388.454C420.907 388.92 420.856 389.624 420.391 390.026C419.356 390.92 418.259 391.778 417.134 392.578C416.525 393.01 415.902 393.43 415.264 393.837C415.105 393.938 414.932 393.994 414.757 394.009ZM424.152 385.889C423.865 385.913 423.569 385.826 423.333 385.624C422.867 385.223 422.813 384.519 423.213 384.052C423.428 383.798 423.641 383.543 423.85 383.286C424.9 382.003 425.899 380.621 426.82 379.173C427.151 378.65 427.844 378.498 428.36 378.83C428.88 379.16 429.035 379.85 428.704 380.368C427.735 381.892 426.684 383.346 425.58 384.694C425.363 384.962 425.138 385.233 424.905 385.502C424.708 385.735 424.434 385.865 424.152 385.889ZM430.82 375.41C430.634 375.426 430.443 375.394 430.26 375.311C429.701 375.053 429.458 374.39 429.716 373.831L430.015 373.176C430.726 371.574 431.374 369.882 431.937 368.154C432.127 367.568 432.759 367.249 433.344 367.439C433.929 367.63 434.248 368.26 434.058 368.845C433.471 370.647 432.796 372.411 432.05 374.088L431.739 374.765C431.565 375.144 431.206 375.378 430.82 375.41ZM434.83 363.628C434.711 363.638 434.589 363.629 434.467 363.599C433.868 363.448 433.505 362.842 433.656 362.245C434.141 360.309 434.572 358.285 434.932 356.231C435.039 355.623 435.608 355.218 436.226 355.326C436.831 355.433 437.236 356.011 437.131 356.618C436.759 358.725 436.318 360.8 435.819 362.789C435.7 363.263 435.291 363.59 434.83 363.628Z" fill="#FDAE54"/>
<path d="M437.016 351.331C436.944 351.337 436.872 351.336 436.797 351.328C436.186 351.261 435.745 350.709 435.811 350.097L435.975 348.534C436.032 347.971 436.083 347.396 436.13 346.804C436.154 346.474 436.325 346.173 436.596 345.981C437.503 345.336 438.401 344.687 439.289 344.031C439.78 343.666 440.481 343.767 440.848 344.265C441.214 344.761 441.108 345.46 440.613 345.825C439.854 346.386 439.087 346.945 438.309 347.499C438.275 347.924 438.235 348.341 438.195 348.753L438.028 350.343C437.969 350.881 437.536 351.287 437.016 351.331Z" fill="#FDAE54"/>
<path d="M445.404 341.892C445.05 341.922 444.686 341.781 444.444 341.482C444.056 341.003 444.131 340.301 444.608 339.913C445.288 339.364 445.958 338.812 446.615 338.259C447.67 337.371 448.711 336.469 449.73 335.561C450.188 335.153 450.895 335.192 451.304 335.651C451.715 336.111 451.675 336.816 451.215 337.226C450.18 338.149 449.121 339.064 448.051 339.967C447.378 340.529 446.702 341.088 446.013 341.647C445.831 341.793 445.619 341.874 445.404 341.892ZM455.509 332.874C455.191 332.901 454.863 332.79 454.622 332.546C454.19 332.108 454.194 331.401 454.632 330.969C456.241 329.382 457.803 327.753 459.28 326.125C459.693 325.666 460.396 325.635 460.855 326.047C461.309 326.461 461.345 327.166 460.931 327.623C459.43 329.28 457.836 330.941 456.2 332.558C456.006 332.746 455.76 332.853 455.509 332.874ZM464.607 322.839C464.327 322.863 464.035 322.78 463.803 322.586C463.328 322.193 463.262 321.49 463.655 321.015L464.608 319.867C465.719 318.528 466.844 317.172 467.968 315.799C468.357 315.321 469.061 315.252 469.536 315.642C470.013 316.032 470.084 316.735 469.692 317.211C468.564 318.589 467.44 319.947 466.325 321.29L465.372 322.439C465.173 322.68 464.894 322.815 464.607 322.839ZM473.152 312.325C472.883 312.348 472.606 312.274 472.377 312.096C471.889 311.719 471.799 311.02 472.176 310.532C472.992 309.475 473.801 308.406 474.594 307.323C475.139 306.578 475.663 305.846 476.164 305.125C476.523 304.62 477.215 304.499 477.718 304.849C478.224 305.202 478.348 305.896 477.995 306.402C477.481 307.135 476.948 307.879 476.393 308.64C475.59 309.739 474.769 310.824 473.941 311.896C473.743 312.153 473.452 312.3 473.152 312.325ZM480.881 301.203C480.652 301.222 480.418 301.172 480.209 301.045C479.684 300.726 479.515 300.04 479.835 299.514C480.307 298.737 480.767 297.952 481.212 297.155C481.862 296.003 482.494 294.839 483.107 293.665C483.393 293.121 484.066 292.91 484.613 293.194C485.158 293.48 485.368 294.154 485.085 294.699C484.459 295.895 483.816 297.077 483.156 298.247C482.7 299.064 482.226 299.87 481.742 300.669C481.549 300.987 481.224 301.175 480.881 301.203ZM487.195 289.222C487.007 289.238 486.812 289.206 486.629 289.12C486.072 288.859 485.831 288.195 486.092 287.637C487.011 285.674 487.918 283.631 488.823 281.485C489.059 280.916 489.721 280.651 490.282 280.892C490.85 281.131 491.115 281.785 490.876 282.353C489.96 284.525 489.042 286.594 488.112 288.583C487.936 288.958 487.579 289.19 487.195 289.222ZM492.478 276.75C492.314 276.764 492.145 276.742 491.982 276.679C491.408 276.456 491.122 275.811 491.344 275.236C492.105 273.273 492.867 271.226 493.642 269.082C493.853 268.504 494.516 268.116 495.1 268.328C495.68 268.537 496.01 269.09 495.802 269.67C494.96 272.002 494.19 274.065 493.426 276.042C493.265 276.452 492.888 276.715 492.478 276.75ZM457.421 267.448C456.91 267.491 456.421 267.176 456.263 266.667C456.08 266.079 456.407 265.454 456.997 265.272C459.126 264.609 461.262 263.878 463.347 263.098C463.918 262.885 464.568 263.177 464.781 263.751C464.999 264.327 464.705 264.97 464.128 265.187C462.006 265.982 459.828 266.727 457.66 267.401C457.58 267.426 457.5 267.442 457.421 267.448ZM496.706 263.917C496.663 263.921 496.618 263.922 496.575 263.92C495.959 263.9 495.476 263.386 495.495 262.772C495.505 262.464 495.497 262.157 495.472 261.853C495.332 260.181 494.644 258.572 493.537 257.323C493.128 256.862 493.17 256.156 493.63 255.749C494.09 255.344 494.795 255.384 495.204 255.844C496.63 257.451 497.514 259.519 497.694 261.667C497.727 262.056 497.737 262.449 497.725 262.843C497.706 263.413 497.261 263.87 496.706 263.917ZM470.106 262.703C469.644 262.742 469.19 262.489 468.992 262.041C468.744 261.477 469 260.819 469.564 260.571C471.592 259.677 473.633 258.712 475.632 257.699C476.182 257.418 476.85 257.641 477.131 258.189C477.41 258.739 477.188 259.409 476.638 259.688C474.606 260.719 472.527 261.703 470.462 262.612C470.346 262.663 470.225 262.693 470.106 262.703ZM482.178 256.565C481.766 256.6 481.347 256.401 481.123 256.02C480.81 255.489 480.987 254.805 481.518 254.493L482.509 253.906C482.767 253.751 483.036 253.604 483.298 253.477C484.415 252.934 485.61 252.605 486.85 252.501C486.857 252.5 486.864 252.5 486.872 252.499C487.432 252.452 487.997 252.454 488.558 252.502C489.172 252.555 489.626 253.095 489.573 253.709C489.519 254.324 488.987 254.773 488.365 254.726C487.922 254.688 487.385 254.644 487.038 254.725C486.072 254.806 485.141 255.061 484.272 255.485C484.064 255.586 483.854 255.7 483.652 255.82L482.649 256.416C482.502 256.503 482.339 256.552 482.178 256.565Z" fill="#FDAE54"/>
<path d="M406.121 89.7723C396.772 80.0337 382.629 76.4592 369.144 75.8413C328.839 73.9915 287.748 75.7953 247.352 75.9172C221.368 75.9962 195.384 76.1962 169.403 76.5182C146.518 76.8021 126.38 75.3353 107.312 90.0733C93.5725 100.692 85.4806 117.306 81.8421 134.284C78.2036 151.263 78.5826 168.811 78.9785 186.171C79.9034 226.75 80.8283 267.329 81.7541 307.908C82.2301 328.796 80.7913 362.283 96.918 378.056C106.909 387.829 121.939 389.825 135.851 391.157C190.986 396.438 247.815 401.575 302.699 394.847C301.975 405.223 291.603 416.314 294.008 426.964C297.359 441.805 325.122 436.745 334.847 432.252C349.444 425.509 360.075 410.843 361.942 394.872C387.246 392.918 415.797 394.101 424.78 364.89C431.967 342.666 427.305 317.671 427.243 294.802C427.174 268.959 427.104 243.118 427.035 217.277C426.951 185.931 427.505 154.716 421.638 123.754C419.295 111.392 414.995 99.017 406.121 89.7723Z" fill="#24D0A5"/>
<path d="M331.922 285.833C308.219 293.2 285.29 303.235 261.023 308.454C236.757 313.673 210.207 313.64 188.478 301.641C157.302 284.423 143.195 247.044 138.084 211.796C132.974 176.549 134.241 139.992 122.607 106.33C120.209 99.39 117.024 92.5559 113.184 86.0898C111.215 87.2747 109.256 88.5695 107.312 90.0733C93.5725 100.692 85.4816 117.306 81.8421 134.284C78.2036 151.263 78.5826 168.811 78.9785 186.171C79.9034 226.75 80.8293 267.33 81.7541 307.909C82.2301 328.797 80.7913 362.284 96.918 378.057C106.909 387.83 121.939 389.826 135.851 391.158C190.987 396.439 247.815 401.577 302.699 394.849C301.975 405.225 291.603 416.316 294.008 426.966C297.359 441.807 325.122 436.747 334.847 432.254C349.444 425.51 360.075 410.844 361.942 394.874C387.246 392.92 415.798 394.103 424.78 364.892C431.967 342.668 427.305 317.673 427.243 294.804C427.223 287.521 427.204 280.239 427.184 272.956C395.031 271.862 362.42 276.354 331.922 285.833Z" fill="#04B287"/>
<path d="M401.569 356.908C367.735 372.12 329.738 376.725 292.754 373.86C249.307 370.492 207.332 357.211 164.662 348.363C121.993 339.515 76.7076 335.26 35.5553 349.596C42.6243 324.351 56.1075 300.931 74.3899 282.142C58.6141 280.928 42.8383 279.716 27.0625 278.502C45.7659 259.303 71.4193 252.607 96.6588 246.494C124.795 239.68 154.137 238.807 182.908 240.915C229.767 244.348 275.827 255.2 322.654 259.06C345.861 260.974 370.838 261.791 393.463 255.28C412.057 249.929 432.622 235.543 446.906 222.602C446.464 233.221 443.864 243.312 442.712 253.786C441.67 263.263 435.937 271.694 431.681 280.194C451.393 278.789 470.752 272.674 487.694 262.499C484.048 272.962 479.871 283.645 474.416 293.316C469.479 302.071 462.987 309.566 456.596 317.3C442.383 334.499 421.725 347.845 401.569 356.908Z" fill="#7920BB"/>
<path d="M172.41 196.065C172.53 196.797 172.563 196.646 172.503 195.608C172.441 194.573 172.38 193.228 172.318 191.58C172.254 189.933 172.164 188.318 172.044 186.731C171.922 185.146 171.979 184.108 172.227 183.62C172.591 182.154 172.773 180.232 172.772 177.853C172.773 175.473 172.59 172.026 172.222 167.513C171.857 162.999 171.121 156.957 170.025 149.39C170.026 148.783 170.054 148.202 170.116 147.652C170.174 147.103 170.172 146.036 170.116 144.447C170.053 142.864 169.961 140.453 169.839 137.218C169.717 133.988 169.474 129.319 169.104 123.217C169.106 121.998 168.92 120.653 168.556 119.19C168.189 117.725 168.005 116.688 168.004 116.077C169.104 114.371 170.049 112.965 170.842 111.868C171.631 110.77 172.427 109.733 173.22 108.755C174.011 107.779 174.594 107.107 174.96 106.74C176.177 106.988 177.306 107.046 178.346 106.925C179.379 106.804 180.204 106.74 180.815 106.74C182.645 106.74 183.864 106.739 184.475 106.74C185.084 106.739 185.512 106.739 185.756 106.738H186.857C195.153 107.714 201.468 108.382 205.8 108.75C210.129 109.113 213.304 109.359 215.315 109.479C217.329 109.601 218.548 109.661 218.977 109.661C219.404 109.661 219.921 109.724 220.532 109.846C221.508 110.089 222.242 110.332 222.729 110.575C223.215 110.823 223.887 111.004 224.745 111.123C228.281 112.71 231.758 114.724 235.179 117.163C238.592 119.603 241.614 122.347 244.239 125.397C246.863 128.448 248.937 131.711 250.463 135.186C251.987 138.664 252.753 142.113 252.755 145.53C252.753 148.092 252.022 150.533 250.56 152.851C249.097 155.17 247.54 157.245 245.893 159.073C244.246 160.904 242.719 162.492 241.318 163.834C239.914 165.177 239.213 166.155 239.212 166.764C243.117 169.936 246.354 172.71 248.914 175.089C251.478 177.468 254.043 180.094 256.603 182.957C259.167 185.826 261.117 188.539 262.463 191.101L263.015 205.013C262.893 208.43 261.308 211.939 258.259 215.539C255.206 219.14 251.698 222.374 247.735 225.239C243.767 228.11 239.834 230.367 235.931 232.015C232.024 233.663 229.282 234.304 227.695 233.939C224.768 233.939 222.966 234.031 222.297 234.216C221.624 234.397 221.046 234.49 220.556 234.491L215.979 234.492C215.735 234.492 215.186 234.428 214.334 234.307C213.476 234.187 212.563 234.065 211.587 233.942C210.611 233.823 209.726 233.791 208.932 233.851C208.138 233.915 207.802 234.126 207.927 234.493C206.338 234.613 205.15 234.677 204.355 234.676C203.563 234.677 202.985 234.676 202.617 234.677H201.703C201.335 234.676 200.755 234.646 199.962 234.584C199.168 234.522 197.949 234.496 196.304 234.494C194.654 234.495 192.369 234.495 189.44 234.497C188.46 234.496 187.427 234.524 186.324 234.587C185.229 234.647 183.459 234.618 181.021 234.497C179.8 234.498 178.577 233.829 177.36 232.484C176.137 231.142 175.038 229.984 174.064 229.008L172.41 196.065ZM199.318 204.663C198.953 206.25 199.255 207.409 200.234 208.142C201.209 208.873 202.489 209.363 204.078 209.604C205.663 209.85 207.31 209.942 209.02 209.877C210.728 209.817 212.192 209.726 213.414 209.603C216.218 209.359 218.201 209.327 219.361 209.51C220.518 209.693 221.768 209.54 223.113 209.053C223.722 209.052 224.423 209.115 225.218 209.233C226.012 209.358 226.713 209.297 227.324 209.052L225.856 184.708C225.244 184.707 224.635 184.738 224.024 184.799C223.413 184.862 222.497 184.891 221.28 184.892C220.059 184.893 218.472 184.864 216.522 184.802C214.569 184.742 211.884 184.711 208.468 184.711C207.612 185.078 206.911 185.352 206.363 185.538C205.814 185.719 205.05 185.811 204.075 185.811C203.463 185.81 202.762 185.874 201.969 185.995C201.176 186.118 200.655 186.423 200.414 186.911C200.293 187.643 200.139 188.315 199.958 188.924C199.776 189.535 199.561 189.964 199.317 190.206L199.318 204.663ZM209.192 153.228C210.047 153.228 210.809 153.291 211.482 153.41C212.151 153.534 212.609 153.473 212.852 153.227C213.586 152.861 214.254 152.71 214.866 152.769C215.476 152.833 216.024 152.769 216.516 152.585C217.002 152.404 217.367 151.916 217.612 151.121C217.855 150.329 218.097 148.833 218.346 146.637C218.465 146.151 218.495 145.753 218.436 145.447C218.372 145.145 218.283 144.564 218.159 143.71C218.035 142.856 218.004 141.543 218.068 139.774C218.127 138.006 218.281 135.353 218.524 131.813C218.28 131.813 217.822 131.813 217.152 131.813C216.482 131.813 215.717 131.843 214.864 131.903C214.008 131.966 213.216 131.994 212.485 131.994C211.752 131.995 211.264 131.995 211.018 131.995C210.772 131.995 210.074 131.903 208.912 131.72C207.752 131.537 206.87 131.447 206.261 131.446C205.649 131.445 204.826 131.508 203.789 131.629C202.75 131.752 201.744 131.814 200.769 131.815C200.769 132.059 200.707 132.396 200.587 132.821C200.463 133.249 200.34 134.497 200.22 136.572C201.073 139.748 201.472 142.401 201.412 144.534C201.35 146.67 201.412 148.377 201.596 149.658C201.778 150.938 202.358 151.853 203.336 152.403C204.309 152.956 206.263 153.23 209.192 153.228Z" fill="white"/>
<path d="M266.132 220.393C266.132 220.149 266.161 219.693 266.222 219.02C266.281 218.352 266.373 217.646 266.497 216.914C266.616 216.184 266.679 215.513 266.679 214.901C266.678 214.292 266.555 213.984 266.312 213.984C266.068 211.913 266.099 209.352 266.402 206.298C266.706 203.252 266.612 200.689 266.127 198.612C266.129 197.881 266.128 195.531 266.127 191.565C266.126 187.6 266.154 182.963 266.214 177.655C266.272 172.348 266.333 166.704 266.395 160.724C266.455 154.748 266.453 149.285 266.392 144.342C266.327 139.402 266.235 135.406 266.117 132.354C265.992 129.304 265.808 128.024 265.564 128.51C265.442 128.267 265.381 126.712 265.382 123.843C265.381 120.977 265.257 117.894 265.012 114.6C265.011 114.235 265.225 113.776 265.653 113.226C266.081 112.678 266.628 112.13 267.301 111.579C267.97 111.031 268.641 110.573 269.314 110.207C269.983 109.842 270.502 109.658 270.868 109.657C271.112 109.657 273.341 109.567 277.549 109.383C281.759 109.199 286.854 109.078 292.833 109.014C298.81 108.952 305.032 108.92 311.501 108.918C317.968 108.919 323.584 109.039 328.342 109.28C329.806 109.403 331.149 110.137 332.369 111.479C333.587 112.82 334.868 114.04 336.212 115.136L336.765 128.68C336.641 129.413 336.277 130.177 335.668 130.968C335.056 131.764 333.656 132.159 331.458 132.159C330.48 132.771 329.563 133.106 328.71 133.168C327.855 133.231 326.757 133.26 325.418 133.259L293.019 133.812L289.358 134.364V135.461C289.479 136.315 289.51 137.382 289.449 138.665C289.387 139.945 289.33 141.226 289.271 142.506C289.207 143.789 289.178 144.92 289.179 145.894C289.18 146.871 289.179 147.481 289.179 147.724C289.18 148.7 289.18 150.074 289.179 151.842C289.181 153.613 289.607 154.679 290.461 155.045C290.581 155.044 290.797 155.2 291.102 155.503C291.405 155.806 291.681 156.081 291.925 156.324C291.924 156.448 292.261 156.54 292.934 156.598C293.603 156.661 294.334 156.661 295.132 156.599C295.92 156.54 296.653 156.478 297.325 156.415C297.995 156.354 298.452 156.323 298.698 156.322L302.542 156.139C302.664 156.14 303.852 156.11 306.11 156.047C308.366 155.986 311.021 155.926 314.074 155.864C317.121 155.802 320.323 155.741 323.683 155.678C327.037 155.618 329.997 155.526 332.559 155.403C333.411 156.38 334.36 157.478 335.397 158.696C336.432 159.918 337.015 160.711 337.136 161.078C337.137 160.956 337.104 161.534 337.045 162.813C336.983 164.096 336.894 165.532 336.772 167.117C336.65 168.702 336.527 170.165 336.407 171.507C336.285 172.853 336.161 173.523 336.041 173.521C335.43 174.01 334.515 174.775 333.295 175.81C332.076 176.851 331.283 177.366 330.917 177.367C330.551 177.366 330.215 177.338 329.912 177.275C329.605 177.216 329.087 177.184 328.354 177.185L320.853 177.368L290.284 176.825C289.919 177.07 289.762 177.466 289.826 178.013C289.886 178.563 290.036 178.961 290.285 179.202C290.528 179.57 290.769 180.394 291.016 181.675C291.259 182.957 291.26 183.719 291.016 183.963L291.381 185.06C291.381 185.55 291.381 186.434 291.383 187.714C291.382 188.996 291.444 190.433 291.566 192.015C291.688 193.603 291.812 195.192 291.932 196.775C292.054 198.363 292.177 199.583 292.3 200.435C292.301 200.8 292.33 201.838 292.394 203.546C292.452 205.256 292.485 207.268 292.486 209.585C294.069 209.709 296.174 209.767 298.801 209.768C301.423 209.767 304.259 209.768 307.312 209.767C310.36 209.766 313.472 209.764 316.645 209.764C319.817 209.764 322.689 209.855 325.249 210.039C327.812 210.221 329.918 210.493 331.562 210.861C333.211 211.226 334.094 211.775 334.219 212.507C334.22 212.631 334.705 213.087 335.684 213.879C336.66 214.673 337.209 215.374 337.332 215.984C337.332 216.23 337.358 216.808 337.424 217.723C337.483 218.639 337.515 219.645 337.515 220.743C337.517 221.842 337.545 222.848 337.608 223.764C337.667 224.678 337.697 225.257 337.698 225.503C337.697 225.866 337.394 226.449 336.783 227.241C336.173 228.036 335.472 228.828 334.679 229.622C333.883 230.415 333.092 231.116 332.301 231.726C331.505 232.339 330.989 232.642 330.745 232.642C330.621 232.641 329.31 232.614 326.808 232.55C324.305 232.492 321.196 232.459 317.476 232.46C313.753 232.461 309.697 232.434 305.302 232.372C300.911 232.312 296.758 232.254 292.856 232.191C288.949 232.131 285.594 232.133 282.79 232.192C279.98 232.256 278.335 232.286 277.845 232.284L273.638 232.836C272.907 232.836 272.142 232.591 271.349 232.103C270.554 231.617 269.794 231.006 269.06 230.273C268.328 229.54 267.687 228.779 267.139 227.986C266.587 227.194 266.25 226.554 266.132 226.065V220.393Z" fill="white"/>
<path d="M257.081 301.489C211.476 294.095 165.79 284.584 119.606 285.803C101.084 286.292 82.3192 288.755 64.3297 293.556C51.1325 310.068 41.2549 329.237 35.5547 349.595C76.707 335.259 121.992 339.514 164.662 348.362C207.332 357.21 249.306 370.491 292.753 373.859C329.738 376.725 367.736 372.12 401.568 356.908C421.724 347.845 442.382 334.499 456.594 317.301C462.985 309.566 469.478 302.071 474.415 293.317C479.869 283.646 484.047 272.963 487.692 262.5C483.116 265.249 478.351 267.673 473.463 269.817C449.898 286.5 423.082 298.568 394.827 304.564C349.634 314.155 302.686 308.883 257.081 301.489Z" fill="#5A22B2"/>
<path d="M409.344 227.305C411.874 227.444 414.977 208.085 414.83 184.048C414.718 160.01 411.407 140.687 408.878 140.853C406.292 141.016 405.439 160.362 405.548 184.098C405.695 207.833 406.756 227.17 409.344 227.305Z" fill="white"/>
<path d="M407.696 132.925C410.214 132.568 411.361 126.04 409.23 118.591C407.117 111.137 402.704 106.193 400.376 107.216C398.008 108.245 398.386 114.338 400.304 121.134C402.252 127.92 405.142 133.298 407.696 132.925Z" fill="white"/>
<path d="M88.2732 284.254C89.4524 283.623 90.6623 283.161 91.9028 282.867C93.1692 282.573 94.7251 282.4 96.5704 282.35C98.4417 282.299 100.228 282.485 101.931 282.906C103.632 283.302 104.909 283.879 105.762 284.636C107.256 286.026 108.03 287.682 108.082 289.606C108.164 292.62 105.658 294.197 100.564 294.336C98.7707 294.385 96.9078 294.266 94.9753 293.981C95.1 295.694 95.4448 296.894 96.0097 297.581C96.6006 298.267 97.6108 298.591 99.0402 298.552C100.47 298.513 101.648 298.325 102.575 297.987C103.502 297.65 104.248 297.318 104.811 296.99C105.373 296.637 105.85 296.455 106.24 296.444C106.655 296.433 107.011 296.605 107.307 296.961C107.762 297.417 108 298.061 108.023 298.893C108.045 299.698 107.891 300.262 107.562 300.583C107.258 300.877 106.759 301.177 106.065 301.482C103.624 302.589 100.129 303.204 95.5809 303.328C91.8123 303.43 88.6821 302.618 86.1902 300.891C83.7235 299.138 82.4485 296.728 82.365 293.661C82.3246 292.179 82.5607 290.82 83.0733 289.584C83.5851 288.322 84.2849 287.275 85.1726 286.445C86.0597 285.588 87.0932 284.858 88.2732 284.254ZM97.3932 286.775C95.8077 286.819 94.9851 288.128 94.9252 290.705C96.1755 290.775 96.8267 290.809 96.8787 290.808C98.5941 290.761 99.4362 290.166 99.4051 289.022C99.3633 287.489 98.6927 286.74 97.3932 286.775Z" fill="#FDAE54"/>
<path d="M146.302 301.124L146.557 291.611C146.574 290.831 146.393 290.242 146.012 289.843C145.631 289.444 145.141 289.238 144.543 289.225C143.971 289.212 143.434 289.408 142.931 289.812C142.454 290.192 142.207 290.745 142.191 291.473L142.101 297.127C142.061 298.921 142.02 300.155 141.978 300.83C141.937 301.506 141.744 301.995 141.399 302.3C141.081 302.579 140.454 302.707 139.518 302.686L132.03 302.594C131.198 302.575 130.617 302.419 130.285 302.126C129.98 301.807 129.835 301.348 129.848 300.75L130.103 291.238C130.121 290.458 129.939 289.869 129.558 289.47C129.177 289.071 128.687 288.865 128.09 288.851C127.518 288.838 126.98 289.034 126.477 289.439C126 289.818 125.753 290.372 125.737 291.1L125.683 293.478C125.605 296.909 125.474 299.247 125.29 300.491C125.202 300.931 124.972 301.316 124.601 301.646C124.229 301.975 123.574 302.168 122.637 302.225C121.726 302.257 120.816 302.262 119.906 302.241C118.996 302.221 117.451 302.134 115.27 301.98C114.646 301.94 114.157 301.747 113.8 301.401C113.444 301.054 113.245 300.66 113.203 300.217C113.059 298.523 113.027 295.935 113.106 292.452C113.185 288.968 113.291 286.591 113.424 285.32C113.557 284.023 113.771 283.182 114.066 282.799C114.361 282.415 114.95 282.234 115.834 282.254L123.437 282.426C124.321 282.446 124.901 282.654 125.178 283.051C125.481 283.448 125.661 284.115 125.718 285.053L125.717 285.092C127.766 283.058 130.337 282.076 133.43 282.146C135.328 282.189 136.97 282.59 138.357 283.35C139.744 284.109 140.76 285.199 141.404 286.618C142.293 285.234 143.487 284.194 144.985 283.5C146.509 282.807 148.142 282.48 149.884 282.519C152.535 282.579 154.664 283.33 156.269 284.77C157.875 286.211 158.663 288.167 158.633 290.637C158.629 293.107 158.605 295.317 158.561 297.267C158.516 299.216 158.474 300.528 158.432 301.204C158.391 301.879 158.198 302.369 157.853 302.673C157.534 302.952 156.907 303.081 155.972 303.059L148.484 302.968C147.652 302.949 147.07 302.792 146.739 302.499C146.434 302.18 146.288 301.721 146.302 301.124Z" fill="#FDAE54"/>
<path d="M179.686 298.8C181.216 298.921 182.08 297.724 182.278 295.21C182.479 292.67 181.815 291.339 180.286 291.218C179.69 291.171 179.129 291.335 178.604 291.711C178.107 292.063 177.829 292.602 177.772 293.328L177.535 296.321C177.478 297.047 177.666 297.636 178.1 298.087C178.561 298.515 179.09 298.752 179.686 298.8ZM168.343 283.936L175.494 284.541C176.116 284.59 176.645 284.827 177.08 285.253C177.518 285.653 177.722 286.204 177.693 286.905C178.776 286.078 180.048 285.488 181.511 285.134C182.999 284.782 184.443 284.662 185.843 284.772C188.279 284.965 190.206 285.991 191.624 287.851C193.044 289.685 193.615 292.351 193.338 295.85C193.181 297.846 192.773 299.535 192.116 300.917C191.461 302.274 190.637 303.291 189.645 303.969C187.748 305.201 185.555 305.719 183.067 305.522C180.604 305.327 178.737 304.371 177.464 302.653C177.297 302.458 177.159 302.394 177.049 302.464C176.965 302.536 176.917 302.649 176.905 302.805C176.759 304.645 176.523 306.648 176.195 308.812C176.075 309.664 175.859 310.259 175.545 310.6C175.229 310.966 174.63 311.114 173.749 311.045L166.285 310.454C165.429 310.386 164.862 310.133 164.584 309.694C164.332 309.256 164.227 308.609 164.268 307.752C164.411 305.285 164.634 302.134 164.938 298.298L166.021 285.591C166.062 285.073 166.329 284.663 166.823 284.363C167.344 284.039 167.851 283.897 168.343 283.936Z" fill="#FDAE54"/>
<path d="M209.893 298.021C209.512 300.908 210.083 302.452 211.604 302.652C213.124 302.852 214.075 301.509 214.455 298.622C214.628 297.307 214.606 296.281 214.388 295.545C214.174 294.782 213.616 294.341 212.714 294.223C211.811 294.104 211.158 294.385 210.754 295.066C210.353 295.721 210.066 296.706 209.893 298.021ZM226.596 300.22C225.673 307.232 220.404 310.105 210.789 308.838C201.174 307.572 196.828 303.434 197.751 296.422C198.189 293.097 199.753 290.68 202.443 289.173C205.133 287.665 208.836 287.222 213.554 287.843C218.271 288.464 221.734 289.851 223.941 292.003C226.149 294.156 227.034 296.895 226.596 300.22Z" fill="#FDAE54"/>
<path d="M273.24 299.209C273.749 299.317 273.936 299.689 273.802 300.325C273.758 300.528 273.558 300.911 273.2 301.473C272.867 302.041 272.108 303.302 270.924 305.257C269.77 307.192 268.913 308.605 268.352 309.496C266.79 311.983 265.217 314.201 263.635 316.152C263.139 316.738 262.383 317.109 261.366 317.266C260.35 317.423 259.218 317.37 257.972 317.106C256.725 316.842 255.532 316.39 254.392 315.75C253.272 315.141 252.589 314.412 252.343 313.563C252.103 312.688 251.832 311.395 251.53 309.683C251.228 307.971 251.04 306.975 250.967 306.694C248.927 309.929 247.625 311.873 247.062 312.525C246.524 313.181 245.747 313.588 244.731 313.745C243.714 313.902 242.583 313.849 241.336 313.585C240.09 313.321 238.897 312.869 237.756 312.229C236.636 311.62 235.971 310.935 235.76 310.172C234.481 305.543 233.365 300.018 232.411 293.598C232.317 292.913 232.316 292.355 232.407 291.923C232.596 291.032 233.186 290.692 234.178 290.902L242.19 292.598C243.106 292.792 243.779 293.067 244.208 293.424C244.643 293.755 244.859 294.305 244.855 295.075L245.167 302.078C245.179 302.399 245.35 302.595 245.681 302.665C246.037 302.74 246.298 302.636 246.464 302.352L251.099 296.277C251.804 295.204 252.704 294.783 253.798 295.015L257.918 295.887C258.783 296.07 259.405 296.334 259.783 296.68C260.193 297.006 260.459 297.567 260.583 298.364L261.802 305.599C261.84 305.925 262.024 306.124 262.354 306.194C262.685 306.264 262.933 306.157 263.1 305.873L267.675 298.948C267.908 298.599 268.125 298.392 268.324 298.328C268.555 298.244 268.832 298.25 269.158 298.345L273.24 299.209Z" fill="#FDAE54"/>
<path d="M285.549 302.195C286.784 301.681 288.033 301.338 289.296 301.165C290.585 300.993 292.15 300.971 293.991 301.099C295.859 301.229 297.619 301.585 299.273 302.169C300.928 302.727 302.144 303.424 302.92 304.259C304.274 305.787 304.884 307.51 304.751 309.429C304.542 312.438 301.896 313.766 296.812 313.414C295.023 313.29 293.18 312.992 291.284 312.522C291.243 314.24 291.471 315.467 291.967 316.205C292.489 316.945 293.463 317.365 294.89 317.463C296.316 317.562 297.507 317.489 298.463 317.242C299.418 316.996 300.192 316.736 300.784 316.465C301.378 316.167 301.87 316.032 302.259 316.059C302.674 316.087 303.011 316.293 303.271 316.676C303.68 317.174 303.855 317.837 303.798 318.667C303.742 319.471 303.535 320.017 303.176 320.305C302.845 320.569 302.319 320.819 301.599 321.056C299.063 321.923 295.526 322.199 290.987 321.884C287.226 321.623 284.188 320.514 281.874 318.555C279.588 316.572 278.551 314.05 278.763 310.99C278.865 309.511 279.231 308.181 279.86 307C280.491 305.793 281.289 304.818 282.252 304.077C283.218 303.31 284.317 302.683 285.549 302.195ZM294.384 305.583C292.802 305.473 291.857 306.698 291.549 309.257C292.787 309.447 293.432 309.544 293.484 309.547C295.196 309.666 296.091 309.155 296.17 308.013C296.277 306.483 295.681 305.673 294.384 305.583Z" fill="#FDAE54"/>
<path d="M313.051 302.216L320.646 301.837C321.529 301.793 322.149 301.957 322.506 302.33C322.862 302.676 323.058 303.226 323.096 303.979L323.166 305.381C324.483 302.556 326.777 301.062 330.049 300.899C331.14 300.844 332.053 301.15 332.789 301.816C333.525 302.482 333.923 303.399 333.981 304.568C334.039 305.737 333.786 306.921 333.221 308.12C332.655 309.294 331.814 309.909 330.697 309.965C330.178 309.99 329.438 309.767 328.477 309.294C327.515 308.796 326.748 308.561 326.177 308.589C325.606 308.618 325.019 308.855 324.416 309.302C323.84 309.747 323.575 310.45 323.623 311.411C323.832 315.592 323.892 318.361 323.804 319.719C323.748 320.165 323.547 320.565 323.2 320.921C322.854 321.277 322.215 321.517 321.284 321.642C320.377 321.739 319.47 321.81 318.561 321.856C317.652 321.901 316.104 321.926 313.918 321.931C313.294 321.936 312.791 321.779 312.411 321.46C312.03 321.14 311.803 320.761 311.729 320.322C311.463 318.644 311.243 316.064 311.069 312.585C310.896 309.105 310.829 306.726 310.869 305.449C310.908 304.145 311.061 303.292 311.327 302.888C311.593 302.484 312.168 302.26 313.051 302.216Z" fill="#FDAE54"/>
<path d="M340.465 300.437L348.01 299.488C348.887 299.378 349.492 299.498 349.825 299.85C350.183 300.198 350.485 301.037 350.731 302.369C351 303.672 351.356 306.09 351.801 309.624C352.242 313.133 352.477 315.619 352.504 317.083C352.481 317.531 352.311 317.946 351.992 318.327C351.673 318.707 351.052 318.982 350.13 319.15C349.237 319.341 348.158 319.516 346.894 319.675C345.63 319.834 344.477 319.94 343.436 319.993C342.397 320.071 341.677 319.965 341.273 319.675C340.87 319.385 340.615 319.024 340.508 318.592C340.117 316.938 339.703 314.383 339.268 310.926C338.83 307.443 338.583 305.063 338.528 303.786C338.472 302.509 338.561 301.66 338.796 301.237C339.032 300.814 339.588 300.548 340.465 300.437ZM343.495 290.78C345.197 290.566 346.518 290.753 347.457 291.343C348.419 291.903 348.974 292.776 349.123 293.963C349.474 296.749 347.792 298.376 344.077 298.843C342.581 299.031 341.263 298.87 340.124 298.358C338.986 297.846 338.335 296.945 338.173 295.655C337.826 292.895 339.6 291.27 343.495 290.78Z" fill="#FDAE54"/>
<path d="M376.62 313.023L374.859 303.671C374.711 302.905 374.409 302.367 373.953 302.058C373.496 301.749 372.974 301.651 372.387 301.764C371.825 301.872 371.341 302.177 370.935 302.679C370.549 303.15 370.425 303.744 370.562 304.459L371.012 306.795C371.661 310.165 372.027 312.477 372.11 313.732C372.117 314.181 371.973 314.606 371.68 315.006C371.386 315.407 370.787 315.734 369.883 315.988C368.999 316.211 368.111 316.409 367.217 316.581C366.323 316.753 364.795 316.994 362.63 317.305C362.013 317.397 361.493 317.312 361.072 317.049C360.65 316.786 360.372 316.442 360.238 316.018C359.74 314.393 359.161 311.87 358.502 308.449C357.844 305.028 357.445 302.682 357.306 301.411C357.162 300.115 357.194 299.248 357.401 298.811C357.608 298.374 358.146 298.072 359.014 297.905L366.482 296.467C367.35 296.3 367.961 296.381 368.316 296.71C368.696 297.034 369.013 297.648 369.266 298.552L369.274 298.59C370.846 296.169 373.037 294.688 375.845 294.148C378.679 293.602 381.033 293.864 382.907 294.933C384.781 296.002 385.964 297.746 386.457 300.167C386.975 302.582 387.418 304.748 387.787 306.663C388.155 308.577 388.391 309.869 388.493 310.538C388.596 311.207 388.51 311.726 388.237 312.096C387.985 312.436 387.399 312.695 386.48 312.872L379.142 314.364C378.325 314.521 377.724 314.491 377.338 314.275C376.972 314.027 376.733 313.61 376.62 313.023Z" fill="#FDAE54"/>
<path d="M404.496 294.393C403.004 294.75 402.521 296.029 403.048 298.228C403.569 300.403 404.55 301.317 405.991 300.972C406.623 300.821 407.128 300.526 407.504 300.089C407.9 299.62 408.022 299.069 407.87 298.437L407.244 295.82C407.098 295.213 406.743 294.79 406.178 294.551C405.638 294.306 405.077 294.253 404.496 294.393ZM417.802 286.995L420.667 298.62C421.273 301.149 421.72 303.073 422.01 304.394C422.3 305.715 422.205 306.994 421.726 308.232C421.247 309.47 420.448 310.543 419.329 311.453C417.124 313.184 413.961 314.543 409.839 315.53C405.718 316.518 402.209 316.77 399.313 316.287C398.614 316.16 398.074 315.969 397.692 315.713C397.341 315.476 397.068 314.953 396.875 314.144C396.687 313.36 396.699 312.742 396.912 312.29C397.15 311.832 397.484 311.552 397.913 311.449C398.343 311.346 398.911 311.371 399.615 311.523C401.793 312.017 403.855 312.031 405.801 311.565C406.686 311.353 407.459 311.061 408.118 310.689C408.784 310.343 409.312 309.815 409.704 309.106C410.121 308.391 410.221 307.579 410.003 306.669L409.483 304.668C409.423 304.415 409.316 304.306 409.165 304.343C409.089 304.361 409.022 304.417 408.964 304.511C407.408 306.943 405.416 308.449 402.989 309.03C400.561 309.612 398.341 309.328 396.328 308.179C394.341 307.025 392.947 304.778 392.148 301.441C391.348 298.103 391.707 295.357 393.222 293.203C394.732 291.023 396.878 289.6 399.659 288.934C402.441 288.268 404.71 288.647 406.468 290.07C406.336 289.407 406.455 288.844 406.825 288.381C407.196 287.918 407.653 287.594 408.197 287.41C408.741 287.227 409.747 286.959 411.213 286.608L415.252 285.721C415.732 285.606 416.242 285.671 416.782 285.916C417.341 286.129 417.681 286.489 417.802 286.995Z" fill="#FDAE54"/>
</svg>
