<svg width="512" height="512" viewBox="0 0 512 512" fill="none" xmlns="http://www.w3.org/2000/svg">
<path d="M54.0024 368.924C52.8174 366.491 52.2314 363.812 52.2904 361.107L54.5044 259.853C52.0524 260.283 49.5074 260.371 46.9294 260.059H46.9274C46.2804 259.981 45.6264 259.878 44.9754 259.748C30.8234 256.945 21.5864 243.149 24.3874 228.996C26.4424 218.608 34.5554 210.747 44.4174 208.537C43.7354 192.791 47.2004 176.12 54.5564 160.657C51.8334 161.277 48.9774 161.472 46.0724 161.121H46.0704C45.4484 161.046 44.8224 160.947 44.1974 160.822C37.6194 159.521 31.9394 155.733 28.2054 150.156C24.4734 144.581 23.1374 137.886 24.4394 131.306C27.1004 117.875 40.3344 108.821 53.9574 111.548C55.2654 111.807 56.5144 112.192 57.7284 112.637L57.9214 103.778C51.0594 97.9926 46.8914 89.2876 47.0974 79.7346L47.4214 65.0346C47.5984 56.8686 50.9484 49.2576 56.8514 43.6076C59.9454 40.6456 63.5494 38.4076 67.4564 36.9756C73.9644 15.1896 94.4144 -0.508406 118.208 0.0125943L171.94 1.18959C173.648 1.22759 175.37 1.34959 177.061 1.55359C198.89 4.19259 216.001 19.9466 221.053 40.3386C232.426 45.0626 240.096 56.3356 239.809 69.2476L239.591 79.2526C241.83 78.4986 244.186 78.0566 246.605 77.9396C243.879 72.2486 243.028 65.8706 244.276 59.5686C247.389 43.8356 262.837 33.2326 278.868 36.4176C294.582 39.5286 304.882 54.6906 302.114 70.3936C306.555 69.0186 311.387 68.6786 316.272 69.6376C323.902 71.1506 330.484 75.5396 334.809 82.0006C338.507 87.5256 340.157 94.0006 339.619 100.53C343.006 98.4646 346.217 96.2326 349.203 93.7916C354.532 89.4346 361.968 88.7226 368.022 91.9836C374.084 95.2456 377.58 101.84 376.879 108.687C375.563 121.531 372.635 134.191 368.217 146.308C373.819 144.559 379.337 142.494 384.751 140.118C386.631 139.294 388.498 138.453 390.341 137.559C395.96 134.831 402.619 135.403 407.688 139.045C412.704 142.649 415.355 148.69 414.643 154.817C419.027 152.19 423.685 149.879 428.674 148.065C433.995 146.131 439.929 146.969 444.504 150.308C449.078 153.644 451.692 159.038 451.474 164.696C451.294 169.371 450.732 174.028 449.849 178.627C454.74 175.94 460.116 173.679 466.01 172.283C474.432 170.292 483 174.934 485.927 183.071C490.445 195.624 487.859 210.527 479.183 221.962C475.385 226.968 470.458 231.291 464.667 234.832C471.265 237.815 479.154 243.09 480.655 253.306C482.991 269.2 467.89 281.864 456.949 284.065C452.916 284.875 448.694 284.994 444.034 284.431C440.622 284.019 437.494 283.308 434.981 282.735C433.258 282.343 431.544 281.939 429.837 281.534C428.279 281.165 407.011 278.345 405.5 278C397.232 277 394.409 277.201 386 276C375.5 274.5 372.399 274.328 366 272.5C362.5 271.5 354.623 271 350 271C341.623 270.5 335.966 269.606 327.5 269.5C325.396 269.474 320.894 268.953 318.937 268.716C312.798 267.974 313.5 268 304.5 268C298 268 294.938 267.765 291 267.716L276 268C273.739 267.971 269.097 268.522 266.5 268.5C262.097 268.462 261.402 268.553 257 268.5C255.307 268.48 240 266 231.5 272C223 278 221.036 341.369 220.5 347C219.5 357.5 219 359.5 217.5 365.5C216.057 371.273 205.365 405.944 204.716 404.305L165.852 495.414C161.106 506.548 149.814 513.148 137.755 511.834C137.689 511.827 137.493 511.805 137.427 511.797C136.313 511.663 135.198 511.457 134.108 511.187C131.631 510.571 129.266 509.617 127.073 508.351C122.374 505.64 118.617 501.594 116.212 496.649L54.0024 368.924Z" fill="white"/>
<path d="M69.2891 361.481L131.503 489.214C135.364 497.142 146.757 496.856 150.217 488.745L205.093 360.095L159.421 311.176L69.2891 361.481Z" fill="#FECB4C"/>
<path d="M204.715 92.9704L81.4492 90.2724L82.3082 51.0174C82.7282 31.8164 98.6342 16.5924 117.835 17.0124L171.568 18.1884C190.769 18.6084 205.993 34.5144 205.573 53.7154L204.715 92.9704Z" fill="#083200"/>
<path d="M112.301 449.785L131.505 489.213C135.366 497.141 146.759 496.855 150.219 488.744L166.333 450.968L112.301 449.785Z" fill="#083200"/>
<path d="M205.093 360.095L211.498 67.5101L75.7891 64.5391L69.2891 361.481C76.3201 359.597 84.0891 359.447 92.3281 361.383C99.3681 363.037 106.349 365.942 112.82 369.806C128.715 360.434 150.08 362.811 165.6 373.967C175.733 364.616 190.124 360.298 205.093 360.095Z" fill="#FF6F52"/>
<path d="M167.975 214.408C166.281 291.787 165.511 356.589 166.009 373.632C166.32 373.352 166.66 373.108 166.978 372.838C168.227 354.607 170.255 290.634 171.921 214.494C173.349 149.284 174.12 92.9903 174.03 66.6893L172.336 66.6523C171.095 92.9243 169.403 149.198 167.975 214.408Z" fill="#13AA87"/>
<path d="M114.464 213.234C112.855 286.747 112.078 348.943 112.432 369.589C112.56 369.664 112.694 369.726 112.821 369.802C113.079 369.65 113.351 369.527 113.613 369.38C114.87 348.54 116.807 286.561 118.41 213.319C119.837 148.109 120.609 91.8146 120.519 65.5136L118.825 65.4766C117.584 91.7486 115.891 148.024 114.464 213.234Z" fill="#13AA87"/>
<path d="M208.614 96.8545L77.3841 93.9815C69.8811 93.8175 63.9331 87.6025 64.0971 80.0995L64.4191 65.4075C64.5831 57.9055 70.7981 51.9565 78.3011 52.1205L209.53 54.9935C217.032 55.1575 222.981 61.3725 222.817 68.8755L222.495 83.5675C222.331 91.0695 216.116 97.0185 208.614 96.8545Z" fill="#13AA87"/>
<path d="M406.473 221.45C390.344 235.071 367.91 241.574 346.988 241.494C363.674 233.03 376.454 217.1 388.178 202.969C401.214 187.257 415.296 171.022 434.483 164.047C433.641 185.947 423.217 207.309 406.473 221.45Z" fill="#083200"/>
<path d="M438.754 264.161C428.064 261.727 417.754 258.773 406.753 258.944C395.214 259.123 384.045 255.608 372.473 255.22C388.134 248.728 401.21 241.507 418.494 242.013C429.657 242.34 441.183 244.061 451.664 248.019C454.924 249.25 463.238 251.729 463.833 255.78C464.542 260.605 457.328 264.65 453.596 265.4C448.689 266.386 443.632 265.272 438.754 264.161Z" fill="#FF6F52"/>
<path d="M445.788 224.974C440.911 226.617 437.101 226.776 432.127 226.762C430.354 226.757 417.157 224.946 416.766 225.252C425.039 218.768 433.734 212.783 441.49 205.786C449.773 198.314 459.07 191.4 469.926 188.828C472.664 196.432 470.522 205.247 465.637 211.686C460.751 218.125 453.447 222.394 445.788 224.974Z" fill="#4ADFBC"/>
<path d="M285.348 67.7086C284.014 74.4436 277.473 78.8226 270.738 77.4886C264.003 76.1546 259.624 69.6136 260.958 62.8786C262.292 56.1436 268.833 51.7646 275.568 53.0986C282.303 54.4316 286.682 60.9736 285.348 67.7086Z" fill="#083200"/>
<path d="M252.957 111.651C257.152 108.814 258.252 103.114 255.416 98.9194C252.579 94.725 246.879 93.6244 242.685 96.4612C238.49 99.298 237.39 104.998 240.226 109.192C243.063 113.387 248.763 114.487 252.957 111.651Z" fill="#083200"/>
<path d="M187.524 235.202C165.897 230.432 144.157 224.926 121.933 223.98C113.773 223.633 105.325 224.608 97.2377 225.535C92.0547 226.129 86.0527 226.238 81.2217 228.157C79.6657 228.775 69.2507 235.747 70.7777 237.991C50.8477 208.708 64.7267 161.636 90.8237 140.403C105.801 128.217 126.214 125.262 145.521 125.049C182.324 124.643 218.734 132.474 255.503 134.114C292.272 135.754 331.472 130.253 359.967 106.957C357.681 129.276 349.906 151.013 337.518 169.719C358.395 167.767 378.911 162.023 397.767 152.854C394.166 180.981 376.056 206.081 352.419 221.746C328.782 237.411 300.12 244.296 271.778 245.196C243.435 246.097 215.215 241.31 187.524 235.202Z" fill="#44CCAC"/>
<path d="M59.0562 235.855C58.0722 240.823 53.2481 244.052 48.2801 243.068C43.3122 242.084 40.0832 237.26 41.0672 232.292C42.0512 227.324 46.8751 224.095 51.8431 225.079C56.8101 226.063 60.0402 230.888 59.0562 235.855Z" fill="#083200"/>
<path d="M57.0362 137.763C56.1652 142.159 51.8962 145.017 47.5002 144.146C43.1042 143.275 40.2462 139.006 41.1172 134.61C41.9872 130.214 46.2572 127.356 50.6532 128.227C55.0492 129.097 57.9072 133.367 57.0362 137.763Z" fill="#083200"/>
<path d="M322.495 100.546C321.196 107.104 314.826 111.368 308.268 110.07C301.71 108.772 297.446 102.402 298.745 95.8426C300.044 89.2846 306.414 85.0206 312.972 86.3186C319.53 87.6176 323.793 93.9866 322.495 100.546Z" fill="#083200"/>
<path d="M397.766 152.855C395.726 153.847 393.659 154.78 391.582 155.691C371.927 174.702 345.569 187.51 318.559 193.263C277.125 202.088 234.061 196.759 192.332 189.454C172.444 185.973 152.446 182.034 132.263 182.596C112.08 183.158 91.3368 188.667 76.1568 201.98C70.7028 206.763 66.1528 212.693 62.8398 219.2C64.3168 225.922 66.8998 232.296 70.7768 237.992C69.2498 235.748 79.6658 228.776 81.2208 228.158C86.0528 226.239 92.0538 226.129 97.2378 225.536C105.326 224.61 113.773 223.634 121.933 223.981C144.157 224.926 165.896 230.433 187.524 235.203C215.215 241.31 243.435 246.097 271.777 245.197C300.119 244.297 328.781 237.411 352.418 221.747C376.055 206.083 394.164 180.982 397.766 152.855Z" fill="#13AA87"/>
<path d="M214.757 69.7686C214.859 66.3376 197.05 63.0236 174.979 62.3676C152.909 61.7116 134.934 63.9606 134.832 67.3926C134.73 70.8236 152.539 74.1376 174.61 74.7936C196.68 75.4486 214.655 73.1996 214.757 69.7686Z" fill="white"/>
<path d="M129.535 68.8649C129.576 65.4329 125.618 62.6019 120.695 62.5439C115.772 62.4849 111.748 65.2199 111.707 68.6529C111.666 72.0859 115.624 74.9149 120.547 74.9739C125.47 75.0319 129.494 72.2969 129.535 68.8649Z" fill="white"/>
</svg>
