<svg width="101" height="101" viewBox="0 0 101 101" fill="none" xmlns="http://www.w3.org/2000/svg">
<path fill-rule="evenodd" clip-rule="evenodd" d="M75.9523 52.4811C87.5699 62.2047 96.4083 72.9646 89.5134 88.6141C77.2055 116.549 57.7316 87.6972 48.5455 63.7443C44.3693 67.5859 40.5011 72.0477 36.8276 76.2848C26.6964 87.9703 18.0464 97.9476 8.50298 88.4977C-9.48678 70.6843 2.56922 53.4465 36.1456 46.4725C36.8541 46.3253 37.5495 46.1584 38.2322 45.9728C32.564 40.8172 25.0986 36.6717 18.2701 32.8799C4.91841 25.4657 -5.99852 19.4036 3.71423 9.78608C21.704 -8.02732 36.0542 3.14588 46.6514 24.747C48.5866 28.6919 51.6897 32.3156 55.3882 35.7884C61.2522 30.1084 65.7649 23.1802 69.726 17.0989C77.2559 5.53858 82.7927 -2.96193 91.8304 5.9872C108.197 22.1934 98.566 46.9646 75.9523 52.4811Z" fill="#083200"/>
</svg>
