<svg width="512" height="512" viewBox="0 0 512 512" fill="none" xmlns="http://www.w3.org/2000/svg">
<g clip-path="url(#clip0_702_2138)">
<path d="M427.83 427.377C437.982 419.125 446.029 407.16 446.224 394.065C446.256 391.916 446.604 240.02 446.342 240.627C463.556 208.285 480.972 175.101 498.345 142.487C500.866 138.729 505.154 136.264 507.57 132.192C515.72 120.4 510.961 106.506 506.523 94.3723C493.868 60.5938 432.672 68.2627 432.029 105.139C430.41 108.139 428.619 111.67 426.951 114.647C426.859 114.825 424.998 118.315 424.984 118.402C420.306 115.086 414.946 112.658 409.438 111.085C398.093 108.137 374.559 109.312 374.559 109.312L171.769 109.682C170.632 109.491 168.803 109.545 167.631 109.541C157.469 98.1727 141.956 96.9095 127.644 97.8804C118.577 98.2027 108.638 97.2358 100.521 102.003C86.9042 97.9275 70.4805 99.4258 59.977 109.693C58.0663 109.83 54.9205 109.573 52.9547 109.667C26.0875 107.835 0.124112 130.272 0 157.587L0.2222 393.387C0.393354 395.221 0.665599 397.067 1.03593 398.871C8.58273 430.502 34.3189 441.27 64.5381 438.867C117.301 438.758 170.141 438.699 222.906 438.694L396.749 438.5C407.963 438.41 419.145 434.427 427.83 427.377Z" fill="white"/>
<path d="M49.4389 424.995C48.3759 424.995 47.341 424.951 46.3221 424.862L46.4502 423.367C47.4271 423.451 48.419 423.493 49.3998 423.493L52.3865 423.49L52.3875 424.992L49.4389 424.995ZM55.3902 424.988L55.3892 423.486L61.3946 423.48L61.3956 424.982L55.3902 424.988ZM64.3993 424.978L64.3973 423.476L70.4027 423.469L70.4048 424.971L64.3993 424.978ZM73.4075 424.968L73.4055 423.466L79.4109 423.459L79.4129 424.961L73.4075 424.968ZM82.4156 424.959L82.4136 423.457L88.419 423.45L88.421 424.952L82.4156 424.959ZM91.4237 424.949L91.4217 423.447L97.4271 423.44L97.4291 424.942L91.4237 424.949ZM100.432 424.939L100.43 423.437L106.435 423.43L106.437 424.932L100.432 424.939ZM109.439 424.928L109.438 423.426L115.443 423.42L115.444 424.922L109.439 424.928ZM118.447 424.918L118.446 423.416L124.451 423.41L124.452 424.912L118.447 424.918ZM127.456 424.908L127.454 423.407L133.46 423.4L133.462 424.902L127.456 424.908ZM136.464 424.899L136.462 423.397L142.468 423.39L142.47 424.891L136.464 424.899ZM145.472 424.888L145.47 423.387L151.476 423.38L151.478 424.881L145.472 424.888ZM154.48 424.878L154.478 423.377L160.484 423.37L160.486 424.871L154.48 424.878ZM163.489 424.869L163.487 423.368L169.492 423.361L169.494 424.862L163.489 424.869ZM172.496 424.858L172.495 423.357L178.5 423.351L178.501 424.852L172.496 424.858ZM181.504 424.848L181.503 423.347L187.508 423.341L187.509 424.842L181.504 424.848ZM190.513 424.838L190.511 423.337L196.516 423.33L196.518 424.831L190.513 424.838ZM199.521 424.829L199.519 423.328L205.524 423.321L205.526 424.822L199.521 424.829ZM208.529 424.819L208.527 423.318L214.533 423.311L214.535 424.812L208.529 424.819ZM217.537 424.809L217.535 423.308L223.541 423.301L223.543 424.802L217.537 424.809ZM226.545 424.799L226.543 423.298L232.549 423.291L232.551 424.792L226.545 424.799ZM235.552 424.789L235.551 423.288L241.557 423.282L241.558 424.783L235.552 424.789ZM244.561 424.779L244.56 423.278L250.565 423.272L250.566 424.773L244.561 424.779ZM253.569 424.769L253.567 423.268L259.572 423.261L259.574 424.762L253.569 424.769ZM262.577 424.759L262.575 423.258L268.58 423.251L268.582 424.752L262.577 424.759ZM271.585 424.75L271.583 423.249L277.588 423.242L277.59 424.743L271.585 424.75ZM280.593 424.74L280.591 423.239L286.596 423.232L286.598 424.733L280.593 424.74ZM289.601 424.73L289.599 423.229L295.605 423.222L295.607 424.723L289.601 424.73ZM298.609 424.719L298.608 423.218L304.614 423.212L304.615 424.713L298.609 424.719ZM307.617 424.709L307.615 423.208L313.621 423.201L313.623 424.702L307.617 424.709ZM316.625 424.7L316.623 423.199L322.629 423.192L322.631 424.693L316.625 424.7ZM325.634 424.69L325.632 423.189L331.637 423.182L331.639 424.683L325.634 424.69ZM334.642 424.68L334.64 423.179L340.645 423.172L340.647 424.673L334.642 424.68ZM343.65 424.67L343.648 423.169L349.653 423.162L349.655 424.663L343.65 424.67ZM352.658 424.661L352.656 423.16L358.661 423.153L358.663 424.654L352.658 424.661ZM361.666 424.65L361.665 423.149L367.67 423.143L367.671 424.644L361.666 424.65ZM370.674 424.64L370.672 423.139L376.678 423.132L376.68 424.633L370.674 424.64ZM379.682 424.63L379.68 423.129L385.686 423.122L385.688 424.623L379.682 424.63ZM388.69 424.621L388.688 423.12L394.694 423.113L394.696 424.614L388.69 424.621ZM397.721 424.595L397.674 423.094C399.631 423.033 401.592 422.803 403.501 422.409L403.804 423.88C401.81 424.291 399.763 424.531 397.721 424.595ZM43.2803 424.47C41.2595 424.12 39.2667 423.599 37.356 422.921L37.8584 421.505C39.6901 422.155 41.5998 422.654 43.5366 422.99L43.2803 424.47ZM406.777 423.131L406.346 421.692C408.218 421.132 410.054 420.406 411.804 419.533L412.475 420.876C410.647 421.79 408.73 422.547 406.777 423.131ZM34.5134 421.772C32.6538 420.924 30.8591 419.912 29.1786 418.762L30.0264 417.523C31.6358 418.625 33.3554 419.594 35.136 420.405L34.5134 421.772ZM415.157 419.387L414.372 418.106C416.039 417.085 417.627 415.914 419.097 414.624L420.088 415.752C418.554 417.098 416.896 418.322 415.157 419.387ZM26.7264 416.921C25.149 415.627 23.6747 414.187 22.3445 412.639L23.4835 411.66C24.7566 413.141 26.1689 414.521 27.6793 415.76L26.7264 416.921ZM422.302 413.633L421.219 412.593C422.573 411.182 423.813 409.647 424.905 408.027L426.149 408.868C425.009 410.558 423.715 412.16 422.302 413.633ZM20.4468 410.229C19.2557 408.574 18.2017 406.801 17.3149 404.965L18.6672 404.312C19.5169 406.072 20.5258 407.767 21.6669 409.354L20.4468 410.229ZM427.755 406.256L426.442 405.526C427.392 403.819 428.2 402.018 428.842 400.174L430.26 400.669C429.589 402.594 428.746 404.474 427.755 406.256ZM16.1019 402.147C15.3782 400.245 14.8137 398.262 14.4263 396.254L15.9007 395.968C16.273 397.892 16.8125 399.791 17.5061 401.614L16.1019 402.147ZM431.143 397.733L429.687 397.364C430.167 395.473 430.485 393.526 430.632 391.574L432.129 391.688C431.975 393.724 431.643 395.759 431.143 397.733ZM13.9729 393.223C13.8388 391.965 13.7698 390.679 13.7688 389.402L13.7668 387.149L15.2681 387.146L15.2701 389.4C15.2711 390.626 15.3372 391.858 15.4653 393.065L13.9729 393.223ZM430.729 388.634L430.723 382.628L432.225 382.626L432.231 388.632L430.729 388.634ZM13.7638 384.146L13.7577 378.14L15.2591 378.138L15.2651 384.144L13.7638 384.146ZM430.72 379.626L430.713 373.62L432.215 373.618L432.222 379.624L430.72 379.626ZM13.7537 375.138L13.7467 369.132L15.2481 369.13L15.2551 375.136L13.7537 375.138ZM430.709 370.618L430.703 364.612L432.205 364.61L432.211 370.616L430.709 370.618ZM13.7437 366.13L13.7367 360.124L15.2381 360.122L15.2451 366.128L13.7437 366.13ZM430.7 361.61L430.693 355.604L432.195 355.602L432.202 361.608L430.7 361.61ZM13.7337 357.121L13.7277 351.116L15.2291 351.114L15.2351 357.119L13.7337 357.121ZM430.689 352.601L430.683 346.596L432.184 346.594L432.191 352.599L430.689 352.601ZM13.7237 348.113L13.7177 342.108L15.2191 342.106L15.2251 348.111L13.7237 348.113ZM430.68 343.593L430.673 337.588L432.175 337.586L432.182 343.591L430.68 343.593ZM13.7137 339.105L13.7067 333.1L15.2081 333.098L15.2151 339.103L13.7137 339.105ZM430.67 334.585L430.663 328.58L432.164 328.578L432.171 334.583L430.67 334.585ZM13.7037 330.097L13.6967 324.092L15.198 324.09L15.205 330.095L13.7037 330.097ZM430.659 325.577L430.652 319.572L432.153 319.57L432.16 325.575L430.659 325.577ZM13.6937 321.089L13.6877 315.084L15.189 315.082L15.195 321.087L13.6937 321.089ZM430.65 316.569L430.643 310.564L432.144 310.562L432.151 316.567L430.65 316.569ZM13.6837 312.081L13.6777 306.076L15.179 306.074L15.185 312.079L13.6837 312.081ZM430.639 307.561L430.633 301.555L432.134 301.553L432.14 307.559L430.639 307.561ZM13.6747 303.073L13.6677 297.067L15.169 297.065L15.176 303.071L13.6747 303.073ZM430.63 298.553L430.623 292.547L432.124 292.545L432.131 298.551L430.63 298.553ZM13.6647 294.065L13.6577 288.059L15.159 288.057L15.166 294.063L13.6647 294.065ZM430.619 289.545L430.613 283.539L432.114 283.537L432.12 289.543L430.619 289.545ZM13.6547 285.057L13.6486 279.051L15.15 279.049L15.156 285.055L13.6547 285.057ZM430.61 280.537L430.603 274.531L432.104 274.529L432.111 280.535L430.61 280.537ZM13.6446 276.048L13.6386 270.043L15.14 270.041L15.146 276.046L13.6446 276.048ZM430.599 271.528L430.593 265.523L432.094 265.521L432.1 271.526L430.599 271.528ZM13.6346 267.04L13.6276 261.035L15.129 261.033L15.136 267.038L13.6346 267.04ZM430.59 262.52L430.583 256.515L432.084 256.513L432.091 262.518L430.59 262.52ZM13.6246 258.032L13.6176 252.027L15.119 252.025L15.126 258.03L13.6246 258.032ZM430.579 253.511L430.573 247.506L432.074 247.504L432.08 253.509L430.579 253.511ZM13.6146 249.024L13.6086 243.019L15.11 243.017L15.116 249.022L13.6146 249.024ZM430.57 244.503L430.563 238.498L432.064 238.496L432.071 244.501L430.57 244.503ZM13.6046 240.016L13.5986 234.011L15.1 234.009L15.106 240.014L13.6046 240.016ZM432.693 236.023L431.366 235.321L434.175 230.013L435.502 230.716L432.693 236.023ZM13.5956 231.008L13.5886 225.003L15.0899 225.001L15.097 231.006L13.5956 231.008ZM436.908 228.062L435.581 227.36L438.39 222.052L439.717 222.754L436.908 228.062ZM13.5856 222L13.5786 215.994L15.0799 215.992L15.0869 221.998L13.5856 222ZM441.123 220.101L439.795 219.398L442.605 214.091L443.932 214.793L441.123 220.101ZM13.5756 212.992L13.5696 206.986L15.0709 206.984L15.0769 212.99L13.5756 212.992ZM445.336 212.14L444.009 211.437L446.819 206.13L448.146 206.832L445.336 212.14ZM449.55 204.178L448.223 203.475L451.032 198.167L452.36 198.87L449.55 204.178ZM13.5656 203.984L13.5596 197.978L15.0609 197.976L15.0669 203.982L13.5656 203.984ZM453.765 196.216L452.438 195.514L455.247 190.205L456.574 190.908L453.765 196.216ZM13.5556 194.975L13.5486 188.97L15.0499 188.968L15.0569 194.973L13.5556 194.975ZM457.98 188.254L456.653 187.552L459.462 182.244L460.789 182.947L457.98 188.254ZM13.5456 185.967L13.5385 179.962L15.0399 179.96L15.0469 185.965L13.5456 185.967ZM462.194 180.293L460.866 179.592L463.676 174.283L465.003 174.985L462.194 180.293ZM13.5355 176.959L13.5295 170.954L15.0309 170.952L15.0369 176.957L13.5355 176.959ZM466.408 172.332L465.081 171.629L467.891 166.322L469.218 167.024L466.408 172.332ZM13.5255 167.951L13.5195 161.946L15.0209 161.944L15.0269 167.949L13.5255 167.951ZM470.622 164.37L469.295 163.667L472.104 158.36L473.432 159.062L470.622 164.37ZM15.0299 158.962L13.5295 158.923C13.5826 156.875 13.8108 154.827 14.2071 152.837L15.6795 153.13C15.3001 155.037 15.0809 156.998 15.0299 158.962ZM474.837 156.409L473.51 155.706L476.319 150.398L477.646 151.101L474.837 156.409ZM16.3771 150.277L14.9358 149.858C15.5053 147.899 16.251 145.977 17.1538 144.146L18.501 144.809C17.6372 146.563 16.9226 148.403 16.3771 150.277ZM479.051 148.447L477.724 147.744L480.533 142.436L481.86 143.139L479.051 148.447ZM428.315 147.325L427.695 145.885C427.454 145.326 427.199 144.773 426.93 144.229L428.275 143.562C428.329 143.671 428.382 143.78 428.435 143.889L429.658 141.577L430.985 142.279L428.315 147.325ZM19.9113 142.234L18.6271 141.456C19.6801 139.719 20.8962 138.054 22.2414 136.509L23.3734 137.495C22.0842 138.975 20.9192 140.569 19.9113 142.234ZM425.513 141.657C424.497 139.989 423.328 138.399 422.038 136.928L423.167 135.938C424.514 137.473 425.734 139.134 426.796 140.877L425.513 141.657ZM483.264 140.485L481.937 139.783L484.747 134.475L486.074 135.178L483.264 140.485ZM432.391 139.626L431.063 138.924L433.873 133.615L435.2 134.318L432.391 139.626ZM25.3952 135.361L24.3493 134.284C25.8186 132.858 27.414 131.553 29.0916 130.407L29.9393 131.646C28.3319 132.744 26.8035 133.994 25.3952 135.361ZM420.008 134.807C418.595 133.455 417.057 132.219 415.434 131.133L416.269 129.886C417.964 131.02 419.57 132.311 421.044 133.723L420.008 134.807ZM487.479 132.524L486.152 131.822L487.732 128.839L487.988 128.737C488.842 128.397 489.662 127.969 490.428 127.468L491.251 128.723C490.479 129.229 489.656 129.667 488.801 130.026L487.479 132.524ZM436.604 131.664L435.277 130.962L438.087 125.654L439.414 126.357L436.604 131.664ZM32.4316 130.095L31.6949 128.787C33.4745 127.785 35.3512 126.933 37.2749 126.256L37.7744 127.672C35.9327 128.32 34.1351 129.136 32.4316 130.095ZM412.927 129.608C411.219 128.668 409.414 127.868 407.564 127.232L408.052 125.812C409.984 126.476 411.867 127.311 413.652 128.293L412.927 129.608ZM40.5839 126.817L40.2096 125.363C42.1773 124.856 44.2102 124.517 46.253 124.354L46.3721 125.85C44.4154 126.007 42.4676 126.333 40.5839 126.817ZM493.695 126.731L492.631 125.672C493.581 124.717 494.382 123.628 495.012 122.437C495.27 121.95 495.502 121.441 495.699 120.927L497.1 121.465C496.881 122.036 496.625 122.598 496.339 123.14C495.639 124.462 494.75 125.67 493.695 126.731ZM404.749 126.398C403.738 126.144 402.698 125.933 401.658 125.77C400.771 125.632 399.861 125.527 398.954 125.458L399.067 123.961C400.015 124.033 400.964 124.143 401.89 124.287C402.975 124.457 404.059 124.677 405.113 124.941L404.749 126.398ZM49.3148 125.741L49.3128 124.24L55.3182 124.233L55.3202 125.734L49.3148 125.741ZM58.3229 125.73L58.3209 124.229L64.3263 124.222L64.3283 125.723L58.3229 125.73ZM159.102 125.619L158.886 125.233C158.303 124.182 157.626 123.168 156.877 122.218L158.055 121.287C158.762 122.183 159.409 123.133 159.979 124.117L161.799 124.115L161.801 125.616L159.102 125.619ZM164.803 125.612L164.801 124.111L170.806 124.105L170.808 125.606L164.803 125.612ZM173.811 125.603L173.809 124.102L179.814 124.095L179.816 125.596L173.811 125.603ZM182.819 125.593L182.817 124.092L188.822 124.085L188.824 125.586L182.819 125.593ZM191.827 125.583L191.825 124.082L197.83 124.076L197.832 125.577L191.827 125.583ZM200.835 125.573L200.833 124.072L206.839 124.066L206.841 125.567L200.835 125.573ZM209.843 125.563L209.841 124.062L215.847 124.055L215.849 125.556L209.843 125.563ZM218.851 125.553L218.849 124.052L224.855 124.045L224.857 125.546L218.851 125.553ZM227.86 125.543L227.858 124.042L233.863 124.036L233.865 125.537L227.86 125.543ZM236.868 125.533L236.866 124.032L242.871 124.026L242.873 125.527L236.868 125.533ZM245.876 125.523L245.874 124.022L251.879 124.016L251.881 125.517L245.876 125.523ZM254.884 125.514L254.882 124.013L260.887 124.006L260.889 125.507L254.884 125.514ZM263.892 125.504L263.89 124.003L269.895 123.996L269.897 125.497L263.892 125.504ZM272.9 125.494L272.898 123.993L278.904 123.987L278.905 125.488L272.9 125.494ZM281.908 125.484L281.906 123.983L287.912 123.977L287.914 125.478L281.908 125.484ZM290.916 125.474L290.914 123.973L296.92 123.966L296.922 125.467L290.916 125.474ZM299.924 125.464L299.922 123.963L305.928 123.956L305.93 125.457L299.924 125.464ZM308.933 125.454L308.931 123.953L314.936 123.947L314.938 125.448L308.933 125.454ZM317.941 125.444L317.939 123.943L323.944 123.937L323.946 125.438L317.941 125.444ZM326.949 125.435L326.947 123.934L332.952 123.927L332.954 125.428L326.949 125.435ZM335.957 125.425L335.955 123.923L341.96 123.916L341.962 125.418L335.957 125.425ZM344.965 125.415L344.963 123.913L350.968 123.907L350.97 125.409L344.965 125.415ZM353.973 125.405L353.971 123.903L359.977 123.897L359.978 125.399L353.973 125.405ZM362.981 125.395L362.979 123.893L368.985 123.886L368.987 125.388L362.981 125.395ZM371.989 125.385L371.987 123.883L377.993 123.876L377.995 125.378L371.989 125.385ZM380.997 125.375L380.995 123.873L387.001 123.867L387.003 125.369L380.997 125.375ZM390.006 125.365L390.004 123.863L396.009 123.857L396.011 125.359L390.006 125.365ZM67.5982 124.716L66.3201 123.93C67.4151 122.152 68.7803 120.566 70.3777 119.218L71.3456 120.365C69.8693 121.61 68.6081 123.075 67.5982 124.716ZM440.818 123.703L439.491 123.001L442.301 117.693L443.628 118.396L440.818 123.703ZM100.57 120.741L100.054 120.304C99.6331 119.948 99.1867 119.605 98.7252 119.284L99.58 118.051C99.8963 118.27 100.207 118.5 100.508 118.737C101.431 117.903 102.422 117.139 103.458 116.46L104.28 117.716C103.134 118.467 102.05 119.326 101.056 120.274L100.57 120.741ZM154.931 120.062C153.541 118.708 151.98 117.54 150.293 116.59L151.029 115.282C152.829 116.296 154.494 117.542 155.978 118.987L154.931 120.062ZM73.6877 118.69L72.915 117.403C74.7106 116.325 76.6544 115.548 78.6912 115.097L79.0155 116.563C77.1368 116.979 75.3442 117.695 73.6877 118.69ZM497.915 118.416L496.432 118.183C496.541 117.489 496.596 116.78 496.596 116.075C496.596 114.885 496.44 113.695 496.131 112.54L497.581 112.153C497.924 113.435 498.098 114.754 498.098 116.075C498.097 116.857 498.036 117.644 497.915 118.416ZM96.235 117.84C94.4894 117.005 92.6368 116.456 90.7291 116.207L90.9232 114.718C92.9891 114.987 94.9949 115.582 96.8836 116.486L96.235 117.84ZM106.807 116.285L106.153 114.932C108.023 114.028 109.998 113.373 112.023 112.987L112.304 114.462C110.408 114.823 108.558 115.437 106.807 116.285ZM81.8701 116.169L81.782 114.67C82.0602 114.653 82.3395 114.643 82.6207 114.639L87.8194 114.563L87.8414 116.064L82.6428 116.14C82.3835 116.143 82.1253 116.154 81.8701 116.169ZM445.033 115.742L443.706 115.039L446.515 109.732L447.843 110.433L445.033 115.742ZM147.677 115.335C146.125 114.711 144.498 114.264 142.841 114.005C142.584 113.964 142.326 113.929 142.067 113.897L142.247 112.407C142.524 112.44 142.799 112.479 143.073 112.521C144.843 112.798 146.579 113.276 148.238 113.943L147.677 115.335ZM115.184 114.108L115.1 112.608C115.424 112.59 115.749 112.578 116.076 112.573L121.135 112.499L121.157 114.001L116.098 114.075C115.793 114.079 115.487 114.091 115.184 114.108ZM124.16 113.957L124.139 112.455L130.145 112.367L130.167 113.868L124.16 113.957ZM133.167 113.824L133.145 112.323L139.153 112.235L139.171 113.736L133.167 113.824ZM495.118 109.883C494.836 109.324 494.514 108.779 494.157 108.262L494.041 108.094L494.026 107.891C493.885 105.947 493.493 104.038 492.86 102.218L494.278 101.726C494.932 103.607 495.345 105.576 495.509 107.581C495.858 108.102 496.176 108.649 496.458 109.207L495.118 109.883ZM447.281 107.462C447.156 106.667 447.092 105.857 447.092 105.055C447.092 103.749 447.259 102.452 447.588 101.198L449.041 101.579C448.744 102.708 448.593 103.878 448.593 105.055C448.593 105.778 448.651 106.51 448.764 107.226L447.281 107.462ZM491.728 99.5486C490.846 97.808 489.738 96.2115 488.433 94.8023L489.535 93.7814C490.934 95.2927 492.122 97.0043 493.067 98.8689L491.728 99.5486ZM450.048 98.923L448.706 98.2484L448.837 97.9952C449.786 96.2015 451.064 94.6391 452.631 93.355L453.583 94.516C452.169 95.6741 451.019 97.0803 450.163 98.6988L450.048 98.923ZM455.956 92.9526L455.264 91.6204C457.153 90.6395 459.186 90.073 461.307 89.9379L461.402 91.4362C459.49 91.5584 457.658 92.0688 455.956 92.9526ZM486.323 92.8265C485.323 92.0168 484.24 91.3011 483.105 90.7006C482.546 90.4043 481.96 90.1311 481.365 89.8879L481.931 88.4976C482.573 88.7588 483.203 89.0541 483.807 89.3734C485.028 90.02 486.193 90.7887 487.268 91.6594L486.323 92.8265ZM464.455 90.4504L463.821 89.0891C465.698 88.2164 467.683 87.5958 469.725 87.2445L469.981 88.7248C468.069 89.0531 466.21 89.6336 464.455 90.4504ZM478.615 88.9991C476.76 88.5436 474.819 88.3525 472.865 88.4225L472.809 86.9222C474.903 86.8441 476.982 87.0533 478.972 87.5407L478.615 88.9991Z" fill="#FDAE54"/>
<path d="M98.3053 148.757L74.8031 149.102L74.5869 134.388C74.5158 129.535 78.3923 125.542 83.2457 125.471L89.172 125.384C94.0254 125.313 98.018 129.189 98.0891 134.043L98.3053 148.757Z" fill="#7920BB"/>
<path d="M153.361 146.383L103.816 147.111L103.662 136.631C103.556 129.438 109.301 123.523 116.492 123.417L139.993 123.072C147.186 122.966 153.101 128.711 153.207 135.902L153.361 146.383Z" fill="#7920BB"/>
<path d="M396.32 413.657L50.2132 414.039C36.3437 414.054 25.0876 402.823 25.0726 388.953L24.8203 160.182C24.8053 146.313 36.0364 135.057 49.9059 135.042L396.013 134.66C409.882 134.645 421.138 145.876 421.153 159.746L421.405 388.518C421.421 402.386 410.19 413.642 396.32 413.657Z" fill="#84DB42"/>
<path d="M366.982 384.859L64.7249 398.387C53.4488 398.4 47.4324 392.003 47.4194 380.727L47.4024 168.621C47.3923 159.668 57.4774 149.433 57.4774 149.433C59.5573 148.716 61.7893 148.326 64.1124 148.323L367.418 147.988C378.695 147.976 387.846 157.107 387.858 168.383L388.091 312.291L366.982 384.859Z" fill="#E2FFB8"/>
<path d="M413.053 265.104C412.27 270.102 407.585 273.519 402.587 272.736C397.59 271.954 394.173 267.268 394.955 262.271C395.738 257.273 400.423 253.856 405.421 254.639C410.417 255.421 413.834 260.107 413.053 265.104Z" fill="#FFAC47"/>
<path d="M388.093 379.951L388.018 312.01C365.183 306.93 341.591 305.245 318.274 307.136C270.727 310.99 223.459 329.354 176.53 320.793C141.941 314.483 110.409 292.967 91.9212 263.061C71.0213 229.254 67.35 188.128 57.5352 149.43C49.495 152.179 43.7088 159.787 43.7188 168.758L43.7988 241.478L51.8451 280.007L43.8809 316.005L43.952 380.33C43.964 391.606 53.1152 400.737 64.3914 400.724L367.698 400.39C378.975 400.378 388.105 391.227 388.093 379.951Z" fill="#D4F5AB"/>
<path d="M317.748 238.726C317.149 237.326 311.506 238.408 305.565 241.93C299.615 245.436 295.946 249.859 296.884 251.058C297.837 252.289 302.787 250.035 308.402 246.731C314.005 243.404 318.367 240.154 317.748 238.726Z" fill="#7920BB"/>
<path d="M326.461 274.382C326.482 272.841 319.957 271.504 311.888 271.394C303.818 271.284 297.259 272.442 297.238 273.982C297.217 275.523 303.742 276.86 311.811 276.97C319.881 277.08 326.44 275.921 326.461 274.382Z" fill="#7920BB"/>
<path d="M311.663 310.274C312.513 308.99 308.844 305.065 303.471 301.51C298.096 297.954 293.05 296.113 292.2 297.397C291.351 298.681 295.019 302.605 300.393 306.161C305.768 309.716 310.813 311.558 311.663 310.274Z" fill="#7920BB"/>
<path d="M342.501 328.039L332.372 370.052C331.807 372.392 334.735 373.941 336.354 372.159L365.401 340.16" fill="#FDAE54"/>
<path d="M482.86 116.756C486.348 110.166 484.328 102.257 478.348 99.0916C472.367 95.9262 464.691 98.7028 461.203 105.293C457.715 111.884 459.735 119.793 465.715 122.958C471.695 126.123 479.371 123.347 482.86 116.756Z" fill="#84DB42"/>
<path d="M463.257 104.23C461.436 105.005 459.845 106.347 458.848 108.232L342.5 328.036L365.4 340.158L481.747 120.354C482.745 118.469 482.96 116.398 482.577 114.458L463.257 104.23Z" fill="#7920BB"/>
<path d="M480.104 120.646L459.534 109.758C457.218 108.532 456.333 105.66 457.561 103.343C458.787 101.026 461.659 100.143 463.975 101.369L484.545 112.256C486.862 113.483 487.746 116.355 486.52 118.671C485.293 120.988 482.421 121.872 480.104 120.646Z" fill="#FDAE54"/>
<path d="M408.708 364.853C411.754 365.107 415.32 352.011 415.446 335.563C415.6 319.115 412.258 305.96 409.208 306.162C406.111 306.361 404.445 319.472 404.292 335.468C404.172 351.464 405.614 364.603 408.708 364.853Z" fill="#E5F0D8"/>
<path d="M410.843 379.707C407.845 378.959 404.823 380.728 403.656 383.504C402.511 386.288 403.389 389.677 406.033 391.275C408.657 392.868 412.447 391.42 413.956 387.785C415.468 384.153 413.821 380.444 410.843 379.707Z" fill="#E5F0D8"/>
<path d="M171 348.014L258 297.785C274 288.547 274 265.453 258 256.215L171 205.986C155 196.748 135 208.295 135 226.771V327.229C135 345.705 155 357.252 171 348.014Z" stroke="#7920BB" stroke-width="16"/>
</g>
<defs>
<clipPath id="clip0_702_2138">
<rect width="512" height="512" fill="white"/>
</clipPath>
</defs>
</svg>
