<svg width="196" height="180" viewBox="0 0 196 180" fill="none" xmlns="http://www.w3.org/2000/svg">
<path d="M170.453 20.6548C151.018 14.2373 115.138 56.5312 98.6203 80.1285C97.7551 81.3646 95.8843 81.2515 95.1361 79.9413C76.2151 46.8055 37.3694 20.6554 25.3353 20.6736C12.9504 20.6923 6.70502 29.7736 8.22457 62.7612C9.21976 84.3655 29.9399 91.265 45.8983 92.4675C48.0628 92.6306 49.0762 96.2865 47.273 97.4949C40.5502 102 32.5924 108.413 28.1693 115.086C20.0017 127.409 38.0465 161.534 64.2588 159.07C90.4712 156.605 92.5606 111.484 98.6388 128.736C104.717 145.989 126.561 162.482 139.667 159.07C152.773 155.657 168.538 138.405 166.449 123.049C165.077 112.966 153.461 102.96 144.79 97.181C143.189 96.1143 143.699 93.3716 145.584 92.9914C151.758 91.7465 160.044 89.7915 168.538 87.9759C192.487 82.8573 195.716 28.9965 170.453 20.6548Z" stroke="#439A86" stroke-width="16" stroke-linecap="round" stroke-linejoin="round"/>
</svg>
