<svg width="640" height="640" viewBox="0 0 640 640" fill="none" xmlns="http://www.w3.org/2000/svg">
<g clip-path="url(#clip0_563_125)">
<path d="M118.665 1.80049C28.6648 13.1338 -24.5352 107 11.4648 191.4C19.9981 211.667 27.5981 220.734 78.5314 271.934L126.531 320.334L78.5314 368.601C29.5981 418.067 23.5981 425.001 13.4648 445.267C3.19809 465.934 -1.60191 492.601 0.798086 517.267C6.26475 575.001 47.4648 622.334 104.665 636.734C113.731 639.001 119.998 639.534 135.998 639.534C158.398 639.534 171.331 637.134 189.065 629.667C210.665 620.467 215.598 616.334 268.931 563.134L319.331 513.134L367.598 561.134C426.131 619.267 434.131 625.267 465.331 634.334C498.131 643.801 531.598 640.867 562.665 625.667C598.798 608.201 624.265 576.867 634.931 537.001C637.998 525.401 638.398 521.134 638.398 503.667C638.398 486.201 637.998 481.934 634.931 470.334C630.931 455.401 623.598 439.267 615.198 426.734C611.865 421.801 589.731 398.334 560.798 369.267L512.131 320.334L562.131 269.934C591.065 240.867 614.265 216.467 617.198 212.067C639.731 177.134 645.465 132.734 632.398 94.4672C615.865 45.9338 574.265 11.1338 523.065 3.00049C509.065 0.733821 483.065 1.93382 469.731 5.40049C454.265 9.53382 440.131 15.9338 426.798 24.8672C417.198 31.1338 404.665 42.8672 366.931 80.2005L319.198 127.534L270.265 78.7338C242.398 51.0005 217.865 27.6672 213.331 24.7338C194.265 11.9338 174.265 4.60049 151.998 1.80049C138.531 0.200487 132.131 0.200487 118.665 1.80049ZM166.398 30.2005C192.265 37.8005 198.531 42.6005 253.998 98.2005L301.331 145.667L222.931 223.934L144.665 302.334L99.1981 257.001C74.2648 232.067 51.0648 208.067 47.7314 203.667C39.8648 193.4 32.1314 177.267 28.5314 163.667C24.5314 148.734 24.5314 124.067 28.5314 109C39.8648 66.0672 73.8648 35.1338 118.931 27.0005C130.398 24.8672 153.465 26.4672 166.398 30.2005ZM535.331 31.6672C549.198 36.0672 557.465 40.2005 568.265 47.9338C608.398 76.4672 624.665 131.534 606.665 177.534C599.198 196.734 593.465 203.8 543.465 253.934C517.465 280.201 495.598 301.667 494.798 301.667C493.998 301.667 458.265 266.601 415.331 223.667L337.331 145.534L384.665 98.4672C433.465 49.8005 441.465 43.1338 458.931 35.8005C466.265 32.8672 478.531 29.1338 485.998 27.8005C487.865 27.5338 497.198 27.4005 506.665 27.6672C521.198 27.9338 525.865 28.6005 535.331 31.6672ZM398.398 242.734L476.665 321.001L398.265 399.401L319.998 477.667L241.331 399.001L162.665 320.334L240.665 242.334C283.598 199.4 318.931 164.334 319.331 164.334C319.731 164.334 355.198 199.534 398.398 242.734ZM223.731 417.401L302.131 495.801L254.398 543.134C202.665 594.467 195.598 600.334 175.331 607.801C159.598 613.801 148.665 615.401 130.265 614.601C112.531 613.934 102.931 611.667 88.7981 604.867C33.3314 578.734 9.46475 513.267 35.1981 458.334C38.1314 452.067 42.7981 443.667 45.5981 439.934C50.1314 433.534 142.931 339.001 144.665 339.001C145.065 339.001 180.665 374.334 223.731 417.401ZM543.598 387.934C585.598 430.334 593.198 438.467 598.531 447.667C609.598 466.601 614.931 489.134 613.598 510.334C610.398 558.334 577.331 598.601 530.531 611.134C514.265 615.534 489.331 615.267 473.598 610.467C459.731 606.334 448.265 600.734 437.331 593.001C432.931 589.801 408.665 566.467 383.331 541.134L337.331 495.001L415.331 417.001C458.265 374.067 493.598 339.001 493.998 339.001C494.398 339.001 516.665 361.001 543.598 387.934Z" fill="#439A86"/>
<path d="M308.798 216.199C300.798 219.399 293.464 225.799 289.064 233.266C284.264 241.533 283.198 257.266 286.664 266.599C296.798 292.999 332.398 300.066 351.464 279.399C359.864 270.333 362.398 263.399 361.731 251.133C361.064 234.733 354.264 224.333 339.998 217.533C330.398 212.866 318.264 212.333 308.798 216.199ZM333.331 241.266C340.664 246.733 340.931 257.533 333.864 263.533C327.064 269.266 315.731 267.533 311.864 260.199C304.531 245.799 320.398 231.933 333.331 241.266Z" fill="#439A86"/>
<path d="M370.264 281.799C361.597 286.065 357.064 290.599 352.264 299.532C347.864 307.799 348.131 325.265 352.664 334.065C367.597 363.399 409.064 362.332 423.731 332.332C427.997 323.399 427.731 308.732 423.064 299.665C415.464 285.265 403.464 277.799 387.864 277.665C379.997 277.665 377.064 278.332 370.264 281.799ZM394.797 305.532C406.531 312.732 401.731 329.665 387.864 330.065C373.331 330.465 368.397 311.665 381.331 304.599C385.331 302.332 390.131 302.732 394.797 305.532Z" fill="#439A86"/>
<path d="M241.331 287.934C232.397 291.134 226.797 295.267 222.264 302.067C213.864 314.467 212.797 328.2 219.464 341.534C233.731 369.934 273.331 369.667 287.464 341C291.197 333.267 291.597 331.534 291.064 322.734C290.397 311.267 287.597 304.6 280.264 297.267C270.131 287.134 254.264 283.4 241.331 287.934ZM261.864 314.867C267.731 320.334 267.731 327.8 261.864 333.534C253.197 342.2 239.331 336.6 239.331 324.334C239.331 312.2 252.931 306.467 261.864 314.867Z" fill="#439A86"/>
<path d="M304.664 350.869C288.664 355.802 277.598 371.136 277.598 388.336C277.598 422.869 319.198 439.936 343.731 415.402C368.131 391.136 350.931 349.402 316.664 349.802C311.864 349.802 306.531 350.336 304.664 350.869ZM326.131 378.869C334.664 387.402 328.264 401.669 315.998 401.669C307.331 401.669 300.664 393.402 302.798 385.136C305.331 374.869 318.531 371.402 326.131 378.869Z" fill="#439A86"/>
</g>
<defs>
<clipPath id="clip0_563_125">
<rect width="640" height="640" fill="white"/>
</clipPath>
</defs>
</svg>
