<svg width="640" height="640" viewBox="0 0 640 640" fill="none" xmlns="http://www.w3.org/2000/svg">
<path d="M193.244 341.339L193.245 341.339C195.86 340.779 209.16 337.696 222.064 332.261C228.458 329.569 235.497 325.995 241.144 321.385C246.541 316.977 252.866 309.776 252.866 299.72C252.866 294.11 250.521 289.105 248.251 285.381C245.836 281.42 242.588 277.442 238.977 273.584C231.735 265.848 221.903 257.412 211.052 249.031C189.278 232.215 162.036 214.578 139.592 201.735C117.947 189.348 97.744 177.781 80.3868 166.322C62.9487 154.809 49.1889 143.917 40.0629 133.152C31.0401 122.509 27.3701 112.998 27.9587 103.763C28.5599 94.3308 33.7681 82.4788 48.3112 67.6382C76.4005 38.9745 102.176 22.9068 125.53 16.2356C148.58 9.65151 170.09 11.9716 190.61 21.6185C232.68 41.3969 271.378 92.4003 305.381 163.83C311.776 177.265 318.808 189.524 329.525 198.472C340.635 207.749 354.413 212.45 372.34 213.526C384.114 214.232 395.033 209.67 404.473 203.312C413.959 196.924 422.966 188.05 431.302 178.348C447.947 158.974 463.561 134.307 476.247 114.236C488.466 94.9044 499.581 77.329 510.385 62.5451C521.25 47.6773 531.195 36.4962 540.781 29.4865C550.113 22.6635 558.309 20.3364 566.465 21.5741C575.041 22.8756 585.883 28.4586 599.501 42.355C622.801 66.1318 627.857 91.575 622.622 117.968C617.205 145.271 600.632 173.921 579.518 201.908C561.471 225.829 540.886 248.291 522.581 268.265C519.558 271.564 516.597 274.795 513.72 277.953C503.701 288.952 494.56 299.228 487.677 308.219C484.226 312.727 481.161 317.146 478.783 321.364C476.471 325.468 474.413 330.066 473.63 334.837C472.101 344.162 475.208 353.368 479.225 361.281C483.357 369.421 489.402 378.004 496.157 386.696C502.377 394.7 509.567 403.257 516.974 412.071C517.656 412.883 518.34 413.697 519.026 414.513C527.221 424.271 535.694 434.424 543.85 445.002C577.279 488.362 601.168 533.693 581.972 578.594C572.536 600.664 562.404 613.525 552.739 620.401C543.485 626.986 533.831 628.693 523.298 626.745C512.307 624.712 500.045 618.599 486.831 608.791C473.709 599.051 460.326 586.177 447.134 571.56C420.728 542.301 396.063 507.174 376.654 478.9C374.696 476.047 372.784 473.254 370.926 470.539C363.686 459.96 357.261 450.572 352.05 443.462C348.793 439.018 345.732 435.077 343.046 432.155C341.725 430.719 340.174 429.174 338.48 427.896C337.311 427.014 333.788 424.427 328.899 424.427C320.841 424.427 312.878 428.388 306.418 432.495C299.508 436.887 292.211 442.842 285.048 449.389C270.682 462.518 255.686 479.112 243.661 493.406C210.423 532.915 181.518 567.047 153.769 584.21C140.252 592.57 128.176 596.121 116.86 595.056C105.662 594.003 93.2067 588.24 79.2365 573.984C50.7289 544.893 31.332 518.393 21.0795 494.661C10.925 471.155 10.0062 451.095 17.1595 433.604C24.432 415.822 40.9268 398.526 70.0116 382.62C99.0664 366.731 139.66 352.809 193.244 341.339Z" stroke="#439A86" stroke-width="25"/>
<path d="M303.551 288.934C288.161 270.99 303.993 248.976 316.5 248.002C329.007 247.029 334.383 259.637 339 269C344.771 280.703 322.789 311.366 303.551 288.934Z" stroke="#439A86" stroke-width="25"/>
<path d="M281.382 386.487C262.963 371.667 267.529 345.003 290.527 345C313.526 344.997 324.028 359.451 324.028 371.5C324.028 384.549 302.528 403.5 281.382 386.487Z" stroke="#439A86" stroke-width="25"/>
<path d="M375.82 383.283C366.799 361.431 370.072 338.905 388.768 342.351C407.465 345.797 421.159 368.246 414.964 378.798C408.357 390.051 383.463 401.798 375.82 383.283Z" stroke="#439A86" stroke-width="25"/>
<path d="M391.998 290.283C382.977 268.432 403.304 251.553 422 254.999C440.697 258.445 442.692 279.732 436.497 290.283C429.89 301.536 399.641 308.798 391.998 290.283Z" stroke="#439A86" stroke-width="25"/>
</svg>
