<svg width="180" height="180" viewBox="0 0 180 180" fill="none" xmlns="http://www.w3.org/2000/svg">
<path fill-rule="evenodd" clip-rule="evenodd" d="M29.3368 38.7842C35.6529 38.7842 40.7731 33.664 40.7731 27.3478C40.7731 21.0317 35.6529 15.9115 29.3368 15.9115C23.0206 15.9115 17.9004 21.0317 17.9004 27.3478C17.9004 33.664 23.0206 38.7842 29.3368 38.7842ZM29.3368 54.6957C44.4406 54.6957 56.6846 42.4516 56.6846 27.3478C56.6846 12.244 44.4406 0 29.3368 0C14.233 0 1.98893 12.244 1.98893 27.3478C1.98893 42.4516 14.233 54.6957 29.3368 54.6957Z" fill="#439A86"/>
<path fill-rule="evenodd" clip-rule="evenodd" d="M42.7621 27.8451C42.7621 23.4512 46.324 19.8893 50.7178 19.8893H172.043C176.437 19.8893 179.998 23.4512 179.998 27.8451C179.998 32.2389 176.437 35.8008 172.043 35.8008H50.7178C46.324 35.8008 42.7621 32.2389 42.7621 27.8451Z" fill="#439A86"/>
<path fill-rule="evenodd" clip-rule="evenodd" d="M90.9859 101.436C97.6778 101.436 102.764 96.1296 102.764 89.9992C102.764 83.8689 97.6778 78.5629 90.9859 78.5629C84.2941 78.5629 79.2077 83.8689 79.2077 89.9992C79.2077 96.1296 84.2941 101.436 90.9859 101.436ZM90.9859 117.347C106.279 117.347 118.676 105.103 118.676 89.9992C118.676 74.8954 106.279 62.6514 90.9859 62.6514C75.6933 62.6514 63.2962 74.8954 63.2962 89.9992C63.2962 105.103 75.6933 117.347 90.9859 117.347Z" fill="#439A86"/>
<path fill-rule="evenodd" clip-rule="evenodd" d="M0 90.4965C0 86.1026 3.5619 82.5407 7.95573 82.5407H65.3489C69.7427 82.5407 73.3046 86.1026 73.3046 90.4965C73.3046 94.8903 69.7427 98.4522 65.3489 98.4522H7.95573C3.5619 98.4522 0 94.8903 0 90.4965Z" fill="#439A86"/>
<path fill-rule="evenodd" clip-rule="evenodd" d="M106.695 90.4965C106.695 86.1026 110.257 82.5407 114.651 82.5407H172.044C176.438 82.5407 180 86.1026 180 90.4965C180 94.8903 176.438 98.4522 172.044 98.4522H114.651C110.257 98.4522 106.695 94.8903 106.695 90.4965Z" fill="#439A86"/>
<path fill-rule="evenodd" clip-rule="evenodd" d="M152.651 164.087C158.967 164.087 164.087 158.967 164.087 152.651C164.087 146.334 158.967 141.214 152.651 141.214C146.334 141.214 141.214 146.334 141.214 152.651C141.214 158.967 146.334 164.087 152.651 164.087ZM152.651 179.998C167.754 179.998 179.998 167.754 179.998 152.651C179.998 137.547 167.754 125.303 152.651 125.303C137.547 125.303 125.303 137.547 125.303 152.651C125.303 167.754 137.547 179.998 152.651 179.998Z" fill="#439A86"/>
<path fill-rule="evenodd" clip-rule="evenodd" d="M1.98893 153.148C1.98893 148.754 5.55084 145.192 9.94467 145.192H128.286C132.68 145.192 136.242 148.754 136.242 153.148C136.242 157.542 132.68 161.104 128.286 161.104H9.94467C5.55084 161.104 1.98893 157.542 1.98893 153.148Z" fill="#439A86"/>
</svg>
