<svg width="512" height="512" viewBox="0 0 512 512" fill="none" xmlns="http://www.w3.org/2000/svg">
<g clip-path="url(#clip0_702_1883)">
<path d="M508.475 99.4082C506.05 96.8842 502.629 95.4932 498.844 95.4932C494.913 95.4932 490.758 96.9732 486.853 99.0602C486.655 98.1642 486.439 97.3002 486.203 96.4712C482.709 84.1402 475.668 82.1132 471.783 82.0012L471.429 81.9962C469.006 81.9962 456.5 81.2377 447 86.9272C388.643 121.877 383.445 87.445 342 80C282.968 69.395 237.147 68.829 178 79.997C144.938 86.2397 123 94.4963 96.0372 121.823C86.4906 131.499 94 101.999 81.4772 92.0452C67.9427 81.2874 44.3982 89.4102 43.1072 89.2762C42.6462 89.2282 40.6512 88.7002 40.1662 88.7002C39.9202 88.7002 39.6762 88.7072 39.4292 88.7222C35.5482 88.9542 28.5742 91.2002 25.4652 103.633C25.2552 104.469 25.0662 105.34 24.8962 106.241C21.0972 104.36 17.0862 103.041 13.3072 103.041C9.30724 103.041 5.75224 104.539 3.29624 107.261C-4.05976 115.411 1.06224 128.866 17.0002 143.255C20.6062 146.51 24.3832 149.377 28.0342 151.651C28.0772 174.569 32.2792 196.285 40.2892 214.79C49.7872 236.733 64.0952 253.496 82.8682 264.693C84.5142 282.409 88.1812 300.966 94.0312 321.232C102.614 350.971 112.574 362.37 120.294 368.98C122.47 370.841 124.788 372.532 127.187 374.004C139.584 381.61 153.381 383.218 166.786 384.616C163.805 388.845 162.092 394.006 162.178 399.512C162.285 406.356 165.159 412.564 169.714 417.067C165.104 421.898 162.624 428.226 162.728 434.911C162.941 448.634 174.279 459.798 188.001 459.798L195.994 459.677C201.384 466.316 208.332 471.095 216.099 474.709C228.417 480.464 243.148 483.382 259.882 483.382C284.496 483.624 311.94 479.613 329.817 461.334C330.918 460.153 332.046 458.844 333.045 457.547L337.033 457.485C343.786 457.38 350.092 454.651 354.792 449.803C359.493 444.955 362.023 438.566 361.919 431.814C361.813 424.981 358.964 418.774 354.415 414.269C358.839 409.626 361.476 403.31 361.369 396.415C361.286 391.097 359.581 386.133 356.659 382.055C357.389 381.955 361.087 381.452 361.087 381.452C367.097 380.652 374.332 379.48 379.525 378.103C409.287 372.102 424.561 343.453 430.658 315.999C436.306 293.868 439.468 273.757 440.287 254.702C456.467 242.44 468.539 225.543 476.208 204.402C482.694 186.524 485.75 165.945 485.129 144.545C488.708 142.158 492.394 139.175 495.897 135.809C501.309 130.61 505.827 124.937 508.619 119.835C514.768 108.592 511.167 102.211 508.475 99.4082Z" fill="white"/>
<path d="M109.559 253.598C65.5768 235.747 50.8048 189.763 52.1008 145.787C56.2708 143.32 61.5538 138.055 66.3278 131.2C74.0428 120.122 77.4718 109.173 73.9868 106.745C70.5018 104.317 61.4208 111.331 53.7058 122.41C53.4768 122.739 53.2638 123.066 53.0428 123.395C53.0278 123.093 53.0208 122.797 53.0028 122.493C52.1968 109.017 48.1058 98.2973 43.8658 98.5513C39.6258 98.8053 36.8428 109.935 37.6488 123.411C37.6708 123.783 37.7048 124.144 37.7318 124.511C27.7168 115.476 17.2968 110.707 14.4528 113.858C11.6068 117.011 17.4238 126.9 27.4448 135.946C32.4648 140.478 37.5878 143.937 41.8088 145.866C40.3898 193.188 57.3718 243.442 104.499 262.57C110.579 265.038 115.696 256.088 109.559 253.598Z" fill="#083200"/>
<path d="M505.223 106.23C502.282 103.169 492.015 108.26 482.286 117.602C482.302 117.234 482.324 116.872 482.335 116.5C482.722 103.005 479.594 91.9668 475.348 91.8448C471.102 91.7228 467.347 102.564 466.96 116.059C466.951 116.364 466.954 116.66 466.948 116.962C466.717 116.641 466.494 116.32 466.255 115.998C458.199 105.165 448.905 98.4368 445.497 100.971C442.089 103.505 445.856 114.343 453.912 125.176C458.896 131.88 464.34 136.977 468.585 139.314C471.247 183.229 457.912 229.649 414.506 248.858C408.45 251.538 413.842 260.325 419.842 257.669C466.351 237.086 481.763 186.328 478.874 139.073C483.033 137.014 488.045 133.397 492.923 128.711C502.659 119.358 508.166 109.293 505.223 106.23Z" fill="#083200"/>
<path d="M431.697 212.066C427.14 186.584 416.249 161.721 398.733 142.466C369.486 110.314 329.998 107.42 289.14 106.29C282.891 106.117 276.639 106.054 270.388 106.055L270.386 105.957C267.886 105.984 265.388 106.071 262.888 106.122C260.388 106.148 257.888 106.139 255.388 106.19L255.39 106.288C249.141 106.482 242.895 106.739 236.654 107.106C195.851 109.505 156.471 113.625 128.238 146.67C111.329 166.461 101.216 191.651 97.4527 217.261C92.4857 251.067 97.8627 285.673 107.338 318.503C112.567 336.622 120.11 355.751 136.184 365.613C148.997 373.475 164.801 373.93 179.729 375.699C182.986 376.085 186.619 376.769 188.483 379.468C189.387 380.777 189.729 382.383 190.018 383.947C192.555 397.662 192.561 411.76 195.274 425.441C197.987 439.122 203.984 452.977 215.477 460.879C229.944 470.825 249.467 474.151 268.597 473.45C287.739 473.557 307.15 469.625 321.3 459.234C332.542 450.979 338.106 436.944 340.392 423.185C342.678 409.426 342.246 395.335 344.356 381.548C344.597 379.975 344.889 378.359 345.752 377.023C347.532 374.267 351.141 373.471 354.385 372.984C369.252 370.752 385.033 369.806 397.596 361.55C413.356 351.193 420.3 331.839 424.964 313.566C433.414 280.458 437.712 245.702 431.697 212.066Z" fill="#FDAE54"/>
<path d="M397.596 361.55C411.901 352.15 418.934 335.337 423.6 318.649C394.684 313.246 365.043 311.161 335.6 311.282C307.286 311.398 278.703 313.457 250.854 308.337C223.006 303.218 195.206 289.692 180.308 265.614C171.28 251.024 167.648 233.71 166.185 216.615C164.114 192.42 166.076 168.082 168.038 143.879C168.739 135.221 169.441 126.564 170.143 117.906C154.626 123.581 140.397 132.439 128.238 146.67C111.329 166.461 101.216 191.651 97.4527 217.261C92.4857 251.068 97.8627 285.673 107.338 318.503C112.567 336.622 120.11 355.751 136.184 365.613C148.997 373.475 164.801 373.93 179.729 375.699C182.986 376.085 186.619 376.769 188.483 379.468C189.387 380.777 189.729 382.383 190.019 383.947C192.556 397.662 192.562 411.76 195.275 425.441C197.988 439.122 203.985 452.977 215.478 460.879C229.945 470.825 249.469 474.151 268.598 473.45C287.74 473.557 307.151 469.625 321.301 459.234C332.543 450.979 338.107 436.944 340.393 423.185C342.679 409.426 342.247 395.335 344.357 381.548C344.598 379.975 344.89 378.359 345.753 377.023C347.533 374.267 351.142 373.471 354.386 372.984C369.251 370.752 385.033 369.806 397.596 361.55Z" fill="#FCB94C"/>
<path d="M392.148 157.373C375.326 138.256 297.003 92.0932 293.181 146.909C292.251 160.266 299.187 173.028 307.964 183.14C316.741 193.252 327.459 201.521 336.391 211.496C352.704 229.713 362.353 252.74 373.787 274.356C376.909 280.258 381.413 286.856 388.09 286.891C391.775 286.911 395.134 284.811 397.953 282.437C409.853 272.418 415.751 256.796 417.762 241.371C421.665 211.449 412.083 180.026 392.148 157.373Z" fill="#FFC064"/>
<path d="M210.47 218.32C216.756 218.222 221.739 210.892 221.601 201.946C221.462 193.001 216.254 185.828 209.968 185.925C203.682 186.023 198.698 193.353 198.837 202.299C198.976 211.245 204.184 218.417 210.47 218.32Z" fill="#083200"/>
<path d="M326.286 200.306C326.425 209.251 321.442 216.582 315.156 216.68C308.87 216.778 303.661 209.605 303.522 200.66C303.383 191.715 308.366 184.384 314.652 184.286C320.939 184.189 326.147 191.361 326.286 200.306Z" fill="#083200"/>
<path d="M314.655 184.286C313.079 184.311 311.586 184.79 310.234 185.635C315.295 191.114 320.842 196.133 326.269 201.267C326.277 200.947 326.293 200.63 326.288 200.306C326.149 191.361 320.941 184.189 314.655 184.286Z" fill="#5BB749"/>
<path d="M236.089 201.707C237.576 215.871 245.98 227.123 260.915 227.869C275.673 228.607 286.42 215.896 289.008 202.533C289.705 198.933 284.184 197.491 283.484 201.102C278.584 226.4 244.741 229.719 241.791 201.618C241.412 197.99 235.704 198.047 236.089 201.707Z" fill="#083200"/>
<path d="M230.675 331.901C237.471 332.876 244.384 333.458 251.294 333.596C255.072 356.366 256.412 379.909 255.928 403.089L264.628 402.954C264.748 382.098 263.406 361.243 260.488 340.424C260.178 338.21 259.858 335.896 259.53 333.539C265.317 333.324 271.062 332.731 276.705 331.722C275.236 353.589 274.645 375.552 274.447 397.114C274.429 399.01 274.475 400.905 274.476 402.801L283.898 402.654C283.845 378.209 285.024 353.768 286.923 329.361C299.299 325.842 310.912 319.977 320.906 310.938C338.953 294.616 349.683 261.628 330.553 242.241C323.718 235.314 311.037 235.556 303.132 240.253C289.991 248.062 285.249 260.937 282.89 275.492C280.413 290.774 278.658 306.334 277.403 321.981C272.596 323.003 267.79 323.709 263.143 324.065C261.534 324.188 259.885 324.29 258.209 324.37C254.046 296.657 246.975 263.589 225.539 247.285C203.564 230.57 178.728 255.048 176.343 277.048C172.636 311.225 200.607 327.585 230.675 331.901ZM290.505 290.051C291.955 275.97 292.835 259.35 305.024 249.957C324.964 234.591 333.069 263.112 330.12 277.878C325.768 299.671 307.733 312.706 287.75 319.208C288.581 309.482 289.505 299.762 290.505 290.051ZM200.222 254.047C219.443 241.826 232.443 268.647 237.673 282.256C242.858 295.748 246.798 309.947 249.674 324.539C227.04 324.416 201.5 319.241 189.086 300.189C179.616 285.653 186.255 262.927 200.222 254.047Z" fill="#FFCA6C"/>
<path d="M199.883 440.694C203.311 448.742 208.329 455.963 215.478 460.878C229.945 470.824 249.469 474.15 268.598 473.449C287.74 473.556 307.151 469.624 321.301 459.233C328.294 454.098 333.085 446.724 336.262 438.574L199.883 440.694Z" fill="#5BB749"/>
<path d="M340.178 412.244L191.542 414.554C183.019 414.687 176.002 407.884 175.869 399.361C175.737 390.838 182.539 383.821 191.062 383.688L339.697 381.377C348.22 381.245 355.237 388.047 355.37 396.57C355.503 405.094 348.701 412.111 340.178 412.244Z" fill="#083200"/>
<path d="M340.728 447.644L192.093 449.955C183.57 450.087 176.553 443.285 176.42 434.762C176.288 426.239 183.09 419.222 191.613 419.089L340.248 416.779C348.772 416.646 355.788 423.449 355.921 431.972C356.054 440.495 349.251 447.512 340.728 447.644Z" fill="#083200"/>
</g>
<defs>
<clipPath id="clip0_702_1883">
<rect width="512" height="512" fill="white"/>
</clipPath>
</defs>
</svg>
