<svg width="180" height="180" viewBox="0 0 180 180" fill="none" xmlns="http://www.w3.org/2000/svg">
<path fill-rule="evenodd" clip-rule="evenodd" d="M39 91C39 86.5817 42.5817 83 47 83H149C153.418 83 157 86.5817 157 91C157 95.4183 153.418 99 149 99H47C42.5817 99 39 95.4183 39 91Z" fill="#439A86"/>
<path fill-rule="evenodd" clip-rule="evenodd" d="M27.5 102C33.8513 102 39 96.8513 39 90.5C39 84.1487 33.8513 79 27.5 79C21.1487 79 16 84.1487 16 90.5C16 96.8513 21.1487 102 27.5 102ZM27.5 118C42.6878 118 55 105.688 55 90.5C55 75.3122 42.6878 63 27.5 63C12.3122 63 0 75.3122 0 90.5C0 105.688 12.3122 118 27.5 118Z" fill="#439A86"/>
<path d="M180 89.5C180 104.688 167.688 117 152.5 117C137.312 117 125 104.688 125 89.5C125 74.3122 137.312 62 152.5 62C167.688 62 180 74.3122 180 89.5Z" fill="#439A86"/>
<path fill-rule="evenodd" clip-rule="evenodd" d="M152.5 101C158.851 101 164 95.8513 164 89.5C164 83.1487 158.851 78 152.5 78C146.149 78 141 83.1487 141 89.5C141 95.8513 146.149 101 152.5 101ZM152.5 117C167.688 117 180 104.688 180 89.5C180 74.3122 167.688 62 152.5 62C137.312 62 125 74.3122 125 89.5C125 104.688 137.312 117 152.5 117Z" fill="#439A86"/>
</svg>
