<svg width="512" height="512" viewBox="0 0 512 512" fill="none" xmlns="http://www.w3.org/2000/svg">
<g clip-path="url(#clip0_702_2283)">
<path d="M460.381 207.98C467.645 211.048 474.568 214.792 481.068 219.173C494.933 228.517 496.841 239.08 495.999 246.294C495.203 253.151 491.2 262.636 476.665 268.87C472.47 270.67 468.136 272.207 463.698 273.468C462.751 281.203 461.074 288.81 458.683 296.199C455.247 306.821 449.812 312.47 444.444 315.404C442.389 323.987 438.747 332.246 433.654 339.773C428.54 347.334 422.282 355.727 415.272 360.756C413.42 362.085 411.465 363.77 411.168 364.27C410.43 365.513 406.438 368.422 406 369C405.607 369.519 406 371.5 402.5 374.5C399 377.5 404.5 378 403 381.5C401.5 385 398 384 397 386C396 388 397.778 390.5 396 392.5C394.222 394.5 395.5 396 391.5 398C387.5 400 390.5 400 388.5 404.5C386.5 409 382 407.5 380.5 410.5C379 413.5 377.5 414.5 376 416.5C374.5 418.5 376 422.5 373.5 424C371 425.5 372.5 430 369 433C365.5 436 360.323 433.813 355.5 436.819C350.677 439.825 349.5 442.404 336 436.819C322.5 431.234 320.297 448.318 314.399 446.752C308.5 445.186 300.968 445.085 295 452.085C289.032 459.085 287.423 463.676 277.574 462.999L277.576 462.992C272.113 462.014 267.217 458.763 264.475 453.854C255.901 463.549 237.942 460.247 233.798 447.703C229.067 452.72 220.918 454.616 214.275 452.085C204.824 448.662 193.426 447.764 190.053 436.819C181.375 440.294 170.503 435.4 167.111 426.917C159.21 429.89 149.764 426.414 145.531 419.369C139.096 418.706 133.262 414.358 130.714 408.418C121.438 407.924 114.439 400.408 107.905 394.645L107.907 394.641C105.474 391.876 103.755 388.53 103.269 384.854C96.2416 383.622 90.3226 378.881 87.8646 372.273C79.8366 368.946 75.2786 359.278 77.4496 351.18C74.7466 350.451 72.1806 349.329 69.9036 347.831C59.1806 340.885 66.168 337.77 55.168 341.77C53.0453 342.541 50.668 344.77 49.668 343.77C44.67 336.027 38.766 345.386 40.168 336.27C34.413 333.442 27.5376 329.135 23.7706 317.701C21.1786 309.843 19.3656 301.736 18.3446 293.477C13.5266 292.162 8.82459 290.537 4.27459 288.611C-10.6484 282.308 -14.7964 272.665 -15.6464 265.685C-16.5394 258.344 -14.6334 247.567 -0.485411 237.915C6.62659 233.071 14.2206 228.958 22.2046 225.628C22.7046 219.048 23.7286 212.57 25.2666 206.263C29.2386 189.965 38.3246 184.374 45.2456 182.552C47.2366 182.03 49.2896 181.764 51.3476 181.764C59.8056 181.764 67.8306 186.079 75.1996 194.586C78.7656 198.708 82.1106 203.087 85.2066 207.685C91.3116 206.722 97.4676 206.199 103.615 206.125C103.993 204.92 104.387 203.717 104.794 202.52C97.7306 199.272 89.3856 191.658 88.0466 173.847C87.2996 163.94 87.5896 153.968 88.9076 144.058C83.4426 141.096 78.2276 137.76 73.3166 134.075C59.3526 123.606 57.4976 112.619 58.4026 105.245C59.3566 97.477 64.1256 86.877 81.4366 80.46C91.0496 76.899 101.039 74.376 111.256 72.922C113.679 65.306 116.73 57.974 120.371 51.022C128.764 35 139.535 31.515 147.092 31.413C147.166 31.411 147.358 31.411 147.434 31.411C155.26 31.411 166.385 34.948 174.951 51.801C177.706 57.222 180.157 62.86 182.282 68.665C185.556 67.201 188.957 66.117 192.397 65.446C192.843 59.033 193.988 52.343 196.558 45.772C205.626 22.599 231.096 6.61597 261.448 5.05397C263.192 4.96497 264.942 4.91797 266.697 4.91797C281.332 4.91797 294.2 8.12297 304.942 14.444C313.552 19.509 320.499 26.623 325.138 34.761C326.337 34.486 327.579 34.343 328.842 34.343H328.903C332.529 34.356 335.954 35.546 338.741 37.614C351.785 38.597 363.798 43.339 372.987 51.215C378.513 55.951 382.92 61.981 385.945 68.671L410.802 57.313C416.564 54.676 423.319 55.55 428.224 59.559C433.129 63.568 435.327 70.015 433.895 76.184L420.723 132.911L454.861 140.151C461.285 141.514 466.305 146.534 467.668 152.96C469.031 159.384 466.48 166.009 461.162 169.862L452.408 176.204C455.268 180.06 457.624 185.394 458.823 192.763C459.637 197.755 460.156 202.841 460.381 207.98Z" fill="white"/>
<path d="M236.683 98.8077C235.559 93.0597 229.221 90.1257 223.599 88.4857C211.539 84.9677 198.961 83.2757 186.399 83.3937C183.863 73.9247 180.384 64.7347 175.975 56.0587C173.2 50.5977 169.009 44.6757 163.153 44.7547C157.587 44.8297 153.617 50.3237 150.926 55.4617C146.069 64.7337 142.453 74.7167 140.119 85.0297C127.47 85.7787 114.931 88.3667 103.049 92.7697C97.5577 94.8047 91.4437 98.1817 90.7307 103.995C90.0527 109.521 94.6677 114.173 99.1217 117.512C106.565 123.093 114.726 127.696 123.319 131.259C120.492 143.718 119.493 156.591 120.451 169.331C120.89 175.171 122.446 181.979 127.836 184.271C132.959 186.449 138.705 183.298 143.145 179.94C151.717 173.457 159.315 165.708 165.684 157.053C172.653 165.234 180.781 172.425 189.791 178.282C194.458 181.317 200.413 184.051 205.369 181.515C210.583 178.847 211.652 171.945 211.675 166.089C211.725 153.313 209.816 140.543 206.112 128.317C214.43 124.153 222.244 118.983 229.272 112.887C233.478 109.24 237.751 104.272 236.683 98.8077Z" fill="#FDAE54"/>
<path d="M495.327 241.103C495.887 236.292 491.632 232.387 487.616 229.681C479 223.876 469.517 219.38 459.592 216.313C459.976 208.216 459.547 200.101 458.255 192.157C457.442 187.157 455.63 181.438 450.997 180.027C446.593 178.686 442.084 182.015 438.672 185.386C432.514 191.468 427.154 198.424 422.722 205.961C412.569 203.37 402.04 202.255 391.572 202.735C386.734 202.957 381.068 204.079 379.045 208.479C377.121 212.662 379.587 217.487 382.255 221.238C386.715 227.507 391.986 233.185 397.859 238.153C392.498 247.257 388.474 257.147 386.024 267.424C384.901 272.135 384.414 277.89 388.084 281.051C391.572 284.055 396.891 283.019 401.233 281.49C409.616 278.539 417.551 274.345 424.746 269.129C428.178 277.327 432.773 285.036 438.398 291.917C441.311 295.482 445.315 299.133 449.856 298.382C454.634 297.592 457.212 292.423 458.704 287.816C461.957 277.764 463.665 267.224 463.822 256.661C471.422 255.473 478.878 253.365 485.948 250.331C490.178 248.514 494.794 245.675 495.327 241.103Z" fill="#00B9D9"/>
<path d="M138.554 225.508C136.405 220.901 130.452 219.755 125.372 219.549C114.476 219.108 103.526 220.313 92.9683 223.04C88.8513 215.593 83.9983 208.579 78.4693 202.192C74.9893 198.172 70.2203 194.06 65.3033 195.351C60.6293 196.579 58.4343 202.037 57.2423 206.928C55.0903 215.754 54.1323 224.921 54.3223 234.097C43.8233 237.374 33.8013 242.177 24.7123 248.372C20.5123 251.235 16.0673 255.358 16.6823 260.405C17.2673 265.202 22.1273 268.156 26.5783 270.037C34.0163 273.182 41.8533 275.352 49.8383 276.557C50.0623 287.644 51.9143 298.698 55.3853 309.23C56.9763 314.058 59.7113 319.468 64.7313 320.271C69.5023 321.034 73.6843 317.178 76.7223 313.421C82.5873 306.167 87.3673 298.049 90.9233 289.425C98.5053 294.859 106.857 299.217 115.673 302.267C120.239 303.847 125.828 304.905 129.473 301.733C133.307 298.395 132.764 292.357 131.559 287.418C128.929 276.645 124.65 266.286 118.972 256.761C125.109 251.513 130.609 245.523 135.256 238.918C138.036 234.967 140.596 229.887 138.554 225.508Z" fill="#24D0A5"/>
<path d="M191.792 134.192C185.278 121.994 183.58 106.622 189.991 94.37C196.402 82.117 211.97 74.556 224.873 79.529C224.439 69.085 224.06 58.287 227.869 48.553C235.4 29.304 257.495 19.438 278.138 18.376C289.939 17.769 302.166 19.5 312.351 25.491C322.536 31.482 330.352 42.226 330.789 54.034C346.457 48.389 365.366 49.723 378.012 60.561C390.657 71.399 394.298 92.572 383.434 105.194C398.35 108.59 410.005 122.983 410.226 138.279C410.446 153.575 399.21 168.298 384.398 172.122" fill="#671EA5"/>
<path d="M212.094 128.339C224.629 113.511 244.929 105.649 264.181 108.168C273.131 109.339 282.485 113.201 286.806 121.126C302.697 115.462 322.167 122.857 330.293 137.641" fill="#00B9D9"/>
<path d="M300.773 154.913L344.674 47.6875L365.686 100.159L433.542 69.1555L416.538 142.379L467.244 153.135L377.695 218.01L300.773 154.913Z" fill="#FDAE54"/>
<path d="M131.102 224.741C135.949 198.309 148.449 173.326 166.698 153.6C172.804 146.999 179.58 140.945 187.279 136.298C202.307 127.227 219.298 121.856 236.774 122.415C255.236 123.007 271.556 121.358 287.961 132.119C289.441 133.09 299.524 130.135 301.785 129.957C307.017 129.546 312.28 129.591 317.509 130.023C326.876 130.797 335.023 133.25 343.678 136.397C362.523 143.251 377.699 152.942 390.131 169.056C409.663 194.374 416.438 235.582 410.073 266.268" fill="#7920BB"/>
<path d="M147.661 313.151C172.221 308.328 188.035 283.568 182.985 257.848C177.934 232.128 153.93 215.187 129.371 220.01C104.812 224.833 88.9968 249.593 94.0475 275.313C99.0982 301.033 123.102 317.974 147.661 313.151Z" fill="#EADF44"/>
<path d="M144.5 293.701C145.025 293.687 145.537 289.988 145.259 283.958C144.961 277.97 143.771 269.486 139.811 260.917C135.842 252.332 129.631 245.976 124.37 242.769C119.093 239.481 115.198 238.987 115.077 239.44C114.855 240.036 118.26 241.474 122.713 245.089C127.179 248.641 132.485 254.699 136.157 262.619C139.833 270.559 141.422 278.509 142.426 284.271C143.413 290.055 143.913 293.721 144.5 293.701Z" fill="#963287"/>
<path d="M128.589 293.672C129.122 293.377 128.336 291.166 127.582 287.63C126.812 284.098 126.263 279.151 126.902 273.746C127.574 268.345 129.29 263.674 130.883 260.43C132.461 257.177 133.753 255.218 133.306 254.805C132.951 254.456 130.842 255.777 128.45 258.945C127.245 260.515 126.072 262.58 125.048 265.001C124.076 267.439 123.286 270.243 122.9 273.26C122.553 276.282 122.649 279.194 123.01 281.794C123.425 284.39 124.07 286.675 124.864 288.488C126.428 292.137 128.16 293.926 128.589 293.672Z" fill="#963287"/>
<path d="M427.589 259.448C418.6 253.367 407.86 251.496 397.29 253.303C397.279 253.205 397.262 253.108 397.25 253.01C356.196 259.377 355.668 215.432 355.668 215.432C272.591 215.51 248.93 147.895 248.93 147.895C211.99 195.739 173.74 205.127 151.223 205.763C143.188 220.082 137.875 236.23 136.159 253.617L133.879 276.726C127.229 344.13 176.479 404.162 243.883 410.812L261.138 412.514C311.367 417.47 357.487 391.372 380.489 349.863C399.565 355.622 422.379 346.922 435.724 327.194C451.678 303.61 448.035 273.28 427.589 259.448Z" fill="#F9FF52"/>
<path d="M389.171 246.319C388.84 241.092 387.813 236.155 386.413 231.347C384.044 223.21 380.607 215.442 377.665 207.262C374.795 199.279 372.333 191.912 365.788 186.138C343.712 166.663 310.654 162.796 285.843 147.527C273.014 147.643 260.18 147.946 247.346 147.728C245.262 149.54 242.794 151.021 240.06 152.061C239.517 152.268 234.744 154.228 235.543 153.842C234.29 154.392 233.035 154.939 231.796 155.521C228.143 157.236 224.542 159.043 220.975 160.93C214.631 164.285 207.187 164.103 201.445 160.585C200.435 161.215 199.416 161.829 198.411 162.468C197.265 163.196 196.127 163.761 194.998 164.217C193.38 167.003 191.088 169.494 188.283 171.472C174.573 181.143 163.917 193.905 151.656 205.312C152.749 206.379 154.967 207.599 159.233 208.965C171.836 213.001 186.17 209.082 198.303 205.19C207.062 202.38 215.472 198.463 223.239 193.532C230.292 189.054 234.607 182.603 241.32 177.653C250.065 196.429 265.893 211.802 284.917 219.995C303.941 228.188 325.986 229.126 345.637 222.578C348.113 231.597 352.677 240.313 359.987 246.148C367.297 251.983 377.633 254.485 386.316 251.01C387.256 250.634 388.223 250.147 388.743 249.278C389.264 248.409 389.235 247.329 389.171 246.319Z" fill="#EADF44"/>
<path d="M237.861 293.682C237.993 293.434 237.307 292.787 235.999 291.806C234.703 290.817 232.751 289.516 230.716 287.664C228.694 285.835 226.673 283.268 225.97 280.022C225.627 278.429 225.685 276.753 226.314 275.24C226.933 273.719 228.137 272.331 229.707 271.251C232.877 269.031 236.825 268.543 240.537 268.426C244.254 268.324 247.818 268.474 250.838 268.106C253.857 267.788 256.284 266.996 257.797 266.177C259.319 265.351 259.958 264.607 259.826 264.385C259.527 263.886 256.321 265.427 250.689 265.26C247.881 265.255 244.508 264.821 240.518 264.713C238.526 264.676 236.368 264.746 234.116 265.182C231.843 265.616 229.51 266.493 227.417 267.936C225.329 269.368 223.547 271.391 222.639 273.797C221.711 276.205 221.775 278.77 222.362 280.901C223.547 285.221 226.438 288.134 228.928 289.884C231.464 291.662 233.7 292.602 235.251 293.186C236.811 293.753 237.732 293.925 237.861 293.682Z" fill="#963287"/>
<path d="M257.119 287.052C256.413 286.191 254.417 286.662 252.661 288.102C250.905 289.543 250.054 291.408 250.76 292.269C251.466 293.13 253.462 292.659 255.218 291.219C256.974 289.778 257.825 287.913 257.119 287.052Z" fill="#963287"/>
<path d="M270.585 298.297C270.067 297.956 268.17 300.4 264.415 303.344C260.715 306.289 254.859 309.597 247.799 310.556C240.737 311.499 234.215 309.859 229.868 307.998C225.468 306.152 222.992 304.297 222.583 304.763C222.239 305.104 224.102 307.82 228.576 310.538C232.961 313.245 240.244 315.632 248.338 314.55C256.429 313.452 262.821 309.223 266.334 305.451C269.929 301.647 271.006 298.534 270.585 298.297Z" fill="#963287"/>
<path d="M203.642 261.332C202.853 261.109 201.294 265.882 196.449 271.966C194.035 274.944 190.802 278.477 186.839 281.4C184.853 282.834 182.635 284.046 180.243 284.676C177.849 285.315 175.254 285.386 172.98 284.594C168.323 283.01 165.522 278.038 163.973 273.382C162.421 268.663 161.74 263.907 161.321 260.061C160.544 252.274 161.454 247.36 160.669 247.164C160.04 246.941 157.712 251.773 157.523 260.201C157.487 264.399 157.746 269.308 159.239 274.837C160.014 277.572 161.124 280.453 163.006 283.177C164.824 285.9 167.67 288.431 171.219 289.672C174.801 290.906 178.496 290.674 181.667 289.746C184.884 288.805 187.599 287.137 189.843 285.338C194.297 281.665 197.299 277.718 199.564 274.144C204.015 266.884 204.291 261.42 203.642 261.332Z" fill="#963287"/>
<path d="M339.119 260.676C338.243 260.663 338.376 266.358 335.19 274.329C333.59 278.26 331.029 282.721 327.003 286.408C323.062 290.079 317.46 292.813 311.277 293.382C298.498 294.911 289.591 284.611 285.275 277.644C280.82 270.29 280.245 264.637 279.38 264.756C279.035 264.784 278.742 266.217 278.939 268.816C279.146 271.4 279.907 275.171 281.923 279.437C283.917 283.699 287.156 288.425 291.989 292.551C294.403 294.607 297.426 296.474 300.861 297.576C304.283 298.658 308.025 299.082 311.763 298.734C319.257 298.049 325.931 294.575 330.446 289.966C334.991 285.388 337.493 280.075 338.781 275.569C340.072 271.027 340.265 267.213 340.103 264.633C339.927 262.043 339.463 260.662 339.119 260.676Z" fill="#963287"/>
<path d="M352.287 270.89C352.206 270.04 348.528 269.695 344.072 270.119C339.616 270.543 336.069 271.575 336.15 272.424C336.231 273.273 339.909 273.619 344.365 273.195C348.82 272.771 352.368 271.739 352.287 270.89Z" fill="#963287"/>
<path d="M350.475 283.26C350.773 282.46 347.376 280.639 342.888 279.193C338.4 277.748 334.578 277.244 334.354 278.068C334.129 278.891 337.526 280.713 341.941 282.135C346.356 283.556 350.178 284.059 350.475 283.26Z" fill="#963287"/>
<path d="M340.647 295.578C341.341 295.082 340.21 292.309 338.12 289.384C336.03 286.46 333.773 284.491 333.079 284.987C332.385 285.483 333.516 288.256 335.606 291.181C337.695 294.105 339.952 296.074 340.647 295.578Z" fill="#963287"/>
<path d="M160.611 258.778C160.692 257.928 156.843 256.711 152.014 256.059C147.186 255.408 143.152 255.562 143.004 256.403C142.856 257.243 146.705 258.461 151.6 259.122C156.497 259.782 160.531 259.628 160.611 258.778Z" fill="#963287"/>
<path d="M161.384 266.535C161.346 265.694 157.716 265.184 153.356 265.98C148.994 266.764 145.774 268.516 146.034 269.317C146.295 270.141 149.765 269.763 153.908 269.02C158.047 268.262 161.428 267.398 161.384 266.535Z" fill="#963287"/>
<path d="M162.569 276.15C162.237 275.38 158.612 276.224 154.865 278.707C151.109 281.177 148.909 284.178 149.486 284.786C150.076 285.422 153.051 283.594 156.567 281.286C160.071 278.96 162.921 276.943 162.569 276.15Z" fill="#963287"/>
<path d="M209.714 210.639C209.847 209.583 207.237 208.149 202.63 207.527C198.054 206.893 191.49 207.311 184.778 209.704C178.072 212.113 172.733 215.954 169.598 219.348C166.431 222.753 165.323 225.517 166.097 226.248C167.807 227.81 175.903 221.309 187.494 217.294C199.001 213.043 209.383 212.932 209.714 210.639Z" fill="#963287"/>
<path d="M342.702 231.758C343.465 231.028 342.142 228.046 338.532 224.405C336.743 222.578 334.34 220.685 331.461 218.892C328.559 217.147 325.166 215.533 321.432 214.33C317.686 213.164 313.983 212.53 310.605 212.285C307.219 212.094 304.164 212.258 301.649 212.721C296.601 213.619 293.803 215.295 294.006 216.332C294.474 218.61 306.013 217.75 318.997 222.016C332.069 226.004 341.007 233.351 342.702 231.758Z" fill="#963287"/>
<path d="M338.532 224.405C336.743 222.579 334.34 220.685 331.461 218.892C328.559 217.147 325.166 215.533 321.432 214.33C317.686 213.163 313.983 212.529 310.605 212.285C307.218 212.094 304.164 212.258 301.649 212.721C296.601 213.619 293.803 215.295 294.006 216.332C294.474 218.61 306.013 217.75 318.997 222.016C322.933 223.217 326.485 224.722 329.586 226.196C332.641 225.811 335.675 225.267 338.669 224.553C338.62 224.502 338.581 224.455 338.532 224.405Z" fill="#933276"/>
<path d="M352.444 351.653C357.187 332.148 345.22 312.492 325.716 307.748C306.211 303.005 286.554 314.972 281.811 334.477C277.068 353.981 289.034 373.638 308.539 378.381C328.044 383.124 347.701 371.158 352.444 351.653Z" fill="#EAEA24"/>
<path d="M147.497 295.793C142.666 295.316 137.969 295.828 133.586 297.131C135.279 322.322 144.686 345.707 159.657 364.687C170.699 359.366 178.806 348.622 180.097 335.531C182.069 315.555 167.473 297.764 147.497 295.793Z" fill="#EAEA24"/>
<path d="M287.502 145.311L270.247 143.609C220.222 138.673 174.279 164.545 151.184 205.761C173.695 205.135 211.97 195.764 248.931 147.892C248.931 147.892 272.592 215.507 355.669 215.429C355.669 215.429 356.196 259.374 397.251 253.007C390.701 196.976 345.939 151.077 287.502 145.311Z" fill="#7920BB"/>
<path d="M422.093 319.476C426.319 309.258 429.462 291.619 422.034 281.846C415.325 273.019 400.61 282.107 395.117 287.812C386.009 297.273 379.796 302.403 379.065 316.689C378.618 325.42 375.322 339.498 384.452 344.242C389.814 347.028 396.473 345.834 401.86 343.098C411.301 338.304 418.046 329.262 422.093 319.476Z" fill="#EADF44"/>
<path d="M416.002 276.118C416.058 275.709 411.02 274.887 403.616 277.799C396.296 280.586 387.207 287.778 381.913 298.709C376.678 309.609 376.011 320.68 376.394 328.278C376.806 335.964 378.087 340.549 378.582 340.482C379.19 340.414 378.922 335.721 379.245 328.274C379.587 320.881 380.709 310.506 385.541 300.469C390.384 290.486 398.333 283.609 404.797 280.394C411.298 277.059 416.07 276.805 416.002 276.118Z" fill="#963287"/>
<path d="M400.696 331.426C401.198 331.586 402.621 329.283 404.14 325.115C404.875 323.026 405.613 320.431 405.87 317.376C406.153 314.344 405.796 310.783 404.271 307.386C402.701 304.051 400.311 301.396 397.75 299.625C395.2 297.822 392.536 296.807 390.246 296.386C385.586 295.567 382.825 296.838 382.949 297.291C383.03 297.911 385.725 297.766 389.504 299.138C393.209 300.467 398.12 303.708 400.607 309.067C403.027 314.391 402.075 320.296 401.383 324.389C400.624 328.552 400.138 331.25 400.696 331.426Z" fill="#963287"/>
<path d="M307.398 202.113C306.21 201.516 305.027 200.921 303.846 200.326C302.615 199.701 301.396 198.928 300.099 198.203C297.477 196.794 294.857 194.99 292.053 193.178C286.574 189.358 280.814 184.788 275.282 179.424C269.812 173.996 265.131 168.327 261.206 162.923C259.34 160.155 257.486 157.57 256.027 154.976C255.277 153.693 254.481 152.489 253.832 151.27C253.215 150.1 252.597 148.929 251.977 147.753C247.347 138.729 245.36 132.676 244.715 132.872C244.297 132.974 245.324 139.376 249.413 148.968C249.972 150.215 250.529 151.457 251.085 152.698C251.68 153.99 252.428 155.267 253.138 156.625C254.517 159.369 256.32 162.106 258.165 165.023C262.047 170.723 266.81 176.672 272.474 182.289C278.199 187.843 284.24 192.49 290.014 196.261C292.966 198.049 295.738 199.798 298.508 201.124C299.88 201.808 301.171 202.531 302.474 203.1C303.725 203.632 304.977 204.164 306.236 204.699C315.906 208.602 322.326 209.505 322.42 209.084C322.6 208.437 316.51 206.567 307.398 202.113Z" fill="#551A89"/>
<path d="M265.562 129.868C265.1 130.032 266.028 134.375 268.971 140.895C270.424 144.159 272.477 147.902 275.045 151.881C277.666 155.823 280.834 159.978 284.546 164C288.292 167.99 292.211 171.447 295.955 174.343C299.74 177.189 303.326 179.504 306.479 181.187C312.772 184.589 317.038 185.824 317.234 185.375C317.492 184.816 313.692 182.68 307.962 178.768C305.085 176.828 301.786 174.352 298.26 171.453C294.775 168.503 291.086 165.102 287.482 161.266C283.913 157.398 280.785 153.475 278.092 149.788C275.453 146.064 273.218 142.596 271.489 139.589C267.997 133.593 266.138 129.65 265.562 129.868Z" fill="#551A89"/>
<path d="M399.312 227.457C398.649 223.679 397.178 218.213 393.967 212.05C390.784 205.91 385.775 199.063 378.484 193.323C371.216 187.532 361.87 183.335 352.041 179.963C342.209 176.546 332.754 173.87 324.753 170.285C316.728 166.72 310.096 162.306 305.293 157.802C300.523 153.252 297.632 148.683 296.104 145.312L295.108 143.049L294.468 141.342C294.105 140.417 293.846 139.935 293.71 139.962C293.574 139.988 293.567 140.523 293.683 141.535C293.749 142.038 293.811 142.671 293.967 143.399L294.65 145.884C295.79 149.593 298.486 154.72 303.287 159.81C308.111 164.85 314.936 169.743 323.204 173.643C331.496 177.577 341.031 180.378 350.717 183.751C360.407 187.076 369.307 190.989 376.225 196.251C383.169 201.465 388.141 207.743 391.485 213.429C398.197 224.944 398.882 233.598 399.617 233.424C399.854 233.396 399.936 231.261 399.312 227.457Z" fill="#551A89"/>
<path d="M342.231 154.847C354.298 162.613 365.528 165.99 365.883 164.998C366.318 163.92 356.078 158.996 344.394 151.468C332.668 144.007 323.911 136.768 323.113 137.614C322.362 138.351 330.129 147.138 342.231 154.847Z" fill="#551A89"/>
<path d="M158.673 195.547C158.802 196.024 164.241 195.156 172.668 192.338C176.884 190.946 181.799 188.969 187.125 186.475C192.422 183.927 198.114 180.83 203.827 177.156C209.516 173.445 214.671 169.52 219.163 165.729C223.617 161.89 227.432 158.215 230.427 154.937C236.447 148.401 239.464 143.793 239.081 143.48C238.142 142.626 224.062 159.426 201.645 173.79C179.367 188.367 158.278 194.341 158.673 195.547Z" fill="#551A89"/>
<path d="M177.166 161.844C182.489 160.922 189.746 158.803 197.182 155.131C204.609 151.441 210.692 146.951 214.651 143.275C218.626 139.596 220.589 136.859 220.226 136.493C219.393 135.621 209.72 144.536 195.401 151.536C181.157 158.686 168.204 160.979 168.393 162.17C168.464 162.68 171.831 162.777 177.166 161.844Z" fill="#551A89"/>
<path d="M259.884 54.9193C261.315 56.7863 262.605 58.7023 263.495 60.9163C264.394 63.1243 264.962 65.5613 265.024 68.0893C265.185 73.1893 263.709 78.3603 263.46 83.4143C263.304 85.9343 263.48 88.4573 264.123 90.7303C264.737 93.0313 265.816 94.9273 266.826 96.5003C268.911 99.6293 270.671 101.846 271.679 103.556C272.702 105.236 273.153 106.271 273.445 106.203C273.692 106.153 273.753 104.94 273.099 102.905C272.475 100.872 270.931 98.1923 269.283 95.0813C267.559 91.9623 266.598 88.2723 267.148 83.6873C267.522 79.1443 269.174 74.0033 269.035 67.9493C268.957 64.9253 268.247 61.9973 267.117 59.3863C265.997 56.7513 264.351 54.4923 262.777 52.6153C259.6 48.8883 256.72 45.8453 255.663 42.7763C254.518 39.6583 254.733 36.8563 255.403 35.1703C256.044 33.4313 256.967 32.6943 256.757 32.4293C256.67 32.2473 255.328 32.5373 254.025 34.4343C252.712 36.2823 251.941 39.7303 252.951 43.6093C253.948 47.6513 257.036 51.2323 259.884 54.9193Z" fill="#551A89"/>
<path d="M207.76 98.2998C209.972 99.3088 211.99 100.364 213.901 102.044C215.803 103.687 217.273 105.574 218.358 107.505C219.466 109.479 220.504 111.605 221.919 113.135C223.304 114.668 224.898 115.488 226.06 115.684C227.234 115.89 227.869 115.601 227.883 115.345C227.916 114.795 225.804 114.239 224.174 111.413C223.339 110.052 222.691 108.141 221.647 105.817C220.572 103.45 218.839 100.999 216.526 99.0098C214.259 96.9838 211.446 95.6838 209.205 94.8978C206.949 94.0688 205.167 93.3578 203.941 92.4068C201.338 90.5158 201.196 88.2958 200.641 88.2358C200.394 88.2018 199.978 88.7758 199.993 89.9778C199.991 91.1678 200.589 92.9018 201.989 94.4648C203.386 96.0888 205.588 97.2888 207.76 98.2998Z" fill="#551A89"/>
<path d="M255.095 104.062C255.475 103.534 252.761 101.512 250.331 97.0076C247.811 92.5706 246.072 85.5326 245.797 77.5556C245.646 73.5746 245.75 69.5306 245.11 65.7976C244.532 62.0726 243.064 58.6776 241.155 56.4396C239.277 54.1506 237.1 52.8936 235.517 52.4736C233.923 52.0346 233.007 52.2256 232.97 52.4706C232.811 53.0606 236.249 53.8176 238.856 58.1036C240.181 60.1986 241.107 62.9626 241.448 66.3106C241.834 69.6506 241.636 73.4786 241.787 77.7136C242.063 86.1726 244.441 93.9456 247.936 98.5306C251.37 103.202 254.908 104.466 255.095 104.062Z" fill="#551A89"/>
<path d="M298.68 108.172C299.298 108.103 298.995 104.541 300.347 99.2614C301.038 96.6394 302.181 93.6094 304.084 90.6384C305.238 88.9214 306.321 87.3094 307.367 85.7534C308.495 83.9484 309.689 81.9024 310.214 79.3404C310.823 76.8104 310.173 73.9044 309.162 71.9674C308.202 69.9714 307.24 68.4144 306.919 66.9654C306.207 64.0044 307.333 60.9014 308.637 58.6854C309.993 56.4074 311.522 54.7004 312.496 53.4464C313.492 52.1994 313.982 51.4164 313.794 51.2094C313.609 51.0064 312.776 51.3874 311.432 52.3034C310.108 53.2384 308.195 54.6734 306.294 57.0874C305.354 58.3024 304.458 59.7964 303.84 61.5774C303.228 63.3484 302.882 65.4714 303.299 67.7164C303.713 69.9944 304.844 71.8804 305.586 73.5974C306.37 75.3264 306.646 76.7994 306.282 78.5504C305.544 82.0514 302.816 85.3244 300.914 88.7384C298.93 92.2394 297.948 95.7664 297.562 98.7264C296.836 104.721 298.221 108.281 298.68 108.172Z" fill="#551A89"/>
<path d="M288.777 74.5872C288.647 78.7302 287.777 81.2932 288.336 81.5452C288.759 81.7832 290.663 79.4962 291.593 74.9242C292.056 72.6622 292.221 69.8822 291.891 66.8542C291.611 63.8422 290.676 60.5042 289.541 57.3992C288.436 54.2762 287.503 51.4512 287.414 48.9482C287.275 46.4682 288.086 44.3342 288.966 42.3722C289.839 40.4372 290.605 38.7442 290.911 37.4922C291.236 36.2412 291.185 35.4912 290.932 35.4082C290.66 35.3172 290.218 35.8662 289.5 36.8232C288.793 37.7962 287.735 39.1342 286.479 41.0082C285.863 41.9532 285.198 43.0482 284.657 44.3852C284.115 45.7222 283.765 47.3172 283.718 48.9522C283.614 52.2592 284.654 55.5832 285.752 58.7172C288.133 64.8382 288.96 70.4052 288.777 74.5872Z" fill="#551A89"/>
</g>
<defs>
<clipPath id="clip0_702_2283">
<rect width="512" height="512" fill="white"/>
</clipPath>
</defs>
</svg>
