<svg width="512" height="512" viewBox="0 0 512 512" fill="none" xmlns="http://www.w3.org/2000/svg">
<g clip-path="url(#clip0_702_2204)">
<path d="M484.194 92.4163C481.497 88.6233 477.33 86.1563 472.461 85.4703C470.133 85.1423 467.724 85.2403 465.309 85.6403C462.418 73.5643 454.345 70.7863 450.772 70.1493C450.604 70.1193 450.356 70.0803 450.187 70.0563C443.694 69.1423 437.94 71.8123 433.352 77.5433C430.628 75.7073 427.662 74.3963 424.494 73.9503C420.881 73.4413 417.321 74.0593 414.202 75.7313C413.303 76.2133 412.118 76.9723 410.901 78.0813C408.5 80.2688 410.726 94 406.5 94C400.726 94 402 93.4999 397.5 90.4999C393 87.4999 393 87.4999 390.5 85.4999C388 83.4999 386.5 82.9999 384.5 81.4999L381 78.9999C378.5 77.5433 378 75.7623 373.5 73.9503C369.067 72.1653 359 67.3462 346 64.5C323 60.4311 322.5 62.9983 296 62.9995C263.936 63.0009 213.592 59.7383 167.764 71.6493C139 79.1251 137.5 88.25 130 94.5C122.5 100.75 121.5 102.996 111 106.496C102 107.91 95.8204 97.101 85.5 98.4133C80.5 99.0491 71.9716 99.8373 70.1146 102.097C67.3866 100.211 64.4016 98.8653 61.1896 98.4133C57.7396 97.9273 54.3126 98.4823 51.2756 100.015C44.4656 103.46 41.2846 110.129 41.7926 119.037C31.0746 120.386 27.1296 126.672 25.6806 130.958C21.4686 143.422 31.6596 155.157 52.9346 162.348C55.6096 163.252 58.3166 164.014 60.9576 164.612C76.1026 198.776 100.248 223.511 128.907 234.383C128.976 238.465 129.064 242.562 129.174 246.643C129.613 261.836 130.284 276.775 131.287 292.006C131.631 297.25 132.017 302.491 132.433 307.744C133.699 348.954 140.717 381.71 185.824 392.874C194.157 395.123 203.228 396.486 213.413 397.01C213.64 404.998 212.33 414.076 206.747 420.425C199.788 428.34 186.535 431.779 167.362 430.647C159.881 430.205 153.345 435.662 152.444 443.102L146.03 496.11C145.446 500.947 147.383 505.748 151.164 508.822C153.201 510.478 155.618 511.507 158.135 511.861C160.294 512.165 162.527 511.971 164.656 511.251C173.938 508.113 189.653 496.404 192.087 473.058C207.24 469.372 232.236 460.331 246.185 439.228C254.484 426.672 257.676 412.087 255.738 395.706C260.758 395.341 265.784 394.974 270.81 394.602C284.999 393.55 297.128 392.582 308.267 391.611C330.365 429.614 320.936 477.198 320.837 477.674C319.964 481.83 320.996 486.159 323.652 489.472C326.308 492.783 330.314 494.74 334.558 494.78L386.979 495.365C391.715 495.418 396.162 493.105 398.84 489.199C401.516 485.293 402.067 480.309 400.308 475.914C395.507 463.909 384.886 456.177 370.405 454.139C368.333 453.847 366.283 453.684 364.302 453.616C364.732 427.582 358.875 404.963 352.426 388.125C368.613 386.909 384.276 385.111 398.674 380.352C410.021 376.601 414.601 368.877 416.445 363.056C419.007 354.388 417.76 346.947 418.015 338.571C418.02 327.149 418.133 315.467 417.883 303.888C417.45 283.821 416.582 263.507 415.742 243.863C415.422 236.335 415.1 228.807 414.8 221.275C439.142 202.645 455.284 171.86 460.087 134.808C462.436 133.484 464.8 131.978 467.127 130.324C473.079 126.094 478.071 121.42 481.561 116.809C490.859 104.524 486.497 95.6543 484.194 92.4163Z" fill="white"/>
<path d="M165.698 214.262C123.791 215.139 96.1076 182.748 82.0266 146.708C84.1836 143.095 86.1936 137.646 87.4706 131.351C89.8516 119.611 88.7866 109.488 85.0936 108.739C81.4006 107.99 76.4756 116.899 74.0956 128.639C74.0246 128.987 73.9676 129.329 73.9026 129.675C73.7846 129.434 73.6746 129.196 73.5526 128.955C68.1496 118.264 61.0426 110.976 57.6786 112.676C54.3156 114.376 55.9686 124.42 61.3726 135.111C61.5216 135.406 61.6766 135.688 61.8276 135.978C50.4896 132.148 40.3246 131.935 39.1176 135.502C37.9106 139.072 46.1306 145.077 57.4786 148.913C62.4286 150.587 67.1546 151.571 71.0116 151.853C86.5486 191.817 118.903 227.387 164.92 226.424C172.715 226.258 173.558 214.097 165.698 214.262Z" fill="#001E32"/>
<path d="M349.003 469.252C356.874 406.251 321.863 360.16 321.863 360.16L303.16 362.338C350.186 407.278 334.719 480.594 334.719 480.594L387.14 481.179C379.283 461.544 349.003 469.252 349.003 469.252Z" fill="#001E32"/>
<path d="M223.393 372.449C223.393 372.449 250.692 449.777 166.528 444.806L160.113 497.814C160.113 497.814 180.896 490.787 177.944 461.293C177.944 461.293 265.802 452.155 235.858 375.197L223.393 372.449Z" fill="#001E32"/>
<path d="M472.631 100.634C470.449 97.564 460.775 100.695 451.019 107.626C451.081 107.305 451.148 106.99 451.206 106.665C453.304 94.872 451.997 84.776 448.287 84.116C444.577 83.456 439.868 92.481 437.77 104.275C437.723 104.541 437.686 104.801 437.642 105.066C437.481 104.754 437.327 104.443 437.159 104.13C431.5 93.5721 424.22 86.457 420.899 88.237C417.577 90.017 419.472 100.019 425.131 110.577C428.155 116.22 431.636 120.85 434.735 123.692C431.769 161.648 414.777 201.251 374.958 212.24C367.432 214.317 369.845 226.268 377.44 224.172C422.328 211.785 443.23 168.786 446.816 125.465C450.424 124.084 454.658 121.785 458.908 118.764C468.67 111.822 474.815 103.705 472.631 100.634Z" fill="#001E32"/>
<path d="M353.333 103.442C343.707 94.1894 330.327 92.9524 317.423 93.1054C260.483 98.8464 202.018 98.9354 146.801 115.655C142.84 128.687 150.438 144.701 160.976 152.533C168.219 157.916 177.562 159.364 186.495 160.649L390.316 142.194C378.585 128.895 366.055 115.671 353.333 103.442Z" fill="#FDAE54"/>
<path d="M403.83 338.568C403.83 341.193 403.835 343.818 403.852 346.443C403.911 355.467 404.526 363.477 394.223 366.883C372.403 374.096 345.016 373.928 322.218 376.113C298.93 378.346 275.594 380.039 252.261 381.736C236.222 382.902 219.604 383.955 203.739 381.96L159.363 240.186L190.836 136.822C202.111 138.183 213.746 136.614 225.726 136.351C255.309 135.704 284.846 133.859 314.398 132.437C335.145 131.438 357.417 128.917 378.629 128.696C395.58 128.519 397.187 149.02 397.988 163.053C399.065 181.928 399.805 200.831 400.543 219.721C401.643 247.876 403.092 276.021 403.701 304.193C403.95 315.657 403.832 327.11 403.83 338.568Z" fill="#3289BC"/>
<path d="M394.223 366.883C404.526 363.477 403.912 355.468 403.852 346.443C403.835 343.817 403.829 341.193 403.83 338.568C403.832 331.111 403.846 323.655 403.812 316.198C389.17 315.349 374.365 315.852 359.888 317.279C346.799 318.569 333.523 320.511 320.585 318.148C291.741 312.879 270.533 287.034 260.352 259.537C250.171 232.04 248.519 202.253 243.181 173.422C240.85 160.834 237.601 148.076 232.807 136.133C230.446 136.199 228.087 136.3 225.727 136.351C213.684 136.614 201.988 138.199 190.657 136.8C184.939 136.094 159.363 240.186 159.363 240.186L204.005 381.993C219.791 383.943 236.312 382.895 252.262 381.736C275.594 380.04 298.93 378.346 322.219 376.113C345.016 373.927 372.403 374.095 394.223 366.883Z" fill="#3080B5"/>
<path d="M147.899 109.939C149.419 107.204 151.67 105 155.019 103.855C158.252 102.75 161.976 102.872 165.381 102.5C169.475 102.052 173.571 101.623 177.669 101.212C185.865 100.389 194.068 99.639 202.278 98.961C210.73 98.264 219.187 97.642 227.65 97.098C244.761 95.998 261.867 94.818 278.986 93.851C287.636 93.362 296.29 92.928 304.947 92.585C312.024 92.305 318.89 92.844 325.957 93.28C335.735 93.882 345.676 96.3 353.015 103.169C352.129 103.246 351.242 103.327 350.358 103.396C287.662 108.247 224.328 106.382 162.27 116.537C159.754 116.949 157.152 117.425 154.747 118.276C152.493 119.073 150.413 120.197 148.741 121.903C148.741 121.903 145.268 114.673 147.899 109.939Z" fill="#2B6993"/>
<path d="M204.54 382.033C200.248 300.263 195.621 218.512 190.655 136.781C184.938 136.074 179.312 134.625 173.784 131.846C163.006 126.428 154.834 119.649 147.9 109.938C145.735 112.342 145.736 116.025 145.287 119.115C142.899 135.604 144.295 152.093 143.81 168.848C143.273 187.397 142.821 205.953 142.971 224.512C143.201 253.082 144.489 281.641 146.829 310.116C148.849 334.688 148.024 359.674 172.876 372.762C182.777 377.969 193.485 380.715 204.54 382.033Z" fill="#00B9D9"/>
<path d="M151.283 192.399C152.674 197.23 155.163 201.941 159.679 204.074C174.894 211.261 183.293 196.592 183.851 183.162C184.185 175.11 182.73 166.574 177.568 160.385C175.243 157.598 172.156 155.355 168.632 154.489C151.461 150.27 148.416 175.343 150.092 186.765C150.356 188.559 150.734 190.488 151.283 192.399Z" fill="#3289BC"/>
<path d="M144.22 269.416C161.465 281.308 180.101 290.72 199.877 296.563C199.523 290.171 199.189 283.779 198.831 277.388C178.856 270.523 160.211 259.555 143.352 246.242C143.559 253.97 143.858 261.694 144.22 269.416Z" fill="#482370"/>
<path d="M146.573 306.607C163.712 318.032 182.219 326.957 201.826 332.288C201.598 328.079 201.367 323.869 201.137 319.66C181.199 313.659 162.502 303.604 145.441 291.074C145.781 296.255 146.164 301.432 146.573 306.607Z" fill="#482370"/>
<path d="M376.771 194.628C373.664 173.72 370.265 153.657 345.923 153.817C329.494 153.925 308.115 162.66 311.536 182.313C312.486 187.769 315.855 192.434 318.749 197.157C328.339 212.808 333.425 231.183 333.248 249.537C333.19 255.531 332.592 261.605 333.866 267.462C335.14 273.319 338.759 279.111 344.449 280.995C349.678 282.726 355.522 280.786 359.979 277.549C370.476 269.925 374.653 256.341 376.632 243.519C379.129 227.351 379.176 210.808 376.771 194.628Z" fill="#4A96BC"/>
<path d="M203.638 179.767L199.348 147.938L231.869 145.223L203.638 179.767Z" fill="#FDAE54"/>
<path d="M384.497 173.429L385.736 141.336L353.105 141.73L384.497 173.429Z" fill="#FDAE54"/>
<path d="M386.95 323.25L393.299 354.733L361.023 359.556L386.95 323.25Z" fill="#FDAE54"/>
<path d="M215.5 333.641L216.349 365.747L248.886 363.233L215.5 333.641Z" fill="#FDAE54"/>
<path d="M263.878 211.588C263.987 219.292 259.687 225.6 254.273 225.677C248.859 225.754 244.382 219.571 244.272 211.867C244.163 204.163 248.463 197.855 253.877 197.778C259.291 197.7 263.769 203.883 263.878 211.588Z" fill="#482370"/>
<path d="M354.038 210.307C354.147 218.011 349.847 224.319 344.433 224.396C339.019 224.473 334.542 218.29 334.432 210.586C334.323 202.882 338.623 196.574 344.037 196.497C349.451 196.42 353.929 202.603 354.038 210.307Z" fill="#482370"/>
<path d="M276.402 211.877C277.681 224.223 285.829 234.181 298.888 233.942C311.47 233.711 319.765 223.184 322.001 211.722C322.606 208.619 317.696 208.344 317.098 211.408C315.201 221.13 308.111 228.875 297.825 229.064C287.445 229.255 282.16 220.016 281.213 210.876C280.888 207.73 276.079 208.752 276.402 211.877Z" fill="#482370"/>
<path d="M243.606 149.449C276.061 148.602 308.475 146.953 340.85 144.53C343.998 144.294 342.968 139.485 339.849 139.719C307.912 142.11 275.934 143.711 243.919 144.547C240.78 144.629 240.438 149.532 243.606 149.449Z" fill="#482370"/>
<path d="M204.88 193.885C209.386 235.963 212.2 278.173 213.324 320.477C213.407 323.617 218.311 323.959 218.227 320.791C217.092 278.048 214.245 235.399 209.691 192.885C209.354 189.738 204.545 190.759 204.88 193.885Z" fill="#482370"/>
<path d="M381.705 181.268C383.158 225.816 384.612 270.365 386.065 314.913C386.167 318.05 391.071 318.393 390.968 315.227C389.515 270.678 388.061 226.13 386.608 181.582C386.506 178.445 381.602 178.101 381.705 181.268Z" fill="#482370"/>
<path d="M255.497 364.635C287.125 362.522 318.753 360.409 350.381 358.296C353.495 358.088 353.849 353.182 350.695 353.393C319.067 355.506 287.439 357.619 255.811 359.732C252.697 359.94 252.343 364.846 255.497 364.635Z" fill="#482370"/>
</g>
<defs>
<clipPath id="clip0_702_2204">
<rect width="512" height="512" fill="white"/>
</clipPath>
</defs>
</svg>
