<svg width="180" height="180" viewBox="0 0 180 180" fill="none" xmlns="http://www.w3.org/2000/svg">
<path fill-rule="evenodd" clip-rule="evenodd" d="M109.756 6.99029C109.756 3.12966 112.901 0 116.78 0H158.927C170.565 0 180 9.38898 180 20.9709V62.9126C180 66.7733 176.855 69.9029 172.976 69.9029C169.096 69.9029 165.951 66.7733 165.951 62.9126V20.9709C165.951 17.1102 162.806 13.9806 158.927 13.9806H116.78C112.901 13.9806 109.756 10.8509 109.756 6.99029Z" fill="#439A86"/>
<path fill-rule="evenodd" clip-rule="evenodd" d="M70.2439 6.99029C70.2439 3.12966 67.099 0 63.2195 0H21.0732C9.43478 0 0 9.38898 0 20.9709V62.9126C0 66.7733 3.14492 69.9029 7.02439 69.9029C10.9039 69.9029 14.0488 66.7733 14.0488 62.9126V20.9709C14.0488 17.1102 17.1937 13.9806 21.0732 13.9806H63.2195C67.099 13.9806 70.2439 10.8509 70.2439 6.99029Z" fill="#439A86"/>
<path fill-rule="evenodd" clip-rule="evenodd" d="M109.756 173.01C109.756 176.87 112.901 180 116.78 180H158.927C170.565 180 180 170.611 180 159.029V117.087C180 113.227 176.855 110.097 172.976 110.097C169.096 110.097 165.951 113.227 165.951 117.087V159.029C165.951 162.89 162.806 166.019 158.927 166.019H116.78C112.901 166.019 109.756 169.149 109.756 173.01Z" fill="#439A86"/>
<path fill-rule="evenodd" clip-rule="evenodd" d="M70.2439 173.01C70.2439 176.87 67.099 180 63.2195 180H21.0732C9.43478 180 0 170.611 0 159.029V117.087C0 113.227 3.14492 110.097 7.02439 110.097C10.9039 110.097 14.0488 113.227 14.0488 117.087V159.029C14.0488 162.89 17.1937 166.019 21.0732 166.019H63.2195C67.099 166.019 70.2439 169.149 70.2439 173.01Z" fill="#439A86"/>
<path fill-rule="evenodd" clip-rule="evenodd" d="M64.5366 31.4563C68.416 31.4563 71.561 34.586 71.561 38.4466V49.3689C71.561 53.2296 68.416 56.3592 64.5366 56.3592C60.6571 56.3592 57.5122 53.2296 57.5122 49.3689V38.4466C57.5122 34.586 60.6571 31.4563 64.5366 31.4563Z" fill="#439A86"/>
<path fill-rule="evenodd" clip-rule="evenodd" d="M115.902 31.4563C119.782 31.4563 122.927 34.586 122.927 38.4466V49.3689C122.927 53.2296 119.782 56.3592 115.902 56.3592C112.023 56.3592 108.878 53.2296 108.878 49.3689V38.4466C108.878 34.586 112.023 31.4563 115.902 31.4563Z" fill="#439A86"/>
<path fill-rule="evenodd" clip-rule="evenodd" d="M79.6218 59.6503C82.8871 57.5657 87.2323 58.5101 89.327 61.7595C94.4114 69.6467 100.985 81.8275 102.992 91.8938C103.935 96.6209 104.349 103.162 100.35 108.08C95.9098 113.541 88.7692 113.962 81.9981 112.575C78.1984 111.796 75.7522 108.1 76.5345 104.319C77.3169 100.537 81.0314 98.103 84.8311 98.8815C87.6296 99.4548 88.9351 99.2931 89.4414 99.15C89.5517 98.7192 89.7736 97.4291 89.2125 94.6159C87.7375 87.221 82.3691 76.8582 77.5022 69.3084C75.4075 66.059 76.3565 61.7349 79.6218 59.6503ZM89.7103 99.0359C89.7132 99.039 89.688 99.0586 89.6265 99.0857C89.6768 99.0464 89.7075 99.0328 89.7103 99.0359Z" fill="#439A86"/>
<path fill-rule="evenodd" clip-rule="evenodd" d="M50.1613 119.301C53.7822 117.915 57.8465 119.713 59.2391 123.316C60.0568 125.432 63.4787 130.132 69.341 134.611C75.0245 138.953 82.0281 142.323 89.2322 142.886C95.8813 143.405 103.044 140.567 110.151 135.832C117.161 131.161 123.234 125.246 127.618 120.883C130.362 118.153 134.809 118.153 137.552 120.883C140.296 123.612 140.296 128.038 137.552 130.768C133.157 135.143 126.234 141.941 117.967 147.45C109.795 152.894 99.3968 157.703 88.1337 156.823C77.4256 155.988 67.8926 151.13 60.7858 145.7C53.8579 140.407 48.2359 133.792 46.1267 128.335C44.7341 124.731 46.5404 120.687 50.1613 119.301Z" fill="#439A86"/>
</svg>
